<svg width="280" height="71" viewBox="0 0 280 71" fill="none" xmlns="http://www.w3.org/2000/svg">
<path d="M6.01559 10.3097H23.7256C27.7389 10.3097 31.3556 10.9164 34.5756 12.1297C37.7956 13.343 40.5256 15.0464 42.7656 17.2397C45.0056 19.433 46.7089 22.0697 47.8756 25.1497C49.0889 28.2297 49.6956 31.6364 49.6956 35.3697C49.6956 39.103 49.0889 42.5097 47.8756 45.5897C46.7089 48.6697 45.0056 51.3064 42.7656 53.4997C40.5256 55.693 37.7956 57.3964 34.5756 58.6097C31.3556 59.823 27.7389 60.4297 23.7256 60.4297H6.01559V10.3097ZM23.1656 50.0697C25.8723 50.0697 28.2056 49.7197 30.1656 49.0197C32.1256 48.273 33.7356 47.2464 34.9956 45.9397C36.3023 44.633 37.2589 43.093 37.8656 41.3197C38.4723 39.4997 38.7756 37.5164 38.7756 35.3697C38.7756 33.223 38.4723 31.263 37.8656 29.4897C37.2589 27.6697 36.3023 26.1064 34.9956 24.7997C33.7356 23.493 32.1256 22.4897 30.1656 21.7897C28.2056 21.043 25.8723 20.6697 23.1656 20.6697H16.9356V50.0697H23.1656ZM88.3881 52.0997C86.7081 55.0397 84.4914 57.3497 81.7381 59.0297C79.0314 60.7097 75.7414 61.5497 71.8681 61.5497C69.2081 61.5497 66.7348 61.1064 64.4481 60.2197C62.2081 59.2864 60.2481 58.003 58.5681 56.3697C56.8881 54.7364 55.5814 52.823 54.6481 50.6297C53.7148 48.3897 53.2481 45.9397 53.2481 43.2797C53.2481 40.8064 53.7148 38.473 54.6481 36.2797C55.5814 34.0397 56.8648 32.103 58.4981 30.4697C60.1781 28.7897 62.1148 27.4597 64.3081 26.4797C66.5481 25.4997 68.9748 25.0097 71.5881 25.0097C74.4348 25.0097 76.9314 25.4764 79.0781 26.4097C81.2714 27.343 83.0914 28.6264 84.5381 30.2597C85.9848 31.8464 87.0814 33.7364 87.8281 35.9297C88.5748 38.0764 88.9481 40.3864 88.9481 42.8597C88.9481 43.233 88.9248 43.6064 88.8781 43.9797C88.8781 44.353 88.8548 44.6797 88.8081 44.9597C88.7614 45.2864 88.7381 45.5897 88.7381 45.8697H63.4681C63.9814 48.1097 65.0314 49.743 66.6181 50.7697C68.2048 51.7964 69.9781 52.3097 71.9381 52.3097C73.8981 52.3097 75.5081 51.8897 76.7681 51.0497C78.0748 50.2097 79.1014 49.1364 79.8481 47.8297L88.3881 52.0997ZM79.0781 38.7297C78.9848 38.1697 78.7514 37.563 78.3781 36.9097C78.0514 36.2564 77.5614 35.673 76.9081 35.1597C76.3014 34.5997 75.5314 34.1564 74.5981 33.8297C73.7114 33.4564 72.7081 33.2697 71.5881 33.2697C69.9548 33.2697 68.4381 33.7364 67.0381 34.6697C65.6381 35.603 64.6114 36.9564 63.9581 38.7297H79.0781ZM90.5329 26.1297H102.713L110.413 45.5897H111.113L118.953 26.1297H130.993L115.873 60.4297H105.513L90.5329 26.1297ZM136.309 10.3097H169.349V20.6697H147.229V30.7497H167.109V41.1097H147.229V60.4297H136.309V10.3097ZM206.581 52.0997C204.901 55.0397 202.685 57.3497 199.931 59.0297C197.225 60.7097 193.935 61.5497 190.061 61.5497C187.401 61.5497 184.928 61.1064 182.641 60.2197C180.401 59.2864 178.441 58.003 176.761 56.3697C175.081 54.7364 173.775 52.823 172.841 50.6297C171.908 48.3897 171.441 45.9397 171.441 43.2797C171.441 40.8064 171.908 38.473 172.841 36.2797C173.775 34.0397 175.058 32.103 176.691 30.4697C178.371 28.7897 180.308 27.4597 182.501 26.4797C184.741 25.4997 187.168 25.0097 189.781 25.0097C192.628 25.0097 195.125 25.4764 197.271 26.4097C199.465 27.343 201.285 28.6264 202.731 30.2597C204.178 31.8464 205.275 33.7364 206.021 35.9297C206.768 38.0764 207.141 40.3864 207.141 42.8597C207.141 43.233 207.118 43.6064 207.071 43.9797C207.071 44.353 207.048 44.6797 207.001 44.9597C206.955 45.2864 206.931 45.5897 206.931 45.8697H181.661C182.175 48.1097 183.225 49.743 184.811 50.7697C186.398 51.7964 188.171 52.3097 190.131 52.3097C192.091 52.3097 193.701 51.8897 194.961 51.0497C196.268 50.2097 197.295 49.1364 198.041 47.8297L206.581 52.0997ZM197.271 38.7297C197.178 38.1697 196.945 37.563 196.571 36.9097C196.245 36.2564 195.755 35.673 195.101 35.1597C194.495 34.5997 193.725 34.1564 192.791 33.8297C191.905 33.4564 190.901 33.2697 189.781 33.2697C188.148 33.2697 186.631 33.7364 185.231 34.6697C183.831 35.603 182.805 36.9564 182.151 38.7297H197.271ZM227.532 61.5497C225.152 61.5497 223.052 61.2697 221.232 60.7097C219.412 60.1497 217.825 59.4264 216.472 58.5397C215.165 57.6064 214.068 56.5564 213.182 55.3897C212.295 54.1764 211.618 52.963 211.152 51.7497L220.602 47.7597C221.255 49.3464 222.165 50.513 223.332 51.2597C224.498 51.9597 225.898 52.3097 227.532 52.3097C228.932 52.3097 230.005 52.0997 230.752 51.6797C231.545 51.213 231.942 50.6297 231.942 49.9297C231.942 49.1364 231.568 48.5297 230.822 48.1097C230.075 47.643 228.885 47.223 227.252 46.8497L222.562 45.8697C221.442 45.6364 220.298 45.263 219.132 44.7497C217.965 44.2364 216.892 43.5597 215.912 42.7197C214.932 41.8797 214.138 40.8997 213.532 39.7797C212.925 38.613 212.622 37.283 212.622 35.7897C212.622 34.1564 212.972 32.6864 213.672 31.3797C214.418 30.0264 215.422 28.883 216.682 27.9497C217.942 27.0164 219.435 26.293 221.162 25.7797C222.888 25.2664 224.778 25.0097 226.832 25.0097C230.378 25.0097 233.435 25.6397 236.002 26.8997C238.568 28.113 240.505 30.1664 241.812 33.0597L232.782 36.7697C232.175 35.5564 231.312 34.6697 230.192 34.1097C229.118 33.5497 228.022 33.2697 226.902 33.2697C225.688 33.2697 224.708 33.4797 223.962 33.8997C223.215 34.3197 222.842 34.833 222.842 35.4397C222.842 36.093 223.215 36.6297 223.962 37.0497C224.755 37.423 225.712 37.7497 226.832 38.0297L232.152 39.2897C235.652 40.1297 238.265 41.483 239.992 43.3497C241.718 45.2164 242.582 47.4097 242.582 49.9297C242.582 51.4697 242.208 52.9397 241.462 54.3397C240.762 55.7397 239.735 56.9764 238.382 58.0497C237.075 59.123 235.488 59.963 233.622 60.5697C231.802 61.223 229.772 61.5497 227.532 61.5497ZM251.625 34.9497H245.605V26.1297H251.625V15.6297H262.125V26.1297H270.595V34.9497H262.125V46.4997C262.125 47.2464 262.218 47.9464 262.405 48.5997C262.591 49.2064 262.918 49.7197 263.385 50.1397C264.085 50.7464 264.995 51.0497 266.115 51.0497C266.861 51.0497 267.491 50.9564 268.005 50.7697C268.518 50.583 268.961 50.3497 269.335 50.0697L272.275 59.1697C271.061 59.7297 269.755 60.173 268.355 60.4997C266.955 60.8264 265.461 60.9897 263.875 60.9897C260.188 60.9897 257.271 59.9164 255.125 57.7697C254.005 56.6497 253.141 55.273 252.535 53.6397C251.928 51.9597 251.625 50.1164 251.625 48.1097V34.9497Z" fill="#19154A"/>
</svg>
