<svg width="253" height="162" viewBox="0 0 253 162" fill="none" xmlns="http://www.w3.org/2000/svg">
<g filter="url(#filter0_d_555_886)">
<path d="M4.608 34.176H20.8C24.4693 34.176 27.776 34.7307 30.72 35.84C33.664 36.9493 36.16 38.5067 38.208 40.512C40.256 42.5173 41.8133 44.928 42.88 47.744C43.9893 50.56 44.544 53.6747 44.544 57.088C44.544 60.5013 43.9893 63.616 42.88 66.432C41.8133 69.248 40.256 71.6587 38.208 73.664C36.16 75.6693 33.664 77.2267 30.72 78.336C27.776 79.4453 24.4693 80 20.8 80H4.608V34.176ZM20.288 70.528C22.7627 70.528 24.896 70.208 26.688 69.568C28.48 68.8853 29.952 67.9467 31.104 66.752C32.2987 65.5573 33.1733 64.1493 33.728 62.528C34.2827 60.864 34.56 59.0507 34.56 57.088C34.56 55.1253 34.2827 53.3333 33.728 51.712C33.1733 50.048 32.2987 48.6187 31.104 47.424C29.952 46.2293 28.48 45.312 26.688 44.672C24.896 43.9893 22.7627 43.648 20.288 43.648H14.592V70.528H20.288ZM79.92 72.384C78.384 75.072 76.3573 77.184 73.84 78.72C71.3653 80.256 68.3573 81.024 64.816 81.024C62.384 81.024 60.1227 80.6187 58.032 79.808C55.984 78.9547 54.192 77.7813 52.656 76.288C51.12 74.7947 49.9253 73.0453 49.072 71.04C48.2187 68.992 47.792 66.752 47.792 64.32C47.792 62.0587 48.2187 59.9253 49.072 57.92C49.9253 55.872 51.0987 54.1013 52.592 52.608C54.128 51.072 55.8987 49.856 57.904 48.96C59.952 48.064 62.1707 47.616 64.56 47.616C67.1627 47.616 69.4453 48.0427 71.408 48.896C73.4133 49.7493 75.0773 50.9227 76.4 52.416C77.7227 53.8667 78.7253 55.5947 79.408 57.6C80.0907 59.5627 80.432 61.6747 80.432 63.936C80.432 64.2773 80.4107 64.6187 80.368 64.96C80.368 65.3013 80.3467 65.6 80.304 65.856C80.2613 66.1547 80.24 66.432 80.24 66.688H57.136C57.6053 68.736 58.5653 70.2293 60.016 71.168C61.4667 72.1067 63.088 72.576 64.88 72.576C66.672 72.576 68.144 72.192 69.296 71.424C70.4907 70.656 71.4293 69.6747 72.112 68.48L79.92 72.384ZM71.408 60.16C71.3227 59.648 71.1093 59.0933 70.768 58.496C70.4693 57.8987 70.0213 57.3653 69.424 56.896C68.8693 56.384 68.1653 55.9787 67.312 55.68C66.5013 55.3387 65.584 55.168 64.56 55.168C63.0667 55.168 61.68 55.5947 60.4 56.448C59.12 57.3013 58.1813 58.5387 57.584 60.16H71.408ZM81.881 48.64H93.017L100.057 66.432H100.697L107.865 48.64H118.873L105.049 80H95.577L81.881 48.64ZM123.733 34.176H153.941V43.648H133.717V52.864H151.893V62.336H133.717V80H123.733V34.176ZM187.983 72.384C186.447 75.072 184.42 77.184 181.903 78.72C179.428 80.256 176.42 81.024 172.878 81.024C170.447 81.024 168.185 80.6187 166.095 79.808C164.047 78.9547 162.255 77.7813 160.719 76.288C159.183 74.7947 157.988 73.0453 157.135 71.04C156.281 68.992 155.855 66.752 155.855 64.32C155.855 62.0587 156.281 59.9253 157.135 57.92C157.988 55.872 159.161 54.1013 160.655 52.608C162.191 51.072 163.961 49.856 165.967 48.96C168.015 48.064 170.233 47.616 172.623 47.616C175.225 47.616 177.508 48.0427 179.471 48.896C181.476 49.7493 183.14 50.9227 184.463 52.416C185.785 53.8667 186.788 55.5947 187.471 57.6C188.153 59.5627 188.495 61.6747 188.495 63.936C188.495 64.2773 188.473 64.6187 188.431 64.96C188.431 65.3013 188.409 65.6 188.367 65.856C188.324 66.1547 188.303 66.432 188.303 66.688H165.199C165.668 68.736 166.628 70.2293 168.079 71.168C169.529 72.1067 171.151 72.576 172.943 72.576C174.735 72.576 176.207 72.192 177.359 71.424C178.553 70.656 179.492 69.6747 180.175 68.48L187.983 72.384ZM179.471 60.16C179.385 59.648 179.172 59.0933 178.831 58.496C178.532 57.8987 178.084 57.3653 177.487 56.896C176.932 56.384 176.228 55.9787 175.375 55.68C174.564 55.3387 173.647 55.168 172.623 55.168C171.129 55.168 169.743 55.5947 168.463 56.448C167.183 57.3013 166.244 58.5387 165.647 60.16H179.471ZM207.137 81.024C204.961 81.024 203.041 80.768 201.377 80.256C199.713 79.744 198.262 79.0827 197.025 78.272C195.83 77.4187 194.828 76.4587 194.017 75.392C193.206 74.2827 192.588 73.1733 192.161 72.064L200.801 68.416C201.398 69.8667 202.23 70.9333 203.297 71.616C204.364 72.256 205.644 72.576 207.137 72.576C208.417 72.576 209.398 72.384 210.081 72C210.806 71.5733 211.169 71.04 211.169 70.4C211.169 69.6747 210.828 69.12 210.145 68.736C209.462 68.3093 208.374 67.9253 206.881 67.584L202.593 66.688C201.569 66.4747 200.524 66.1333 199.457 65.664C198.39 65.1947 197.409 64.576 196.513 63.808C195.617 63.04 194.892 62.144 194.337 61.12C193.782 60.0533 193.505 58.8373 193.505 57.472C193.505 55.9787 193.825 54.6347 194.465 53.44C195.148 52.2027 196.065 51.1573 197.217 50.304C198.369 49.4507 199.734 48.7893 201.313 48.32C202.892 47.8507 204.62 47.616 206.497 47.616C209.74 47.616 212.534 48.192 214.881 49.344C217.228 50.4533 218.998 52.3307 220.193 54.976L211.937 58.368C211.382 57.2587 210.593 56.448 209.569 55.936C208.588 55.424 207.585 55.168 206.561 55.168C205.452 55.168 204.556 55.36 203.873 55.744C203.19 56.128 202.849 56.5973 202.849 57.152C202.849 57.7493 203.19 58.24 203.873 58.624C204.598 58.9653 205.473 59.264 206.497 59.52L211.361 60.672C214.561 61.44 216.95 62.6773 218.529 64.384C220.108 66.0907 220.897 68.096 220.897 70.4C220.897 71.808 220.556 73.152 219.873 74.432C219.233 75.712 218.294 76.8427 217.057 77.824C215.862 78.8053 214.412 79.5733 212.705 80.128C211.041 80.7253 209.185 81.024 207.137 81.024ZM229.165 56.704H223.661V48.64H229.165V39.04H238.765V48.64H246.509V56.704H238.765V67.264C238.765 67.9467 238.85 68.5867 239.021 69.184C239.192 69.7387 239.49 70.208 239.917 70.592C240.557 71.1467 241.389 71.424 242.413 71.424C243.096 71.424 243.672 71.3387 244.141 71.168C244.61 70.9973 245.016 70.784 245.357 70.528L248.045 78.848C246.936 79.36 245.741 79.7653 244.461 80.064C243.181 80.3627 241.816 80.512 240.365 80.512C236.994 80.512 234.328 79.5307 232.365 77.568C231.341 76.544 230.552 75.2853 229.997 73.792C229.442 72.256 229.165 70.5707 229.165 68.736V56.704Z" fill="#19154A"/>
<mask id="path-2-outside-1_555_886" maskUnits="userSpaceOnUse" x="3" y="99" width="246" height="51" fill="black">
<rect fill="white" x="3" y="99" width="246" height="51"/>
<path d="M5.464 102.608H15.136V147H5.464V102.608ZM33.5999 120.464H34.2199C36.2866 117.24 39.3866 115.628 43.5199 115.628C47.3226 115.628 50.1539 116.847 52.0139 119.286C53.8739 121.725 54.8039 124.928 54.8039 128.896V147H45.5039V129.95C45.5039 128.297 45.1112 126.953 44.3259 125.92C43.5406 124.845 42.3212 124.308 40.6679 124.308C38.5599 124.308 36.9479 125.114 35.8319 126.726C34.7572 128.338 34.2199 130.446 34.2199 133.05V147H24.9199V116.62H33.5999V120.464ZM85.6702 143.652H85.0502C84.3475 144.851 83.2522 145.884 81.7642 146.752C80.3175 147.579 78.4782 147.992 76.2462 147.992C74.3035 147.992 72.4435 147.599 70.6662 146.814C68.8889 146.029 67.3182 144.933 65.9542 143.528C64.6315 142.081 63.5775 140.366 62.7922 138.382C62.0069 136.398 61.6142 134.207 61.6142 131.81C61.6142 129.413 62.0069 127.222 62.7922 125.238C63.5775 123.254 64.6315 121.559 65.9542 120.154C67.3182 118.707 68.8889 117.591 70.6662 116.806C72.4435 116.021 74.3035 115.628 76.2462 115.628C78.4782 115.628 80.3175 116.062 81.7642 116.93C83.2522 117.757 84.3475 118.769 85.0502 119.968H85.6702L85.0502 115.628V102.608H94.3502V147H85.6702V143.652ZM78.2922 139.312C79.2842 139.312 80.2142 139.147 81.0822 138.816C81.9915 138.444 82.7769 137.948 83.4382 137.328C84.1409 136.667 84.6782 135.881 85.0502 134.972C85.4635 134.021 85.6702 132.967 85.6702 131.81C85.6702 130.653 85.4635 129.619 85.0502 128.71C84.6782 127.801 84.1409 127.015 83.4382 126.354C82.7769 125.693 81.9915 125.197 81.0822 124.866C80.2142 124.494 79.2842 124.308 78.2922 124.308C77.3002 124.308 76.3495 124.494 75.4402 124.866C74.5722 125.197 73.7869 125.693 73.0842 126.354C72.4229 127.015 71.8855 127.801 71.4722 128.71C71.1002 129.619 70.9142 130.653 70.9142 131.81C70.9142 132.967 71.1002 134.021 71.4722 134.972C71.8855 135.881 72.4229 136.667 73.0842 137.328C73.7869 137.948 74.5722 138.444 75.4402 138.816C76.3495 139.147 77.3002 139.312 78.2922 139.312ZM108.319 113.272C107.492 113.272 106.728 113.127 106.025 112.838C105.322 112.507 104.702 112.094 104.165 111.598C103.669 111.061 103.256 110.441 102.925 109.738C102.636 109.035 102.491 108.271 102.491 107.444C102.491 106.659 102.636 105.915 102.925 105.212C103.256 104.468 103.669 103.848 104.165 103.352C104.702 102.815 105.322 102.401 106.025 102.112C106.728 101.781 107.492 101.616 108.319 101.616C109.104 101.616 109.848 101.781 110.551 102.112C111.295 102.401 111.915 102.815 112.411 103.352C112.948 103.848 113.362 104.468 113.651 105.212C113.982 105.915 114.147 106.659 114.147 107.444C114.147 108.271 113.982 109.035 113.651 109.738C113.362 110.441 112.948 111.061 112.411 111.598C111.915 112.094 111.295 112.507 110.551 112.838C109.848 113.127 109.104 113.272 108.319 113.272ZM103.669 147V116.62H112.969V147H103.669ZM140.214 144.272H139.594C138.602 145.347 137.466 146.235 136.184 146.938C134.944 147.641 133.332 147.992 131.348 147.992C129.819 147.992 128.372 147.744 127.008 147.248C125.686 146.752 124.508 146.049 123.474 145.14C122.482 144.231 121.697 143.135 121.118 141.854C120.54 140.573 120.25 139.147 120.25 137.576C120.25 136.047 120.56 134.662 121.18 133.422C121.8 132.141 122.648 131.045 123.722 130.136C124.797 129.227 126.058 128.524 127.504 128.028C128.992 127.532 130.604 127.284 132.34 127.284C134.2 127.284 135.73 127.408 136.928 127.656C138.168 127.904 139.264 128.193 140.214 128.524V127.718C140.214 126.395 139.656 125.279 138.54 124.37C137.466 123.419 135.998 122.944 134.138 122.944C131.452 122.944 129.137 124.039 127.194 126.23L120.87 121.766C122.606 119.699 124.611 118.17 126.884 117.178C129.199 116.145 131.741 115.628 134.51 115.628C139.47 115.628 143.211 116.744 145.732 118.976C148.254 121.167 149.514 124.515 149.514 129.02V147H140.214V144.272ZM140.214 135.034C139.264 134.662 138.313 134.373 137.362 134.166C136.453 133.959 135.502 133.856 134.51 133.856C132.857 133.856 131.617 134.207 130.79 134.91C129.964 135.571 129.55 136.439 129.55 137.514C129.55 138.589 129.943 139.457 130.728 140.118C131.514 140.738 132.547 141.048 133.828 141.048C134.862 141.048 135.771 140.883 136.556 140.552C137.383 140.18 138.065 139.705 138.602 139.126C139.14 138.547 139.532 137.907 139.78 137.204C140.07 136.46 140.214 135.737 140.214 135.034ZM157.503 117.86L160.727 112.962C159.694 112.507 158.867 111.805 158.247 110.854C157.627 109.862 157.317 108.767 157.317 107.568C157.317 105.915 157.896 104.509 159.053 103.352C160.21 102.195 161.616 101.616 163.269 101.616C164.922 101.616 166.328 102.195 167.485 103.352C168.642 104.509 169.221 105.915 169.221 107.568C169.221 108.312 169.097 108.973 168.849 109.552C168.642 110.131 168.291 110.771 167.795 111.474L161.657 120.588L157.503 117.86ZM189.934 139.064H205.868V147H177.1V138.816C179.58 136.377 181.874 134.125 183.982 132.058C184.892 131.19 185.801 130.301 186.71 129.392C187.578 128.483 188.384 127.656 189.128 126.912C189.914 126.127 190.596 125.445 191.174 124.866C191.794 124.246 192.249 123.771 192.538 123.44C193.737 122.117 194.584 120.96 195.08 119.968C195.576 118.935 195.824 117.819 195.824 116.62C195.824 115.421 195.37 114.409 194.46 113.582C193.592 112.714 192.373 112.28 190.802 112.28C189.232 112.28 187.971 112.735 187.02 113.644C186.111 114.512 185.429 115.669 184.974 117.116L176.542 113.644C176.914 112.363 177.493 111.123 178.278 109.924C179.064 108.725 180.056 107.671 181.254 106.762C182.453 105.811 183.858 105.047 185.47 104.468C187.124 103.889 188.942 103.6 190.926 103.6C193.158 103.6 195.163 103.931 196.94 104.592C198.718 105.212 200.206 106.08 201.404 107.196C202.644 108.312 203.595 109.635 204.256 111.164C204.918 112.693 205.248 114.347 205.248 116.124C205.248 118.687 204.649 121.063 203.45 123.254C202.293 125.403 200.66 127.532 198.552 129.64L189.624 138.444L189.934 139.064ZM232.196 147V139.746H212.914V132.058L231.39 104.592H241.496V131.066H246.704V139.746H241.496V147H232.196ZM232.196 118.542H231.576L223.206 131.066H232.196V118.542Z"/>
</mask>
<path d="M5.464 102.608H15.136V147H5.464V102.608ZM33.5999 120.464H34.2199C36.2866 117.24 39.3866 115.628 43.5199 115.628C47.3226 115.628 50.1539 116.847 52.0139 119.286C53.8739 121.725 54.8039 124.928 54.8039 128.896V147H45.5039V129.95C45.5039 128.297 45.1112 126.953 44.3259 125.92C43.5406 124.845 42.3212 124.308 40.6679 124.308C38.5599 124.308 36.9479 125.114 35.8319 126.726C34.7572 128.338 34.2199 130.446 34.2199 133.05V147H24.9199V116.62H33.5999V120.464ZM85.6702 143.652H85.0502C84.3475 144.851 83.2522 145.884 81.7642 146.752C80.3175 147.579 78.4782 147.992 76.2462 147.992C74.3035 147.992 72.4435 147.599 70.6662 146.814C68.8889 146.029 67.3182 144.933 65.9542 143.528C64.6315 142.081 63.5775 140.366 62.7922 138.382C62.0069 136.398 61.6142 134.207 61.6142 131.81C61.6142 129.413 62.0069 127.222 62.7922 125.238C63.5775 123.254 64.6315 121.559 65.9542 120.154C67.3182 118.707 68.8889 117.591 70.6662 116.806C72.4435 116.021 74.3035 115.628 76.2462 115.628C78.4782 115.628 80.3175 116.062 81.7642 116.93C83.2522 117.757 84.3475 118.769 85.0502 119.968H85.6702L85.0502 115.628V102.608H94.3502V147H85.6702V143.652ZM78.2922 139.312C79.2842 139.312 80.2142 139.147 81.0822 138.816C81.9915 138.444 82.7769 137.948 83.4382 137.328C84.1409 136.667 84.6782 135.881 85.0502 134.972C85.4635 134.021 85.6702 132.967 85.6702 131.81C85.6702 130.653 85.4635 129.619 85.0502 128.71C84.6782 127.801 84.1409 127.015 83.4382 126.354C82.7769 125.693 81.9915 125.197 81.0822 124.866C80.2142 124.494 79.2842 124.308 78.2922 124.308C77.3002 124.308 76.3495 124.494 75.4402 124.866C74.5722 125.197 73.7869 125.693 73.0842 126.354C72.4229 127.015 71.8855 127.801 71.4722 128.71C71.1002 129.619 70.9142 130.653 70.9142 131.81C70.9142 132.967 71.1002 134.021 71.4722 134.972C71.8855 135.881 72.4229 136.667 73.0842 137.328C73.7869 137.948 74.5722 138.444 75.4402 138.816C76.3495 139.147 77.3002 139.312 78.2922 139.312ZM108.319 113.272C107.492 113.272 106.728 113.127 106.025 112.838C105.322 112.507 104.702 112.094 104.165 111.598C103.669 111.061 103.256 110.441 102.925 109.738C102.636 109.035 102.491 108.271 102.491 107.444C102.491 106.659 102.636 105.915 102.925 105.212C103.256 104.468 103.669 103.848 104.165 103.352C104.702 102.815 105.322 102.401 106.025 102.112C106.728 101.781 107.492 101.616 108.319 101.616C109.104 101.616 109.848 101.781 110.551 102.112C111.295 102.401 111.915 102.815 112.411 103.352C112.948 103.848 113.362 104.468 113.651 105.212C113.982 105.915 114.147 106.659 114.147 107.444C114.147 108.271 113.982 109.035 113.651 109.738C113.362 110.441 112.948 111.061 112.411 111.598C111.915 112.094 111.295 112.507 110.551 112.838C109.848 113.127 109.104 113.272 108.319 113.272ZM103.669 147V116.62H112.969V147H103.669ZM140.214 144.272H139.594C138.602 145.347 137.466 146.235 136.184 146.938C134.944 147.641 133.332 147.992 131.348 147.992C129.819 147.992 128.372 147.744 127.008 147.248C125.686 146.752 124.508 146.049 123.474 145.14C122.482 144.231 121.697 143.135 121.118 141.854C120.54 140.573 120.25 139.147 120.25 137.576C120.25 136.047 120.56 134.662 121.18 133.422C121.8 132.141 122.648 131.045 123.722 130.136C124.797 129.227 126.058 128.524 127.504 128.028C128.992 127.532 130.604 127.284 132.34 127.284C134.2 127.284 135.73 127.408 136.928 127.656C138.168 127.904 139.264 128.193 140.214 128.524V127.718C140.214 126.395 139.656 125.279 138.54 124.37C137.466 123.419 135.998 122.944 134.138 122.944C131.452 122.944 129.137 124.039 127.194 126.23L120.87 121.766C122.606 119.699 124.611 118.17 126.884 117.178C129.199 116.145 131.741 115.628 134.51 115.628C139.47 115.628 143.211 116.744 145.732 118.976C148.254 121.167 149.514 124.515 149.514 129.02V147H140.214V144.272ZM140.214 135.034C139.264 134.662 138.313 134.373 137.362 134.166C136.453 133.959 135.502 133.856 134.51 133.856C132.857 133.856 131.617 134.207 130.79 134.91C129.964 135.571 129.55 136.439 129.55 137.514C129.55 138.589 129.943 139.457 130.728 140.118C131.514 140.738 132.547 141.048 133.828 141.048C134.862 141.048 135.771 140.883 136.556 140.552C137.383 140.18 138.065 139.705 138.602 139.126C139.14 138.547 139.532 137.907 139.78 137.204C140.07 136.46 140.214 135.737 140.214 135.034ZM157.503 117.86L160.727 112.962C159.694 112.507 158.867 111.805 158.247 110.854C157.627 109.862 157.317 108.767 157.317 107.568C157.317 105.915 157.896 104.509 159.053 103.352C160.21 102.195 161.616 101.616 163.269 101.616C164.922 101.616 166.328 102.195 167.485 103.352C168.642 104.509 169.221 105.915 169.221 107.568C169.221 108.312 169.097 108.973 168.849 109.552C168.642 110.131 168.291 110.771 167.795 111.474L161.657 120.588L157.503 117.86ZM189.934 139.064H205.868V147H177.1V138.816C179.58 136.377 181.874 134.125 183.982 132.058C184.892 131.19 185.801 130.301 186.71 129.392C187.578 128.483 188.384 127.656 189.128 126.912C189.914 126.127 190.596 125.445 191.174 124.866C191.794 124.246 192.249 123.771 192.538 123.44C193.737 122.117 194.584 120.96 195.08 119.968C195.576 118.935 195.824 117.819 195.824 116.62C195.824 115.421 195.37 114.409 194.46 113.582C193.592 112.714 192.373 112.28 190.802 112.28C189.232 112.28 187.971 112.735 187.02 113.644C186.111 114.512 185.429 115.669 184.974 117.116L176.542 113.644C176.914 112.363 177.493 111.123 178.278 109.924C179.064 108.725 180.056 107.671 181.254 106.762C182.453 105.811 183.858 105.047 185.47 104.468C187.124 103.889 188.942 103.6 190.926 103.6C193.158 103.6 195.163 103.931 196.94 104.592C198.718 105.212 200.206 106.08 201.404 107.196C202.644 108.312 203.595 109.635 204.256 111.164C204.918 112.693 205.248 114.347 205.248 116.124C205.248 118.687 204.649 121.063 203.45 123.254C202.293 125.403 200.66 127.532 198.552 129.64L189.624 138.444L189.934 139.064ZM232.196 147V139.746H212.914V132.058L231.39 104.592H241.496V131.066H246.704V139.746H241.496V147H232.196ZM232.196 118.542H231.576L223.206 131.066H232.196V118.542Z" fill="#FDD663"/>
<path d="M5.464 102.608V100.608H3.464V102.608H5.464ZM15.136 102.608H17.136V100.608H15.136V102.608ZM15.136 147V149H17.136V147H15.136ZM5.464 147H3.464V149H5.464V147ZM5.464 104.608H15.136V100.608H5.464V104.608ZM13.136 102.608V147H17.136V102.608H13.136ZM15.136 145H5.464V149H15.136V145ZM7.464 147V102.608H3.464V147H7.464ZM33.5999 120.464H31.5999V122.464H33.5999V120.464ZM34.2199 120.464V122.464H35.3135L35.9037 121.543L34.2199 120.464ZM52.0139 119.286L53.6041 118.073L52.0139 119.286ZM54.8039 147V149H56.8039V147H54.8039ZM45.5039 147H43.5039V149H45.5039V147ZM44.3259 125.92L42.7111 127.1L42.7222 127.115L42.7336 127.13L44.3259 125.92ZM35.8319 126.726L34.1875 125.588L34.1775 125.602L34.1678 125.617L35.8319 126.726ZM34.2199 147V149H36.2199V147H34.2199ZM24.9199 147H22.9199V149H24.9199V147ZM24.9199 116.62V114.62H22.9199V116.62H24.9199ZM33.5999 116.62H35.5999V114.62H33.5999V116.62ZM33.5999 122.464H34.2199V118.464H33.5999V122.464ZM35.9037 121.543C37.569 118.945 40.0034 117.628 43.5199 117.628V113.628C38.7697 113.628 35.0041 115.535 32.5361 119.385L35.9037 121.543ZM43.5199 117.628C46.8646 117.628 49.0324 118.675 50.4236 120.499L53.6041 118.073C51.2754 115.02 47.7805 113.628 43.5199 113.628V117.628ZM50.4236 120.499C51.9488 122.499 52.8039 125.237 52.8039 128.896H56.8039C56.8039 124.619 55.799 120.951 53.6041 118.073L50.4236 120.499ZM52.8039 128.896V147H56.8039V128.896H52.8039ZM54.8039 145H45.5039V149H54.8039V145ZM47.5039 147V129.95H43.5039V147H47.5039ZM47.5039 129.95C47.5039 127.981 47.0329 126.177 45.9182 124.71L42.7336 127.13C43.1895 127.73 43.5039 128.613 43.5039 129.95H47.5039ZM45.9407 124.74C44.6873 123.025 42.7869 122.308 40.6679 122.308V126.308C41.8556 126.308 42.3938 126.666 42.7111 127.1L45.9407 124.74ZM40.6679 122.308C37.9618 122.308 35.709 123.39 34.1875 125.588L37.4763 127.864C38.1868 126.838 39.158 126.308 40.6679 126.308V122.308ZM34.1678 125.617C32.8105 127.653 32.2199 130.184 32.2199 133.05H36.2199C36.2199 130.708 36.7039 129.023 37.496 127.835L34.1678 125.617ZM32.2199 133.05V147H36.2199V133.05H32.2199ZM34.2199 145H24.9199V149H34.2199V145ZM26.9199 147V116.62H22.9199V147H26.9199ZM24.9199 118.62H33.5999V114.62H24.9199V118.62ZM31.5999 116.62V120.464H35.5999V116.62H31.5999ZM85.6702 143.652H87.6702V141.652H85.6702V143.652ZM85.0502 143.652V141.652H83.9043L83.3248 142.641L85.0502 143.652ZM81.7642 146.752L82.7565 148.488L82.7642 148.484L82.7719 148.48L81.7642 146.752ZM70.6662 146.814L69.8579 148.643L70.6662 146.814ZM65.9542 143.528L64.4781 144.878L64.4983 144.9L64.519 144.921L65.9542 143.528ZM62.7922 138.382L64.6518 137.646L62.7922 138.382ZM62.7922 125.238L64.6518 125.974L62.7922 125.238ZM65.9542 120.154L64.499 118.782L64.4978 118.783L65.9542 120.154ZM70.6662 116.806L71.4745 118.635L70.6662 116.806ZM81.7642 116.93L80.7352 118.645L80.7638 118.662L80.7929 118.678L81.7642 116.93ZM85.0502 119.968L83.3248 120.979L83.9043 121.968H85.0502V119.968ZM85.6702 119.968V121.968H87.9762L87.6501 119.685L85.6702 119.968ZM85.0502 115.628H83.0502V115.77L83.0703 115.911L85.0502 115.628ZM85.0502 102.608V100.608H83.0502V102.608H85.0502ZM94.3502 102.608H96.3502V100.608H94.3502V102.608ZM94.3502 147V149H96.3502V147H94.3502ZM85.6702 147H83.6702V149H85.6702V147ZM81.0822 138.816L81.7942 140.685L81.8169 140.676L81.8395 140.667L81.0822 138.816ZM83.4382 137.328L84.8061 138.787L84.8089 138.784L83.4382 137.328ZM85.0502 134.972L83.2161 134.175L83.2074 134.195L83.1991 134.215L85.0502 134.972ZM85.0502 128.71L83.1991 129.467L83.2136 129.503L83.2295 129.538L85.0502 128.71ZM83.4382 126.354L82.024 127.768L82.0454 127.79L82.0675 127.81L83.4382 126.354ZM81.0822 124.866L80.2944 126.704L80.346 126.726L80.3987 126.746L81.0822 124.866ZM75.4402 124.866L76.1522 126.735L76.1749 126.726L76.1975 126.717L75.4402 124.866ZM73.0842 126.354L71.7135 124.898L71.6914 124.918L71.67 124.94L73.0842 126.354ZM71.4722 128.71L69.6515 127.882L69.6356 127.917L69.6211 127.953L71.4722 128.71ZM71.4722 134.972L69.6097 135.701L69.6293 135.751L69.6515 135.8L71.4722 134.972ZM73.0842 137.328L71.67 138.742L71.7141 138.786L71.761 138.828L73.0842 137.328ZM75.4402 138.816L74.6524 140.654L74.704 140.676L74.7567 140.696L75.4402 138.816ZM85.6702 141.652H85.0502V145.652H85.6702V141.652ZM83.3248 142.641C82.8329 143.48 82.0181 144.289 80.7565 145.024L82.7719 148.48C84.4864 147.479 85.8622 146.222 86.7756 144.663L83.3248 142.641ZM80.7719 145.016C79.713 145.621 78.2441 145.992 76.2462 145.992V149.992C78.7123 149.992 80.922 149.537 82.7565 148.488L80.7719 145.016ZM76.2462 145.992C74.582 145.992 72.9973 145.657 71.4745 144.985L69.8579 148.643C71.8898 149.541 74.0251 149.992 76.2462 149.992V145.992ZM71.4745 144.985C69.9341 144.304 68.5758 143.357 67.3894 142.135L64.519 144.921C66.0606 146.509 67.8436 147.753 69.8579 148.643L71.4745 144.985ZM67.4303 142.178C66.2856 140.927 65.3556 139.424 64.6518 137.646L60.9326 139.118C61.7995 141.308 62.9774 143.236 64.4781 144.878L67.4303 142.178ZM64.6518 137.646C63.97 135.923 63.6142 133.986 63.6142 131.81H59.6142C59.6142 134.428 60.0437 136.873 60.9326 139.118L64.6518 137.646ZM63.6142 131.81C63.6142 129.634 63.97 127.697 64.6518 125.974L60.9326 124.502C60.0437 126.747 59.6142 129.192 59.6142 131.81H63.6142ZM64.6518 125.974C65.3539 124.2 66.2787 122.727 67.4106 121.525L64.4978 118.783C62.9844 120.391 61.8012 122.308 60.9326 124.502L64.6518 125.974ZM67.4094 121.526C68.5948 120.269 69.9469 119.31 71.4745 118.635L69.8579 114.977C67.8308 115.872 66.0416 117.146 64.499 118.782L67.4094 121.526ZM71.4745 118.635C72.9973 117.963 74.582 117.628 76.2462 117.628V113.628C74.0251 113.628 71.8898 114.079 69.8579 114.977L71.4745 118.635ZM76.2462 117.628C78.2296 117.628 79.6843 118.014 80.7352 118.645L82.7932 115.215C80.9507 114.11 78.7268 113.628 76.2462 113.628V117.628ZM80.7929 118.678C82.0383 119.37 82.8398 120.152 83.3248 120.979L86.7756 118.957C85.8553 117.387 84.4661 116.143 82.7355 115.182L80.7929 118.678ZM85.0502 121.968H85.6702V117.968H85.0502V121.968ZM87.6501 119.685L87.0301 115.345L83.0703 115.911L83.6903 120.251L87.6501 119.685ZM87.0502 115.628V102.608H83.0502V115.628H87.0502ZM85.0502 104.608H94.3502V100.608H85.0502V104.608ZM92.3502 102.608V147H96.3502V102.608H92.3502ZM94.3502 145H85.6702V149H94.3502V145ZM87.6702 147V143.652H83.6702V147H87.6702ZM78.2922 141.312C79.5109 141.312 80.6837 141.108 81.7942 140.685L80.3702 136.947C79.7447 137.185 79.0576 137.312 78.2922 137.312V141.312ZM81.8395 140.667C82.9556 140.211 83.9524 139.587 84.8061 138.787L82.0703 135.869C81.6013 136.309 81.0275 136.677 80.3249 136.965L81.8395 140.667ZM84.8089 138.784C85.7237 137.923 86.423 136.898 86.9013 135.729L83.1991 134.215C82.9334 134.864 82.558 135.41 82.0675 135.872L84.8089 138.784ZM86.8843 135.769C87.4192 134.539 87.6702 133.21 87.6702 131.81H83.6702C83.6702 132.725 83.5079 133.503 83.2161 134.175L86.8843 135.769ZM87.6702 131.81C87.6702 130.412 87.4197 129.09 86.8709 127.882L83.2295 129.538C83.5074 130.149 83.6702 130.893 83.6702 131.81H87.6702ZM86.9013 127.953C86.423 126.784 85.7237 125.759 84.8089 124.898L82.0675 127.81C82.558 128.272 82.9334 128.818 83.1991 129.467L86.9013 127.953ZM84.8524 124.94C83.9772 124.065 82.9399 123.413 81.7657 122.986L80.3987 126.746C81.0432 126.98 81.5765 127.321 82.024 127.768L84.8524 124.94ZM81.87 123.028C80.7406 122.544 79.5411 122.308 78.2922 122.308V126.308C79.0273 126.308 79.6878 126.444 80.2944 126.704L81.87 123.028ZM78.2922 122.308C77.0431 122.308 75.835 122.544 74.6829 123.015L76.1975 126.717C76.8641 126.444 77.5573 126.308 78.2922 126.308V122.308ZM74.7282 122.997C73.6063 123.424 72.5991 124.064 71.7135 124.898L74.4549 127.81C74.9747 127.321 75.5381 126.969 76.1522 126.735L74.7282 122.997ZM71.67 124.94C70.8278 125.782 70.1572 126.77 69.6515 127.882L73.2929 129.538C73.6138 128.832 74.0179 128.249 74.4984 127.768L71.67 124.94ZM69.6211 127.953C69.1349 129.141 68.9142 130.438 68.9142 131.81H72.9142C72.9142 130.867 73.0655 130.097 73.3233 129.467L69.6211 127.953ZM68.9142 131.81C68.9142 133.184 69.1355 134.489 69.6097 135.701L73.3347 134.243C73.0649 133.554 72.9142 132.751 72.9142 131.81H68.9142ZM69.6515 135.8C70.1572 136.912 70.8278 137.9 71.67 138.742L74.4984 135.914C74.0179 135.433 73.6138 134.85 73.2929 134.144L69.6515 135.8ZM71.761 138.828C72.6242 139.589 73.5906 140.199 74.6524 140.654L76.228 136.978C75.5538 136.689 74.9495 136.307 74.4074 135.828L71.761 138.828ZM74.7567 140.696C75.8907 141.108 77.0731 141.312 78.2922 141.312V137.312C77.5273 137.312 76.8084 137.185 76.1237 136.936L74.7567 140.696ZM106.025 112.838L105.174 114.648L105.218 114.669L105.264 114.687L106.025 112.838ZM104.165 111.598L102.695 112.955L102.75 113.013L102.809 113.068L104.165 111.598ZM102.925 109.738L101.076 110.499L101.094 110.545L101.115 110.59L102.925 109.738ZM102.925 105.212L101.097 104.4L101.086 104.425L101.076 104.451L102.925 105.212ZM104.165 103.352L102.751 101.938L102.751 101.938L104.165 103.352ZM106.025 102.112L106.787 103.961L106.832 103.943L106.877 103.922L106.025 102.112ZM110.551 102.112L109.7 103.922L109.762 103.951L109.826 103.976L110.551 102.112ZM112.411 103.352L110.941 104.709L110.996 104.767L111.055 104.822L112.411 103.352ZM113.651 105.212L111.787 105.937L111.812 106.001L111.841 106.064L113.651 105.212ZM113.651 109.738L111.841 108.886L111.82 108.931L111.802 108.976L113.651 109.738ZM112.411 111.598L110.997 110.184L112.411 111.598ZM110.551 112.838L111.313 114.687L111.338 114.677L111.363 114.666L110.551 112.838ZM103.669 147H101.669V149H103.669V147ZM103.669 116.62V114.62H101.669V116.62H103.669ZM112.969 116.62H114.969V114.62H112.969V116.62ZM112.969 147V149H114.969V147H112.969ZM108.319 111.272C107.731 111.272 107.227 111.17 106.787 110.989L105.264 114.687C106.228 115.085 107.254 115.272 108.319 115.272V111.272ZM106.877 111.028C106.347 110.779 105.9 110.478 105.522 110.128L102.809 113.068C103.505 113.71 104.298 114.235 105.174 114.648L106.877 111.028ZM105.635 110.241C105.285 109.863 104.984 109.416 104.735 108.886L101.115 110.59C101.528 111.465 102.053 112.258 102.695 112.955L105.635 110.241ZM104.774 108.977C104.593 108.536 104.491 108.033 104.491 107.444H100.491C100.491 108.509 100.679 109.535 101.076 110.499L104.774 108.977ZM104.491 107.444C104.491 106.911 104.588 106.426 104.774 105.973L101.076 104.451C100.684 105.403 100.491 106.406 100.491 107.444H104.491ZM104.753 106.024C104.999 105.469 105.282 105.063 105.579 104.766L102.751 101.938C102.056 102.633 101.512 103.467 101.097 104.4L104.753 106.024ZM105.579 104.766C105.93 104.416 106.328 104.15 106.787 103.961L105.264 100.263C104.317 100.653 103.475 101.214 102.751 101.938L105.579 104.766ZM106.877 103.922C107.296 103.724 107.767 103.616 108.319 103.616V99.616C107.217 99.616 106.16 99.8383 105.174 100.302L106.877 103.922ZM108.319 103.616C108.813 103.616 109.266 103.718 109.7 103.922L111.403 100.302C110.431 99.8449 109.395 99.616 108.319 99.616V103.616ZM109.826 103.976C110.313 104.165 110.67 104.415 110.941 104.709L113.881 101.995C113.16 101.215 112.277 100.637 111.276 100.248L109.826 103.976ZM111.055 104.822C111.348 105.093 111.598 105.45 111.787 105.937L115.515 104.487C115.126 103.486 114.549 102.603 113.768 101.882L111.055 104.822ZM111.841 106.064C112.045 106.497 112.147 106.95 112.147 107.444H116.147C116.147 106.368 115.918 105.333 115.461 104.36L111.841 106.064ZM112.147 107.444C112.147 107.996 112.039 108.467 111.841 108.886L115.461 110.59C115.925 109.604 116.147 108.546 116.147 107.444H112.147ZM111.802 108.976C111.613 109.435 111.348 109.833 110.997 110.184L113.825 113.012C114.549 112.288 115.111 111.446 115.5 110.5L111.802 108.976ZM110.997 110.184C110.7 110.481 110.294 110.764 109.739 111.01L111.363 114.666C112.296 114.251 113.13 113.707 113.825 113.012L110.997 110.184ZM109.79 110.989C109.337 111.175 108.852 111.272 108.319 111.272V115.272C109.357 115.272 110.36 115.079 111.313 114.687L109.79 110.989ZM105.669 147V116.62H101.669V147H105.669ZM103.669 118.62H112.969V114.62H103.669V118.62ZM110.969 116.62V147H114.969V116.62H110.969ZM112.969 145H103.669V149H112.969V145ZM140.214 144.272H142.214V142.272H140.214V144.272ZM139.594 144.272V142.272H138.719L138.125 142.915L139.594 144.272ZM136.184 146.938L135.223 145.184L135.21 145.191L135.198 145.198L136.184 146.938ZM127.008 147.248L126.306 149.121L126.315 149.124L126.325 149.128L127.008 147.248ZM123.474 145.14L122.123 146.614L122.138 146.628L122.153 146.641L123.474 145.14ZM121.118 141.854L122.941 141.031L121.118 141.854ZM121.18 133.422L122.969 134.316L122.975 134.305L122.981 134.293L121.18 133.422ZM123.722 130.136L122.43 128.609L123.722 130.136ZM127.504 128.028L126.872 126.131L126.864 126.133L126.856 126.136L127.504 128.028ZM136.928 127.656L136.523 129.615L136.536 129.617L136.928 127.656ZM140.214 128.524L139.557 130.413L142.214 131.337V128.524H140.214ZM138.54 124.37L137.215 125.868L137.245 125.895L137.277 125.92L138.54 124.37ZM127.194 126.23L126.041 127.864L127.503 128.896L128.691 127.557L127.194 126.23ZM120.87 121.766L119.339 120.48L117.94 122.145L119.717 123.4L120.87 121.766ZM126.884 117.178L127.684 119.011L127.692 119.008L127.7 119.004L126.884 117.178ZM145.732 118.976L144.407 120.474L144.413 120.48L144.42 120.486L145.732 118.976ZM149.514 147V149H151.514V147H149.514ZM140.214 147H138.214V149H140.214V147ZM140.214 135.034H142.214V133.669L140.943 133.172L140.214 135.034ZM137.362 134.166L136.919 136.116L136.928 136.118L136.937 136.12L137.362 134.166ZM130.79 134.91L132.04 136.472L132.063 136.453L132.086 136.434L130.79 134.91ZM130.728 140.118L129.44 141.648L129.464 141.668L129.489 141.688L130.728 140.118ZM136.556 140.552L137.332 142.395L137.355 142.386L137.377 142.376L136.556 140.552ZM138.602 139.126L137.137 137.765H137.137L138.602 139.126ZM139.78 137.204L137.916 136.479L137.905 136.509L137.894 136.538L139.78 137.204ZM140.214 142.272H139.594V146.272H140.214V142.272ZM138.125 142.915C137.279 143.831 136.314 144.586 135.223 145.184L137.146 148.692C138.617 147.885 139.925 146.862 141.064 145.629L138.125 142.915ZM135.198 145.198C134.354 145.676 133.115 145.992 131.348 145.992V149.992C133.549 149.992 135.534 149.605 137.17 148.678L135.198 145.198ZM131.348 145.992C130.039 145.992 128.825 145.781 127.692 145.368L126.325 149.128C127.919 149.707 129.598 149.992 131.348 149.992V145.992ZM127.71 145.375C126.609 144.962 125.642 144.383 124.795 143.639L122.153 146.641C123.373 147.715 124.762 148.542 126.306 149.121L127.71 145.375ZM124.826 143.666C124.042 142.947 123.413 142.077 122.941 141.031L119.295 142.677C119.98 144.194 120.922 145.514 122.123 146.614L124.826 143.666ZM122.941 141.031C122.492 140.037 122.25 138.896 122.25 137.576H118.25C118.25 139.397 118.587 141.108 119.295 142.677L122.941 141.031ZM122.25 137.576C122.25 136.325 122.502 135.251 122.969 134.316L119.391 132.528C118.619 134.073 118.25 135.769 118.25 137.576H122.25ZM122.981 134.293C123.48 133.261 124.155 132.389 125.014 131.663L122.43 128.609C121.14 129.701 120.12 131.021 119.38 132.551L122.981 134.293ZM125.014 131.663C125.883 130.927 126.921 130.342 128.153 129.92L126.856 126.136C125.194 126.706 123.711 127.526 122.43 128.609L125.014 131.663ZM128.137 129.925C129.4 129.504 130.796 129.284 132.34 129.284V125.284C130.412 125.284 128.584 125.56 126.872 126.131L128.137 129.925ZM132.34 129.284C134.126 129.284 135.507 129.404 136.523 129.615L137.333 125.697C135.952 125.412 134.274 125.284 132.34 125.284V129.284ZM136.536 129.617C137.708 129.852 138.712 130.119 139.557 130.413L140.871 126.635C139.815 126.268 138.629 125.956 137.32 125.695L136.536 129.617ZM142.214 128.524V127.718H138.214V128.524H142.214ZM142.214 127.718C142.214 125.736 141.339 124.07 139.804 122.82L137.277 125.92C137.974 126.488 138.214 127.055 138.214 127.718H142.214ZM139.865 122.872C138.327 121.512 136.338 120.944 134.138 120.944V124.944C135.658 124.944 136.604 125.327 137.215 125.868L139.865 122.872ZM134.138 120.944C130.824 120.944 127.982 122.328 125.698 124.903L128.691 127.557C130.292 125.751 132.079 124.944 134.138 124.944V120.944ZM128.348 124.596L122.024 120.132L119.717 123.4L126.041 127.864L128.348 124.596ZM122.402 123.052C123.957 121.201 125.718 119.869 127.684 119.011L126.084 115.345C123.504 116.471 121.255 118.198 119.339 120.48L122.402 123.052ZM127.7 119.004C129.735 118.096 131.996 117.628 134.51 117.628V113.628C131.486 113.628 128.663 114.194 126.069 115.352L127.7 119.004ZM134.51 117.628C139.208 117.628 142.391 118.689 144.407 120.474L147.058 117.478C144.031 114.799 139.733 113.628 134.51 113.628V117.628ZM144.42 120.486C146.366 122.176 147.514 124.881 147.514 129.02H151.514C151.514 124.148 150.141 120.157 147.044 117.466L144.42 120.486ZM147.514 129.02V147H151.514V129.02H147.514ZM149.514 145H140.214V149H149.514V145ZM142.214 147V144.272H138.214V147H142.214ZM140.943 133.172C139.898 132.763 138.846 132.442 137.787 132.212L136.937 136.12C137.779 136.303 138.629 136.561 139.485 136.896L140.943 133.172ZM137.805 132.216C136.742 131.974 135.642 131.856 134.51 131.856V135.856C135.363 135.856 136.164 135.945 136.919 136.116L137.805 132.216ZM134.51 131.856C132.621 131.856 130.831 132.251 129.495 133.386L132.086 136.434C132.403 136.164 133.093 135.856 134.51 135.856V131.856ZM129.541 133.348C128.231 134.396 127.55 135.842 127.55 137.514H131.55C131.55 137.036 131.696 136.747 132.04 136.472L129.541 133.348ZM127.55 137.514C127.55 139.147 128.18 140.587 129.44 141.648L132.016 138.588C131.706 138.327 131.55 138.03 131.55 137.514H127.55ZM129.489 141.688C130.716 142.656 132.225 143.048 133.828 143.048V139.048C132.869 139.048 132.311 138.82 131.968 138.548L129.489 141.688ZM133.828 143.048C135.073 143.048 136.255 142.849 137.332 142.395L135.78 138.709C135.287 138.916 134.65 139.048 133.828 139.048V143.048ZM137.377 142.376C138.412 141.91 139.324 141.288 140.068 140.487L137.137 137.765C136.806 138.121 136.354 138.45 135.735 138.728L137.377 142.376ZM140.068 140.487C140.78 139.72 141.322 138.846 141.666 137.87L137.894 136.538C137.743 136.968 137.499 137.375 137.137 137.765L140.068 140.487ZM141.644 137.929C142.011 136.985 142.214 136.016 142.214 135.034H138.214C138.214 135.457 138.128 135.935 137.916 136.479L141.644 137.929ZM157.503 117.86L155.832 116.76L154.732 118.433L156.405 119.532L157.503 117.86ZM160.727 112.962L162.398 114.062L163.699 112.085L161.533 111.131L160.727 112.962ZM158.247 110.854L156.551 111.914L156.561 111.93L156.572 111.947L158.247 110.854ZM159.053 103.352L160.467 104.766L159.053 103.352ZM168.849 109.552L167.011 108.764L166.986 108.821L166.966 108.879L168.849 109.552ZM167.795 111.474L166.161 110.321L166.148 110.339L166.136 110.357L167.795 111.474ZM161.657 120.588L160.559 122.26L162.212 123.345L163.316 121.705L161.657 120.588ZM159.174 118.96L162.398 114.062L159.056 111.862L155.832 116.76L159.174 118.96ZM161.533 111.131C160.857 110.834 160.331 110.389 159.922 109.761L156.572 111.947C157.403 113.221 158.531 114.181 159.922 114.793L161.533 111.131ZM159.943 109.794C159.527 109.128 159.317 108.402 159.317 107.568H155.317C155.317 109.132 155.727 110.596 156.551 111.914L159.943 109.794ZM159.317 107.568C159.317 106.439 159.689 105.544 160.467 104.766L157.639 101.938C156.102 103.474 155.317 105.39 155.317 107.568H159.317ZM160.467 104.766C161.245 103.988 162.14 103.616 163.269 103.616V99.616C161.091 99.616 159.175 100.401 157.639 101.938L160.467 104.766ZM163.269 103.616C164.398 103.616 165.293 103.988 166.071 104.766L168.899 101.938C167.363 100.401 165.447 99.616 163.269 99.616V103.616ZM166.071 104.766C166.849 105.544 167.221 106.439 167.221 107.568H171.221C171.221 105.39 170.436 103.474 168.899 101.938L166.071 104.766ZM167.221 107.568C167.221 108.09 167.134 108.475 167.011 108.764L170.687 110.34C171.06 109.471 171.221 108.534 171.221 107.568H167.221ZM166.966 108.879C166.839 109.234 166.591 109.712 166.161 110.321L169.429 112.627C169.991 111.831 170.446 111.027 170.732 110.225L166.966 108.879ZM166.136 110.357L159.998 119.471L163.316 121.705L169.454 112.591L166.136 110.357ZM162.755 118.916L158.601 116.188L156.405 119.532L160.559 122.26L162.755 118.916ZM189.934 139.064L188.145 139.958L188.698 141.064H189.934V139.064ZM205.868 139.064H207.868V137.064H205.868V139.064ZM205.868 147V149H207.868V147H205.868ZM177.1 147H175.1V149H177.1V147ZM177.1 138.816L175.698 137.39L175.1 137.978V138.816H177.1ZM183.982 132.058L182.601 130.611L182.592 130.621L182.582 130.63L183.982 132.058ZM186.71 129.392L188.125 130.806L188.141 130.79L188.157 130.773L186.71 129.392ZM189.128 126.912L190.543 128.326L189.128 126.912ZM192.538 123.44L191.056 122.097L191.045 122.11L191.033 122.123L192.538 123.44ZM195.08 119.968L196.869 120.862L196.876 120.848L196.883 120.833L195.08 119.968ZM194.46 113.582L193.046 114.996L193.08 115.03L193.115 115.062L194.46 113.582ZM187.02 113.644L188.401 115.091L188.403 115.089L187.02 113.644ZM184.974 117.116L184.213 118.965L186.229 119.795L186.882 117.716L184.974 117.116ZM176.542 113.644L174.622 113.086L174.121 114.81L175.781 115.493L176.542 113.644ZM178.278 109.924L176.605 108.828V108.828L178.278 109.924ZM181.254 106.762L182.463 108.355L182.48 108.342L182.497 108.329L181.254 106.762ZM185.47 104.468L184.81 102.58L184.802 102.583L184.795 102.586L185.47 104.468ZM196.94 104.592L196.243 106.466L196.262 106.474L196.282 106.48L196.94 104.592ZM201.404 107.196L200.042 108.66L200.054 108.671L200.066 108.683L201.404 107.196ZM203.45 123.254L201.696 122.294L201.689 122.306L203.45 123.254ZM198.552 129.64L199.957 131.064L199.967 131.054L198.552 129.64ZM189.624 138.444L188.22 137.02L187.186 138.04L187.835 139.338L189.624 138.444ZM189.934 141.064H205.868V137.064H189.934V141.064ZM203.868 139.064V147H207.868V139.064H203.868ZM205.868 145H177.1V149H205.868V145ZM179.1 147V138.816H175.1V147H179.1ZM178.503 140.242C180.982 137.804 183.275 135.552 185.382 133.486L182.582 130.63C180.473 132.697 178.179 134.951 175.698 137.39L178.503 140.242ZM185.363 133.505C186.284 132.626 187.205 131.726 188.125 130.806L185.296 127.978C184.398 128.876 183.499 129.754 182.601 130.611L185.363 133.505ZM188.157 130.773C189.016 129.873 189.811 129.057 190.543 128.326L187.714 125.498C186.957 126.255 186.14 127.093 185.264 128.011L188.157 130.773ZM190.543 128.326C191.328 127.541 192.01 126.859 192.589 126.28L189.76 123.452C189.181 124.03 188.499 124.712 187.714 125.498L190.543 128.326ZM192.589 126.28C193.216 125.653 193.709 125.14 194.044 124.757L191.033 122.123C190.789 122.402 190.373 122.839 189.76 123.452L192.589 126.28ZM194.02 124.783C195.277 123.397 196.258 122.085 196.869 120.862L193.291 119.074C192.911 119.835 192.197 120.838 191.056 122.097L194.02 124.783ZM196.883 120.833C197.515 119.518 197.824 118.104 197.824 116.62H193.824C193.824 117.533 193.638 118.352 193.277 119.103L196.883 120.833ZM197.824 116.62C197.824 114.842 197.12 113.297 195.806 112.102L193.115 115.062C193.619 115.52 193.824 116.001 193.824 116.62H197.824ZM195.875 112.168C194.534 110.828 192.748 110.28 190.802 110.28V114.28C191.998 114.28 192.65 114.6 193.046 114.996L195.875 112.168ZM190.802 110.28C188.823 110.28 187.031 110.866 185.638 112.199L188.403 115.089C188.911 114.603 189.64 114.28 190.802 114.28V110.28ZM185.639 112.197C184.44 113.342 183.602 114.814 183.066 116.516L186.882 117.716C187.257 116.525 187.782 115.682 188.401 115.091L185.639 112.197ZM185.736 115.267L177.304 111.795L175.781 115.493L184.213 118.965L185.736 115.267ZM178.463 114.202C178.776 113.125 179.267 112.065 179.951 111.02L176.605 108.828C175.719 110.181 175.053 111.601 174.622 113.086L178.463 114.202ZM179.951 111.02C180.605 110.022 181.437 109.134 182.463 108.355L180.046 105.169C178.674 106.209 177.522 107.429 176.605 108.828L179.951 111.02ZM182.497 108.329C183.506 107.529 184.715 106.864 186.146 106.35L184.795 102.586C183.002 103.229 181.4 104.094 180.012 105.195L182.497 108.329ZM186.131 106.356C187.546 105.861 189.138 105.6 190.926 105.6V101.6C188.747 101.6 186.701 101.918 184.81 102.58L186.131 106.356ZM190.926 105.6C192.962 105.6 194.724 105.901 196.243 106.466L197.638 102.718C195.602 101.96 193.355 101.6 190.926 101.6V105.6ZM196.282 106.48C197.836 107.023 199.074 107.759 200.042 108.66L202.767 105.732C201.338 104.401 199.599 103.401 197.599 102.704L196.282 106.48ZM200.066 108.683C201.093 109.606 201.874 110.693 202.421 111.958L206.092 110.37C205.316 108.576 204.196 107.018 202.742 105.709L200.066 108.683ZM202.421 111.958C202.966 113.22 203.248 114.601 203.248 116.124H207.248C207.248 114.092 206.869 112.167 206.092 110.37L202.421 111.958ZM203.248 116.124C203.248 118.36 202.729 120.406 201.696 122.294L205.205 124.214C206.569 121.721 207.248 119.013 207.248 116.124H203.248ZM201.689 122.306C200.642 124.251 199.138 126.226 197.138 128.226L199.967 131.054C202.183 128.838 203.944 126.556 205.211 124.202L201.689 122.306ZM197.148 128.216L188.22 137.02L191.029 139.868L199.957 131.064L197.148 128.216ZM187.835 139.338L188.145 139.958L191.723 138.17L191.413 137.55L187.835 139.338ZM232.196 147H230.196V149H232.196V147ZM232.196 139.746H234.196V137.746H232.196V139.746ZM212.914 139.746H210.914V141.746H212.914V139.746ZM212.914 132.058L211.255 130.942L210.914 131.448V132.058H212.914ZM231.39 104.592V102.592H230.325L229.731 103.476L231.39 104.592ZM241.496 104.592H243.496V102.592H241.496V104.592ZM241.496 131.066H239.496V133.066H241.496V131.066ZM246.704 131.066H248.704V129.066H246.704V131.066ZM246.704 139.746V141.746H248.704V139.746H246.704ZM241.496 139.746V137.746H239.496V139.746H241.496ZM241.496 147V149H243.496V147H241.496ZM232.196 118.542H234.196V116.542H232.196V118.542ZM231.576 118.542V116.542H230.507L229.913 117.431L231.576 118.542ZM223.206 131.066L221.543 129.955L219.464 133.066H223.206V131.066ZM232.196 131.066V133.066H234.196V131.066H232.196ZM234.196 147V139.746H230.196V147H234.196ZM232.196 137.746H212.914V141.746H232.196V137.746ZM214.914 139.746V132.058H210.914V139.746H214.914ZM214.574 133.174L233.05 105.708L229.731 103.476L211.255 130.942L214.574 133.174ZM231.39 106.592H241.496V102.592H231.39V106.592ZM239.496 104.592V131.066H243.496V104.592H239.496ZM241.496 133.066H246.704V129.066H241.496V133.066ZM244.704 131.066V139.746H248.704V131.066H244.704ZM246.704 137.746H241.496V141.746H246.704V137.746ZM239.496 139.746V147H243.496V139.746H239.496ZM241.496 145H232.196V149H241.496V145ZM232.196 116.542H231.576V120.542H232.196V116.542ZM229.913 117.431L221.543 129.955L224.869 132.177L233.239 119.653L229.913 117.431ZM223.206 133.066H232.196V129.066H223.206V133.066ZM234.196 131.066V118.542H230.196V131.066H234.196Z" fill="#19154A" mask="url(#path-2-outside-1_555_886)"/>
</g>
<defs>
<filter id="filter0_d_555_886" x="-4" y="0.0644531" width="258" height="169.936" filterUnits="userSpaceOnUse" color-interpolation-filters="sRGB">
<feFlood flood-opacity="0" result="BackgroundImageFix"/>
<feColorMatrix in="SourceAlpha" type="matrix" values="0 0 0 0 0 0 0 0 0 0 0 0 0 0 0 0 0 0 127 0" result="hardAlpha"/>
<feOffset dy="4"/>
<feGaussianBlur stdDeviation="2"/>
<feComposite in2="hardAlpha" operator="out"/>
<feColorMatrix type="matrix" values="0 0 0 0 0 0 0 0 0 0 0 0 0 0 0 0 0 0 0.25 0"/>
<feBlend mode="normal" in2="BackgroundImageFix" result="effect1_dropShadow_555_886"/>
<feBlend mode="normal" in="SourceGraphic" in2="effect1_dropShadow_555_886" result="shape"/>
</filter>
</defs>
</svg>
