<svg width="360" height="255" viewBox="0 0 360 255" fill="none" xmlns="http://www.w3.org/2000/svg">
<rect x="1.02452" y="45.6075" width="88.5" height="30" rx="15" transform="rotate(-30 1.02452 45.6075)" fill="#EA4335" stroke="black" stroke-width="1.5"/>
<rect x="1.02452" y="-0.274519" width="88.5" height="30" rx="15" transform="matrix(0.866025 0.5 0.5 -0.866025 0.274519 56.4052)" fill="#4285F4" stroke="black" stroke-width="1.5"/>
<rect x="186.36" y="57.1552" width="88.5" height="30" rx="15" transform="rotate(150 186.36 57.1552)" fill="#FBBC04" stroke="black" stroke-width="1.5"/>
<rect x="-1.02452" y="0.274519" width="88.5" height="30" rx="15" transform="matrix(-0.866025 -0.5 -0.5 0.866025 186.064 44.8575)" fill="#0F9D58" stroke="black" stroke-width="1.5"/>
<path d="M32.4703 141.914C32.4721 141.914 32.4738 141.914 32.4756 141.914V126.93H19.1258C15.7038 126.93 12.396 128.809 10.1634 132.775C7.92402 136.753 6.76971 142.835 7.75084 151.169C8.1905 154.635 8.63294 157.22 9.02665 159.52C9.80477 164.065 10.3926 167.499 10.3926 174.43C10.3926 176.159 9.72511 177.804 8.76591 179.277C7.80583 180.753 6.53463 182.086 5.27855 183.203C4.02064 184.322 2.76503 185.236 1.82504 185.869C1.35456 186.186 0.961937 186.434 0.686043 186.603C0.616352 186.646 0.554089 186.683 0.499878 186.716V194.144C0.554089 194.176 0.616352 194.214 0.686043 194.256C0.961937 194.425 1.35456 194.673 1.82504 194.99C2.76503 195.624 4.02064 196.537 5.27855 197.656C6.53463 198.773 7.80583 200.107 8.76591 201.582C9.72511 203.056 10.3926 204.7 10.3926 206.43C10.3926 213.36 9.80477 216.794 9.02665 221.34C8.63294 223.64 8.1905 226.224 7.75083 229.69C6.77085 238.015 8.08577 244.097 10.407 248.078C12.7281 252.058 16.0424 253.93 19.1258 253.93H32.4756V238.98C32.142 239.005 31.676 239.03 31.1207 239.03C29.9816 239.03 28.4505 238.928 26.9098 238.512C25.3706 238.098 23.7904 237.361 22.5926 236.07C21.3851 234.768 20.6043 232.942 20.6043 230.43C20.6043 226.913 20.9172 225.081 21.3844 222.347C21.4014 222.248 21.4185 222.147 21.4358 222.046C21.9286 219.157 22.586 215.171 23.2441 207.189L23.2445 207.184C23.8835 200.207 20.0553 194.747 16.1323 190.781L15.7844 190.43L16.1323 190.078C20.0754 186.092 23.8821 181.437 23.2445 174.475L23.2441 174.471C22.586 166.488 21.9286 162.503 21.4358 159.614C21.4185 159.512 21.4014 159.412 21.3844 159.313C20.9172 156.578 20.6043 154.747 20.6043 151.23C20.6043 148.717 21.3848 146.848 22.5825 145.476C23.772 144.113 25.3435 143.274 26.8803 142.756C28.4182 142.238 29.9478 142.033 31.0871 141.956C31.6582 141.917 32.1349 141.911 32.4703 141.914Z" fill="#FFE7A5" stroke="#19154A"/>
<path d="M46.0156 136.31H63.7256C67.7389 136.31 71.3556 136.916 74.5756 138.13C77.7956 139.343 80.5256 141.046 82.7656 143.24C85.0056 145.433 86.7089 148.07 87.8756 151.15C89.0889 154.23 89.6956 157.636 89.6956 161.37C89.6956 165.103 89.0889 168.51 87.8756 171.59C86.7089 174.67 85.0056 177.306 82.7656 179.5C80.5256 181.693 77.7956 183.396 74.5756 184.61C71.3556 185.823 67.7389 186.43 63.7256 186.43H46.0156V136.31ZM63.1656 176.07C65.8723 176.07 68.2056 175.72 70.1656 175.02C72.1256 174.273 73.7356 173.246 74.9956 171.94C76.3023 170.633 77.2589 169.093 77.8656 167.32C78.4723 165.5 78.7756 163.516 78.7756 161.37C78.7756 159.223 78.4723 157.263 77.8656 155.49C77.2589 153.67 76.3023 152.106 74.9956 150.8C73.7356 149.493 72.1256 148.49 70.1656 147.79C68.2056 147.043 65.8723 146.67 63.1656 146.67H56.9356V176.07H63.1656ZM128.388 178.1C126.708 181.04 124.491 183.35 121.738 185.03C119.031 186.71 115.741 187.55 111.868 187.55C109.208 187.55 106.735 187.106 104.448 186.22C102.208 185.286 100.248 184.003 98.5681 182.37C96.8881 180.736 95.5814 178.823 94.6481 176.63C93.7148 174.39 93.2481 171.94 93.2481 169.28C93.2481 166.806 93.7148 164.473 94.6481 162.28C95.5814 160.04 96.8648 158.103 98.4981 156.47C100.178 154.79 102.115 153.46 104.308 152.48C106.548 151.5 108.975 151.01 111.588 151.01C114.435 151.01 116.931 151.476 119.078 152.41C121.271 153.343 123.091 154.626 124.538 156.26C125.985 157.846 127.081 159.736 127.828 161.93C128.575 164.076 128.948 166.386 128.948 168.86C128.948 169.233 128.925 169.606 128.878 169.98C128.878 170.353 128.855 170.68 128.808 170.96C128.761 171.286 128.738 171.59 128.738 171.87H103.468C103.981 174.11 105.031 175.743 106.618 176.77C108.205 177.796 109.978 178.31 111.938 178.31C113.898 178.31 115.508 177.89 116.768 177.05C118.075 176.21 119.101 175.136 119.848 173.83L128.388 178.1ZM119.078 164.73C118.985 164.17 118.751 163.563 118.378 162.91C118.051 162.256 117.561 161.673 116.908 161.16C116.301 160.6 115.531 160.156 114.598 159.83C113.711 159.456 112.708 159.27 111.588 159.27C109.955 159.27 108.438 159.736 107.038 160.67C105.638 161.603 104.611 162.956 103.958 164.73H119.078ZM130.533 152.13H142.713L150.413 171.59H151.113L158.953 152.13H170.993L155.873 186.43H145.513L130.533 152.13ZM176.309 136.31H209.349V146.67H187.229V156.75H207.109V167.11H187.229V186.43H176.309V136.31ZM246.581 178.1C244.901 181.04 242.685 183.35 239.931 185.03C237.225 186.71 233.935 187.55 230.061 187.55C227.401 187.55 224.928 187.106 222.641 186.22C220.401 185.286 218.441 184.003 216.761 182.37C215.081 180.736 213.775 178.823 212.841 176.63C211.908 174.39 211.441 171.94 211.441 169.28C211.441 166.806 211.908 164.473 212.841 162.28C213.775 160.04 215.058 158.103 216.691 156.47C218.371 154.79 220.308 153.46 222.501 152.48C224.741 151.5 227.168 151.01 229.781 151.01C232.628 151.01 235.125 151.476 237.271 152.41C239.465 153.343 241.285 154.626 242.731 156.26C244.178 157.846 245.275 159.736 246.021 161.93C246.768 164.076 247.141 166.386 247.141 168.86C247.141 169.233 247.118 169.606 247.071 169.98C247.071 170.353 247.048 170.68 247.001 170.96C246.955 171.286 246.931 171.59 246.931 171.87H221.661C222.175 174.11 223.225 175.743 224.811 176.77C226.398 177.796 228.171 178.31 230.131 178.31C232.091 178.31 233.701 177.89 234.961 177.05C236.268 176.21 237.295 175.136 238.041 173.83L246.581 178.1ZM237.271 164.73C237.178 164.17 236.945 163.563 236.571 162.91C236.245 162.256 235.755 161.673 235.101 161.16C234.495 160.6 233.725 160.156 232.791 159.83C231.905 159.456 230.901 159.27 229.781 159.27C228.148 159.27 226.631 159.736 225.231 160.67C223.831 161.603 222.805 162.956 222.151 164.73H237.271ZM267.532 187.55C265.152 187.55 263.052 187.27 261.232 186.71C259.412 186.15 257.825 185.426 256.472 184.54C255.165 183.606 254.068 182.556 253.182 181.39C252.295 180.176 251.618 178.963 251.152 177.75L260.602 173.76C261.255 175.346 262.165 176.513 263.332 177.26C264.498 177.96 265.898 178.31 267.532 178.31C268.932 178.31 270.005 178.1 270.752 177.68C271.545 177.213 271.942 176.63 271.942 175.93C271.942 175.136 271.568 174.53 270.822 174.11C270.075 173.643 268.885 173.223 267.252 172.85L262.562 171.87C261.442 171.636 260.298 171.263 259.132 170.75C257.965 170.236 256.892 169.56 255.912 168.72C254.932 167.88 254.138 166.9 253.532 165.78C252.925 164.613 252.622 163.283 252.622 161.79C252.622 160.156 252.972 158.686 253.672 157.38C254.418 156.026 255.422 154.883 256.682 153.95C257.942 153.016 259.435 152.293 261.162 151.78C262.888 151.266 264.778 151.01 266.832 151.01C270.378 151.01 273.435 151.64 276.002 152.9C278.568 154.113 280.505 156.166 281.812 159.06L272.782 162.77C272.175 161.556 271.312 160.67 270.192 160.11C269.118 159.55 268.022 159.27 266.902 159.27C265.688 159.27 264.708 159.48 263.962 159.9C263.215 160.32 262.842 160.833 262.842 161.44C262.842 162.093 263.215 162.63 263.962 163.05C264.755 163.423 265.712 163.75 266.832 164.03L272.152 165.29C275.652 166.13 278.265 167.483 279.992 169.35C281.718 171.216 282.582 173.41 282.582 175.93C282.582 177.47 282.208 178.94 281.462 180.34C280.762 181.74 279.735 182.976 278.382 184.05C277.075 185.123 275.488 185.963 273.622 186.57C271.802 187.223 269.772 187.55 267.532 187.55ZM291.625 160.95H285.605V152.13H291.625V141.63H302.125V152.13H310.595V160.95H302.125V172.5C302.125 173.246 302.218 173.946 302.405 174.6C302.591 175.206 302.918 175.72 303.385 176.14C304.085 176.746 304.995 177.05 306.115 177.05C306.861 177.05 307.491 176.956 308.005 176.77C308.518 176.583 308.961 176.35 309.335 176.07L312.275 185.17C311.061 185.73 309.755 186.173 308.355 186.5C306.955 186.826 305.461 186.99 303.875 186.99C300.188 186.99 297.271 185.916 295.125 183.77C294.005 182.65 293.141 181.273 292.535 179.64C291.928 177.96 291.625 176.116 291.625 174.11V160.95Z" fill="#19154A"/>
<path d="M48.8476 242.43H44.4316V208.062H48.8476V242.43ZM55.0073 218.91H59.2313V222.174H59.4233C60.0953 221.022 61.1193 220.062 62.4953 219.294C63.9033 218.526 65.3593 218.142 66.8633 218.142C69.7433 218.142 71.9513 218.974 73.4873 220.638C75.0553 222.27 75.8393 224.606 75.8393 227.646V242.43H71.4233V227.934C71.3273 224.094 69.3913 222.174 65.6153 222.174C63.8553 222.174 62.3833 222.894 61.1993 224.334C60.0153 225.742 59.4233 227.438 59.4233 229.422V242.43H55.0073V218.91ZM91.583 239.166C93.759 239.166 95.535 238.382 96.911 236.814C98.351 235.246 99.071 233.198 99.071 230.67C99.071 228.206 98.351 226.174 96.911 224.574C95.503 222.974 93.727 222.174 91.583 222.174C89.471 222.174 87.695 222.974 86.255 224.574C84.815 226.174 84.095 228.206 84.095 230.67C84.095 233.166 84.815 235.198 86.255 236.766C87.695 238.366 89.471 239.166 91.583 239.166ZM90.863 243.198C87.791 243.198 85.151 241.982 82.943 239.55C80.767 237.086 79.679 234.126 79.679 230.67C79.679 227.214 80.767 224.254 82.943 221.79C85.151 219.358 87.791 218.142 90.863 218.142C92.591 218.142 94.159 218.51 95.567 219.246C97.007 219.982 98.111 220.958 98.879 222.174H99.071L98.879 218.91V208.062H103.295V242.43H99.071V239.166H98.879C98.111 240.382 97.007 241.358 95.567 242.094C94.159 242.83 92.591 243.198 90.863 243.198ZM114.391 210.798C114.391 211.662 114.087 212.398 113.479 213.006C112.871 213.614 112.135 213.918 111.271 213.918C110.407 213.918 109.671 213.614 109.063 213.006C108.455 212.398 108.151 211.662 108.151 210.798C108.151 209.934 108.455 209.198 109.063 208.59C109.671 207.982 110.407 207.678 111.271 207.678C112.135 207.678 112.871 207.982 113.479 208.59C114.087 209.198 114.391 209.934 114.391 210.798ZM113.479 218.91V242.43H109.063V218.91H113.479ZM122.208 235.23C122.208 236.382 122.688 237.342 123.648 238.11C124.64 238.878 125.792 239.262 127.104 239.262C128.96 239.262 130.608 238.574 132.048 237.198C133.52 235.822 134.256 234.206 134.256 232.35C132.88 231.262 130.96 230.718 128.496 230.718C126.704 230.718 125.2 231.15 123.984 232.014C122.8 232.878 122.208 233.95 122.208 235.23ZM127.92 218.142C131.184 218.142 133.76 219.022 135.648 220.782C137.536 222.51 138.48 224.894 138.48 227.934V242.43H134.256V239.166H134.064C132.24 241.854 129.808 243.198 126.768 243.198C124.176 243.198 122 242.43 120.24 240.894C118.512 239.358 117.648 237.438 117.648 235.134C117.648 232.702 118.56 230.766 120.384 229.326C122.24 227.886 124.704 227.166 127.776 227.166C130.4 227.166 132.56 227.646 134.256 228.606V227.598C134.256 226.062 133.648 224.766 132.432 223.71C131.216 222.622 129.792 222.078 128.16 222.078C125.696 222.078 123.744 223.118 122.304 225.198L118.416 222.75C120.56 219.678 123.728 218.142 127.92 218.142ZM174.167 238.206V242.43H153.239V238.014L161.735 229.422C164.583 226.51 166.551 224.334 167.639 222.894C168.727 221.422 169.271 219.886 169.271 218.286C169.271 216.846 168.711 215.614 167.591 214.59C166.471 213.566 165.031 213.054 163.271 213.054C161.767 213.054 160.471 213.502 159.383 214.398C158.295 215.294 157.591 216.382 157.271 217.662L153.239 216.03C153.879 214.014 155.111 212.318 156.935 210.942C158.759 209.534 160.903 208.83 163.367 208.83C166.343 208.83 168.823 209.742 170.807 211.566C172.791 213.39 173.783 215.63 173.783 218.286C173.783 221.454 172.039 224.878 168.551 228.558L158.951 238.206H174.167ZM178.369 226.014C178.369 221.022 179.601 216.91 182.065 213.678C184.529 210.446 187.697 208.83 191.569 208.83C195.441 208.83 198.609 210.462 201.073 213.726C203.537 216.958 204.769 221.054 204.769 226.014C204.769 230.942 203.537 235.054 201.073 238.35C198.609 241.582 195.441 243.198 191.569 243.198C187.697 243.198 184.529 241.582 182.065 238.35C179.601 235.054 178.369 230.942 178.369 226.014ZM200.257 226.014C200.257 222.238 199.457 219.134 197.857 216.702C196.289 214.27 194.193 213.054 191.569 213.054C188.945 213.054 186.849 214.27 185.281 216.702C183.681 219.134 182.881 222.238 182.881 226.014C182.881 229.79 183.681 232.91 185.281 235.374C186.849 237.774 188.945 238.974 191.569 238.974C194.193 238.974 196.289 237.758 197.857 235.326C199.457 232.862 200.257 229.758 200.257 226.014ZM229.245 238.206V242.43H208.317V238.014L216.813 229.422C219.661 226.51 221.629 224.334 222.717 222.894C223.805 221.422 224.349 219.886 224.349 218.286C224.349 216.846 223.789 215.614 222.669 214.59C221.549 213.566 220.109 213.054 218.349 213.054C216.845 213.054 215.549 213.502 214.461 214.398C213.373 215.294 212.669 216.382 212.349 217.662L208.317 216.03C208.957 214.014 210.189 212.318 212.013 210.942C213.837 209.534 215.981 208.83 218.445 208.83C221.421 208.83 223.901 209.742 225.885 211.566C227.869 213.39 228.861 215.63 228.861 218.286C228.861 221.454 227.117 224.878 223.629 228.558L214.029 238.206H229.245ZM253.271 235.518V242.43H248.855V235.518H233.255V232.158L248.471 209.598H253.271V231.39H257.495V235.518H253.271ZM238.247 231.39H248.855V216.078H248.663L238.247 231.39Z" fill="#19154A"/>
<path d="M327.53 141.914C327.528 141.914 327.526 141.914 327.524 141.914V126.93H340.874C344.296 126.93 347.604 128.809 349.837 132.775C352.076 136.753 353.23 142.835 352.249 151.169C351.809 154.635 351.367 157.22 350.973 159.52C350.195 164.065 349.607 167.499 349.607 174.43C349.607 176.159 350.275 177.804 351.234 179.277C352.194 180.753 353.465 182.086 354.721 183.203C355.979 184.322 357.235 185.236 358.175 185.869C358.645 186.186 359.038 186.434 359.314 186.603C359.384 186.646 359.446 186.683 359.5 186.716V194.144C359.446 194.176 359.384 194.214 359.314 194.256C359.038 194.425 358.645 194.673 358.175 194.99C357.235 195.624 355.979 196.537 354.721 197.656C353.465 198.773 352.194 200.107 351.234 201.582C350.275 203.056 349.607 204.7 349.607 206.43C349.607 213.36 350.195 216.794 350.973 221.34C351.367 223.64 351.81 226.224 352.249 229.69C353.229 238.015 351.914 244.097 349.593 248.078C347.272 252.058 343.958 253.93 340.874 253.93H327.524V238.98C327.858 239.005 328.324 239.03 328.879 239.03C330.018 239.03 331.55 238.928 333.09 238.512C334.629 238.098 336.21 237.361 337.407 236.07C338.615 234.768 339.396 232.942 339.396 230.43C339.396 226.913 339.083 225.081 338.616 222.347C338.599 222.248 338.581 222.147 338.564 222.046C338.071 219.157 337.414 215.171 336.756 207.189L336.756 207.184C336.116 200.207 339.945 194.747 343.868 190.781L344.216 190.43L343.868 190.078C339.925 186.092 336.118 181.437 336.756 174.475L336.756 174.471C337.414 166.488 338.071 162.503 338.564 159.614C338.581 159.512 338.599 159.412 338.616 159.313C339.083 156.578 339.396 154.747 339.396 151.23C339.396 148.717 338.615 146.848 337.417 145.476C336.228 144.113 334.656 143.274 333.12 142.756C331.582 142.238 330.052 142.033 328.913 141.956C328.342 141.917 327.865 141.911 327.53 141.914Z" fill="#FFE7A5" stroke="#19154A"/>
</svg>
