<svg width="374" height="329" viewBox="0 0 374 329" fill="none" xmlns="http://www.w3.org/2000/svg">
<g filter="url(#filter0_d_555_932)">
<path d="M312.802 306.145C308.371 311.59 301.724 314.75 294.704 314.75H65.0111C57.9911 314.75 51.3441 311.59 46.9127 306.145L5.23678 254.939C1.84944 250.777 0 245.575 0 240.209V74.6151C0 69.2489 1.84944 64.0468 5.23678 59.8849L46.3627 9.35502C50.7941 3.91038 57.4411 0.75 64.4612 0.75H305.975C306.211 0.75 306.435 0.856366 306.584 1.03961L354.763 60.2354C358.151 64.3973 360 69.5995 360 74.9657V247.775C360 248.02 359.915 248.259 359.76 248.449L312.802 306.145Z" fill="#FAF9F9"/>
<path d="M305.809 1.67085L305.975 1.53536L306.584 1.03961L305.975 1.53539L305.809 1.67085L305.81 1.67305C305.81 1.67232 305.809 1.67159 305.809 1.67085ZM64.4612 1.75H305.873L353.988 60.8667C357.23 64.8502 359 69.8295 359 74.9657V247.775C359 247.79 358.995 247.806 358.985 247.818L312.026 305.514C307.785 310.725 301.423 313.75 294.704 313.75H65.0111C58.2919 313.75 51.9297 310.725 47.6883 305.514L6.01237 254.308C2.77018 250.325 1 245.345 1 240.209V74.6151C1 69.4789 2.77019 64.4996 6.01237 60.5161L47.1383 9.98627C51.3797 4.77494 57.7419 1.75 64.4612 1.75Z" stroke="#19154A" stroke-width="2"/>
</g>
<defs>
<filter id="filter0_d_555_932" x="0" y="0.75" width="374" height="328" filterUnits="userSpaceOnUse" color-interpolation-filters="sRGB">
<feFlood flood-opacity="0" result="BackgroundImageFix"/>
<feColorMatrix in="SourceAlpha" type="matrix" values="0 0 0 0 0 0 0 0 0 0 0 0 0 0 0 0 0 0 127 0" result="hardAlpha"/>
<feOffset dx="14" dy="14"/>
<feComposite in2="hardAlpha" operator="out"/>
<feColorMatrix type="matrix" values="0 0 0 0 0.0980392 0 0 0 0 0.0823529 0 0 0 0 0.290196 0 0 0 1 0"/>
<feBlend mode="normal" in2="BackgroundImageFix" result="effect1_dropShadow_555_932"/>
<feBlend mode="normal" in="SourceGraphic" in2="effect1_dropShadow_555_932" result="shape"/>
</filter>
</defs>
</svg>
