<?xml version="1.0" encoding="UTF-8"?>
<svg version="1.1" xmlns="http://www.w3.org/2000/svg" width="822" height="478">
<path d="M0 0 C0.928125 0.23847656 1.85625 0.47695312 2.8125 0.72265625 C13.89951759 3.6156749 23.02657817 10.09188954 32 17 C32.66773438 17.51175781 33.33546875 18.02351563 34.0234375 18.55078125 C35.39643882 19.64338089 36.70797984 20.81273823 38 22 C38 22.66 38 23.32 38 24 C38.86818359 24.33451172 38.86818359 24.33451172 39.75390625 24.67578125 C42.66711099 26.39330544 44.00891468 28.41873889 45.9375 31.1875 C46.63230469 32.17878906 47.32710938 33.17007813 48.04296875 34.19140625 C48.68878906 35.11824219 49.33460938 36.04507813 50 37 C50.91577209 38.20901145 51.83227653 39.41746911 52.75 40.625 C57.59047322 47.502533 59.95231443 55.54486033 62.1875 63.5625 C62.44724609 64.45646484 62.70699219 65.35042969 62.97460938 66.27148438 C67.67304174 82.8677558 67.75062298 101.89641465 61 118 C60.69578125 119.11503906 60.3915625 120.23007813 60.078125 121.37890625 C57.49588067 130.05187904 52.94427313 138.38004734 47.2578125 145.40625 C45.85972336 147.08229658 45.85972336 147.08229658 44.625 149.5625 C42.09406166 153.35890751 38.6652267 156.29971621 35 159 C34.34 159 33.68 159 33 159 C32.731875 159.639375 32.46375 160.27875 32.1875 160.9375 C31 163 31 163 28 164 C27.34 164.680625 26.68 165.36125 26 166.0625 C24 168 24 168 21 168 C21 168.66 21 169.32 21 170 C19.1015625 171.5078125 19.1015625 171.5078125 16.625 173.125 C15.81289063 173.66382813 15.00078125 174.20265625 14.1640625 174.7578125 C12 176 12 176 10 176 C9.67 176.99 9.34 177.98 9 179 C6.70703125 180.6484375 6.70703125 180.6484375 3.8125 182.375 C0.5276851 184.38593727 -2.5937086 186.34395129 -5.5 188.875 C-8 191 -8 191 -11 192 C-11.598125 192.598125 -12.19625 193.19625 -12.8125 193.8125 C-15.32970797 196.32970797 -17.96350631 198.15169949 -21 200 C-21.66 200 -22.32 200 -23 200 C-23 200.66 -23 201.32 -23 202 C-24.4540625 202.4021875 -24.4540625 202.4021875 -25.9375 202.8125 C-27.4534375 203.4003125 -27.4534375 203.4003125 -29 204 C-29.33 204.99 -29.66 205.98 -30 207 C-31.62498505 208.06639644 -33.30596166 209.04710343 -35 210 C-36.57174991 210.98539761 -38.13364627 211.98661713 -39.6875 213 C-40.45449219 213.495 -41.22148437 213.99 -42.01171875 214.5 C-44.2494611 216.01652194 -44.2494611 216.01652194 -46 219 C-42.96340319 221.60279727 -40.00875926 224.05250904 -36.625 226.1875 C-35.75875 226.785625 -34.8925 227.38375 -34 228 C-34 228.66 -34 229.32 -34 230 C-33.40848145 230.11843262 -32.81696289 230.23686523 -32.20751953 230.35888672 C-29.91241014 231.02543806 -28.57422328 231.82582412 -26.6796875 233.2578125 C-26.06706055 233.71502686 -25.45443359 234.17224121 -24.82324219 234.64331055 C-24.18032227 235.13226807 -23.53740234 235.62122559 -22.875 236.125 C-21.52406092 237.13494903 -20.17249788 238.14406397 -18.8203125 239.15234375 C-17.83659668 239.88880127 -17.83659668 239.88880127 -16.83300781 240.64013672 C-14.50319437 242.36856784 -12.13436097 244.03531419 -9.75 245.6875 C4.13014528 255.33420097 4.13014528 255.33420097 9.375 259.8125 C11.84452637 261.9855155 11.84452637 261.9855155 14.234375 263.3359375 C17.56718491 265.34127227 20.71391709 267.54910843 23.875 269.8125 C24.49560303 270.25682373 25.11620605 270.70114746 25.75561523 271.15893555 C41.3202431 282.39516907 41.3202431 282.39516907 45 290 C45.86625 290.8353125 45.86625 290.8353125 46.75 291.6875 C61.08539916 306.4211047 66.37523572 332.07952673 66.21875 351.89453125 C65.33742639 374.96868512 55.67253255 396.23403494 40 413 C39.34 413 38.68 413 38 413 C37.74863281 413.58652344 37.49726563 414.17304688 37.23828125 414.77734375 C34.30778581 420.0374444 28.31589362 424.34205319 23 427 C22.34 427 21.68 427 21 427 C21 427.66 21 428.32 21 429 C-0.63846339 441.13254884 -27.71947377 445.34588215 -51.95336914 439.20654297 C-61.63791392 436.35201728 -71.0713291 432.52989192 -79.15234375 426.35546875 C-81.06263224 424.80902055 -81.06263224 424.80902055 -84 424 C-85.33333333 422.66666667 -86.66666667 421.33333333 -88 420 C-91.34222949 417.31779062 -94.72463352 414.75860535 -98.41015625 412.56640625 C-102.2137676 410.26588113 -105.71319675 407.58347207 -109.28125 404.9375 C-111.79007772 403.14959979 -114.35891973 401.58099269 -117 400 C-118 399 -119 398 -120 397 C-120.99 396.67 -121.98 396.34 -123 396 C-124.33333333 394.66666667 -125.66666667 393.33333333 -127 392 C-130.81499467 388.92440636 -134.54910001 386.08635937 -139 384 C-139 383.34 -139 382.68 -139 382 C-140.04800781 381.62681641 -140.04800781 381.62681641 -141.1171875 381.24609375 C-144.39611636 379.82877897 -147.16224905 378.0562309 -150.125 376.0625 C-151.67574219 375.02802734 -151.67574219 375.02802734 -153.2578125 373.97265625 C-156 372 -156 372 -157.47265625 370.52514648 C-159.99779499 368.00364046 -162.96897302 366.05415629 -165.875 364 C-166.48730469 363.56171875 -167.09960938 363.1234375 -167.73046875 362.671875 C-170.42454413 360.75660086 -173.07325669 358.958028 -175.9453125 357.3125 C-176.62335938 356.879375 -177.30140625 356.44625 -178 356 C-178 355.34 -178 354.68 -178 354 C-179.051875 353.6596875 -179.051875 353.6596875 -180.125 353.3125 C-183.62363901 351.71529523 -186.08239761 349.49211871 -189 347 C-190.66448513 345.99637305 -192.33136763 344.99671651 -194 344 C-195.70028513 342.78858042 -197.38719636 341.5582386 -199.0625 340.3125 C-204.17251681 336.54612521 -209.41046477 333.07744179 -214.76171875 329.6640625 C-215.86966797 328.84035156 -215.86966797 328.84035156 -217 328 C-217 327.34 -217 326.68 -217 326 C-218.051875 325.6596875 -218.051875 325.6596875 -219.125 325.3125 C-222.62363901 323.71529523 -225.08239761 321.49211871 -228 319 C-229.66279327 317.9935725 -231.32983484 316.99414593 -233 316 C-234.95131176 314.56445346 -236.87309672 313.09329812 -238.796875 311.62109375 C-241.87106882 309.35905397 -245.08175184 307.32700729 -248.3125 305.296875 C-249.1478125 304.65492188 -249.1478125 304.65492188 -250 304 C-250 303.34 -250 302.68 -250 302 C-250.61875 301.855625 -251.2375 301.71125 -251.875 301.5625 C-254 301 -254 301 -256 300 C-256 299.34 -256 298.68 -256 298 C-256.72574219 297.74476563 -257.45148438 297.48953125 -258.19921875 297.2265625 C-266.32009451 293.67013992 -273.01536597 286.39782703 -279 280 C-279.75990234 279.195625 -279.75990234 279.195625 -280.53515625 278.375 C-283.42449187 275.1402919 -284.9040366 272.18458751 -286 268 C-286.66 268 -287.32 268 -288 268 C-300.72590152 245.18872985 -304.85146586 217.69115945 -298.19702148 192.08056641 C-295.55699854 183.54525597 -291.68518544 175.59609946 -287 168 C-286.34 168 -285.68 168 -285 168 C-284.76152344 167.29359375 -284.52304687 166.5871875 -284.27734375 165.859375 C-278.92157976 153.87032534 -266.6816615 144.89857305 -256 138 C-253.21694935 135.98197813 -250.44826773 133.94545743 -247.68359375 131.90234375 C-245 130 -245 130 -242.26171875 128.359375 C-239.97040758 127.11565648 -239.97040758 127.11565648 -238.375 125.3125 C-237 124 -237 124 -234 124 C-233.505 122.515 -233.505 122.515 -233 121 C-230.92578125 119.31640625 -230.92578125 119.31640625 -228.3125 117.5625 C-227.39984375 116.94375 -226.4871875 116.325 -225.546875 115.6875 C-223.7201024 114.47712306 -221.89179733 113.26905781 -220.0625 112.0625 C-216.18693158 109.45242331 -212.44101402 106.67910398 -208.68359375 103.90234375 C-206 102 -206 102 -203.26171875 100.359375 C-200.97040758 99.11565648 -200.97040758 99.11565648 -199.375 97.3125 C-198 96 -198 96 -195 96 C-194.505 94.515 -194.505 94.515 -194 93 C-191.92578125 91.31640625 -191.92578125 91.31640625 -189.3125 89.5625 C-188.39984375 88.94375 -187.4871875 88.325 -186.546875 87.6875 C-184.7201024 86.47712306 -182.89179733 85.26905781 -181.0625 84.0625 C-174.96173798 79.95382354 -169.05141633 75.56392161 -163.1875 71.125 C-159.4591432 68.31522386 -155.67183631 65.59105737 -151.875 62.875 C-151.28871826 62.45492676 -150.70243652 62.03485352 -150.09838867 61.60205078 C-147.32528662 59.62400111 -144.53978603 57.69645461 -141.6953125 55.8203125 C-138.99264421 54.11946631 -138.99264421 54.11946631 -137 52 C-136.01 52 -135.02 52 -134 52 C-134 51.34 -134 50.68 -134 50 C-132.19921875 48.5546875 -132.19921875 48.5546875 -129.6875 46.875 C-125.911343 44.30785237 -122.18247232 41.70012949 -118.5 39 C-114.82137009 36.32082715 -111.14178213 33.64363156 -107.4375 31 C-106.63183594 30.4225 -105.82617188 29.845 -104.99609375 29.25 C-103 28 -103 28 -101 28 C-101 27.34 -101 26.68 -101 26 C-98 24 -98 24 -95 24 C-95 23.34 -95 22.68 -95 22 C-93.1640625 20.51953125 -93.1640625 20.51953125 -90.625 18.8125 C-86.55444171 16.06238467 -86.55444171 16.06238467 -82.56640625 13.1953125 C-59.02104882 -4.20273486 -27.68970453 -8.74917747 0 0 Z " fill="#E94234" transform="translate(306,15)"/>
<path d="M0 0 C0.928125 0.23847656 1.85625 0.47695312 2.8125 0.72265625 C15.43082649 4.01525082 27.23535854 12.19556563 37.07421875 20.58984375 C39.64743759 22.70957142 42.11984637 24.34700245 45 26 C46.78320255 27.16884371 48.55423892 28.35646314 50.3125 29.5625 C51.19550781 30.16191406 52.07851563 30.76132812 52.98828125 31.37890625 C53.65214844 31.91386719 54.31601562 32.44882812 55 33 C55 33.66 55 34.32 55 35 C56.65 35.33 58.3 35.66 60 36 C60.33 36.99 60.66 37.98 61 39 C62.64991582 39.70710678 64.3202175 40.36710744 66 41 C67.74355138 42.15693596 69.4504164 43.37031199 71.125 44.625 C72.55779297 45.68847656 72.55779297 45.68847656 74.01953125 46.7734375 C75.00308594 47.50820313 75.98664063 48.24296875 77 49 C78.9351074 50.41993311 80.87253519 51.83671049 82.8125 53.25 C83.71226562 53.90742187 84.61203125 54.56484375 85.5390625 55.2421875 C87.5576531 56.68403793 89.59331903 58.0477022 91.6875 59.375 C92.8321875 60.179375 92.8321875 60.179375 94 61 C94 61.66 94 62.32 94 63 C94.59312988 63.12149414 95.18625977 63.24298828 95.79736328 63.36816406 C99.29127196 64.37040699 101.98139591 66.62433755 104.875 68.75 C105.47441406 69.18054688 106.07382812 69.61109375 106.69140625 70.0546875 C109.59365831 72.15740374 112.40651349 74.31376456 115.1328125 76.640625 C117.6827804 78.73896371 120.14600464 80.36201538 123 82 C124.78320255 83.16884371 126.55423892 84.35646314 128.3125 85.5625 C129.19550781 86.16191406 130.07851563 86.76132813 130.98828125 87.37890625 C131.65214844 87.91386719 132.31601562 88.44882813 133 89 C133 89.66 133 90.32 133 91 C133.59006836 91.11698242 134.18013672 91.23396484 134.78808594 91.35449219 C137.11629573 92.03393884 138.47198361 92.86720234 140.390625 94.328125 C141.32636353 95.03014038 141.32636353 95.03014038 142.28100586 95.74633789 C143.25565796 96.49065063 143.25565796 96.49065063 144.25 97.25 C148.38951896 100.36277802 152.47899578 103.41301185 156.9375 106.0625 C157.948125 106.701875 158.95875 107.34125 160 108 C160 108.66 160 109.32 160 110 C160.81984375 110.39058594 160.81984375 110.39058594 161.65625 110.7890625 C164.36447489 112.18831202 166.91975522 113.75171413 169.5 115.375 C170.4384375 115.96023437 171.376875 116.54546875 172.34375 117.1484375 C175 119 175 119 177.03125 121.0390625 C179.19670629 123.19592571 181.35296211 124.48069423 184 126 C191.56410861 131.05580316 198.8790975 136.33743731 206 142 C208.21969803 143.71180103 210.44115746 145.42127231 212.6640625 147.12890625 C213.82035156 148.05509766 213.82035156 148.05509766 215 149 C215.80848389 149.64122803 215.80848389 149.64122803 216.63330078 150.29541016 C220.98671458 153.86442507 224.36530266 157.67265284 227.625 162.25 C228.33982544 163.24604248 228.33982544 163.24604248 229.0690918 164.26220703 C234.46481379 171.90885382 238.02249496 179.75012978 241.25 188.5 C241.50885986 189.18819824 241.76771973 189.87639648 242.03442383 190.58544922 C249.68003461 212.23822741 245.90758193 239.32316961 237.0222168 259.88330078 C235.30311325 263.44303992 233.189797 266.71508459 231 270 C230.35675781 270.9796875 229.71351563 271.959375 229.05078125 272.96875 C228.47714844 273.8040625 227.90351562 274.639375 227.3125 275.5 C226.73113281 276.3559375 226.14976562 277.211875 225.55078125 278.09375 C225.03902344 278.7228125 224.52726562 279.351875 224 280 C223.34 280 222.68 280 222 280 C221.6596875 280.8353125 221.6596875 280.8353125 221.3125 281.6875 C219.63575448 284.64176591 217.45423315 286.66847851 215 289 C214.34 289.66 213.68 290.32 213 291 C212.01 291 211.02 291 210 291 C209.67 291.99 209.34 292.98 209 294 C206.92578125 295.68359375 206.92578125 295.68359375 204.3125 297.4375 C202.96091797 298.35402344 202.96091797 298.35402344 201.58203125 299.2890625 C199.55570881 300.63176935 197.52873092 301.97343691 195.5 303.3125 C192.96474335 304.90827167 192.96474335 304.90827167 191 307 C190.01 307 189.02 307 188 307 C188 307.66 188 308.32 188 309 C186.1015625 310.5078125 186.1015625 310.5078125 183.625 312.125 C182.81289063 312.66382813 182.00078125 313.20265625 181.1640625 313.7578125 C179 315 179 315 177 315 C176.67 315.99 176.34 316.98 176 318 C174.36832337 319.05612932 172.69410179 320.04721624 171 321 C168.18069777 323.01950018 165.40235142 325.08867862 162.62109375 327.16015625 C160.44418599 328.68820924 158.36813195 329.82627521 156 331 C155.319375 331.70125 154.63875 332.4025 153.9375 333.125 C152 335 152 335 149 335 C149 335.66 149 336.32 149 337 C147.1015625 338.5078125 147.1015625 338.5078125 144.625 340.125 C143.81289063 340.66382813 143.00078125 341.20265625 142.1640625 341.7578125 C140 343 140 343 138 343 C137.67 343.99 137.34 344.98 137 346 C135.37384204 347.06460701 133.69728406 348.05289674 132 349 C125.19925537 353.54557543 118.57926566 358.2442294 112.16796875 363.32421875 C109.05888553 365.72745605 105.8323487 367.94804974 102.6015625 370.18359375 C99.87444814 372.08766008 97.18512068 374.03721461 94.5 376 C90.82137009 378.67917285 87.14178213 381.35636844 83.4375 384 C82.22900391 384.86625 82.22900391 384.86625 80.99609375 385.75 C79 387 79 387 77 387 C77 387.66 77 388.32 77 389 C74.59181936 390.72689953 72.18432303 392.34861262 69.6875 393.9375 C68.31430389 394.81834568 66.94313564 395.70236236 65.57421875 396.58984375 C64.65515747 397.17560181 64.65515747 397.17560181 63.7175293 397.77319336 C61.94531669 399.03905951 60.52841283 400.45454363 59 402 C57.34192822 403.01418724 55.674222 404.01270144 54 405 C51.21430388 407.02123066 48.46652181 409.0877497 45.71875 411.16015625 C43.18579344 412.87426909 40.87586003 413.99449097 38 415 C38 415.66 38 416.32 38 417 C35.61351207 418.73050057 33.2288835 420.34982323 30.75 421.9375 C29.38997594 422.82061581 28.03058318 423.70470473 26.671875 424.58984375 C25.70616577 425.21669067 25.70616577 425.21669067 24.72094727 425.85620117 C22.7547898 427.16297486 20.88469524 428.57916545 19 430 C-0.46035767 442.43644938 -26.99917294 444.45522329 -49.1953125 439.88671875 C-69.63535921 434.83749797 -91.08848273 421.82934114 -103 404 C-103 403.34 -103 402.68 -103 402 C-103.66 402 -104.32 402 -105 402 C-105.41378906 401.16082031 -105.82757813 400.32164062 -106.25390625 399.45703125 C-107.43289755 397.12278673 -108.65028043 394.80759667 -109.90234375 392.51171875 C-122.30893811 369.45494889 -123.61498758 344.1406561 -117 319 C-114.06351944 309.9404886 -109.67641411 301.64470631 -104 294 C-103.34 293.01 -102.68 292.02 -102 291 C-101.34 291 -100.68 291 -100 291 C-99.9175 290.38125 -99.835 289.7625 -99.75 289.125 C-98.76174558 286.32494581 -97.59640015 286.25886068 -95 285 C-94.69964844 284.38769531 -94.39929688 283.77539062 -94.08984375 283.14453125 C-90.84143644 276.75250396 -83.02524236 272.50031841 -77.265625 268.578125 C-74.83210921 266.93023891 -74.83210921 266.93023891 -72.0625 264.5625 C-70 263 -70 263 -67 263 C-66.67 262.01 -66.34 261.02 -66 260 C-63.92578125 258.31640625 -63.92578125 258.31640625 -61.3125 256.5625 C-60.39984375 255.94375 -59.4871875 255.325 -58.546875 254.6875 C-56.7201024 253.47712306 -54.89179733 252.26905781 -53.0625 251.0625 C-49.17012559 248.44110499 -45.43425661 245.62433475 -41.68359375 242.8046875 C-39 241 -39 241 -36.22265625 239.9453125 C-35.48917969 239.63335937 -34.75570312 239.32140625 -34 239 C-33.67 238.01 -33.34 237.02 -33 236 C-31.35 235.67 -29.7 235.34 -28 235 C-27.67 234.01 -27.34 233.02 -27 232 C-24.92578125 230.31640625 -24.92578125 230.31640625 -22.3125 228.5625 C-20.96091797 227.64597656 -20.96091797 227.64597656 -19.58203125 226.7109375 C-17.55570881 225.36823065 -15.52873092 224.02656309 -13.5 222.6875 C-10.96474335 221.09172833 -10.96474335 221.09172833 -9 219 C-13.87358636 214.52120137 -18.90892265 210.54845825 -24.37109375 206.8125 C-27.07859881 204.94581003 -29.72735229 203.01299731 -32.375 201.0625 C-37.38152519 197.38818323 -42.52647397 194.00344354 -47.76171875 190.6640625 C-48.86966797 189.84035156 -48.86966797 189.84035156 -50 189 C-50 188.34 -50 187.68 -50 187 C-51.98 186.34 -53.96 185.68 -56 185 C-56 184.34 -56 183.68 -56 183 C-56.53625 182.7525 -57.0725 182.505 -57.625 182.25 C-63.48405128 179.1662888 -68.72884937 175.04966536 -74.05859375 171.1484375 C-76.00283466 169.72834122 -77.9532862 168.31670492 -79.91015625 166.9140625 C-82.62423506 164.96530165 -85.31694575 162.9911975 -88 161 C-88.61359375 160.5565625 -89.2271875 160.113125 -89.859375 159.65625 C-101.32006797 150.70599453 -110.20012249 136.52692753 -115 123 C-115.26683594 122.25363281 -115.53367187 121.50726563 -115.80859375 120.73828125 C-122.68756095 99.74495648 -124.27813809 73.20251591 -114.1875 52.9375 C-113.84589844 52.32648438 -113.50429688 51.71546875 -113.15234375 51.0859375 C-112.2653731 49.48037029 -111.4599285 47.8295764 -110.69140625 46.1640625 C-107.35454615 38.98393536 -103.45898583 33.68245309 -98 28 C-96.82751263 26.62996005 -95.66064654 25.25508541 -94.5 23.875 C-89.1076213 17.72278612 -83.31273342 12.72308873 -76 9 C-74.53820312 8.19755859 -74.53820312 8.19755859 -73.046875 7.37890625 C-50.21419683 -4.74117977 -24.77549355 -7.82836775 0 0 Z " fill="#33A752" transform="translate(561,15)"/>
<path d="M0 0 C1.24265625 -0.02449219 2.4853125 -0.04898438 3.765625 -0.07421875 C15.56826077 -0.11117899 25.7663163 2.81497055 36.1875 8.25 C36.86772217 8.59804687 37.54794434 8.94609375 38.2487793 9.3046875 C43.19916539 11.89256501 47.54910626 14.84293006 51.875 18.375 C53.57598136 19.63498619 55.28505585 20.88408528 57 22.125 C57.93070313 22.80046875 58.86140625 23.4759375 59.8203125 24.171875 C63.76425593 27.01635594 67.72238713 29.84065989 71.68212891 32.66308594 C75.26009427 35.21528315 78.82421601 37.78501638 82.375 40.375 C90.60633614 46.37575315 98.88860871 52.30670468 107.25 58.125 C110.08052987 60.09904268 112.87412155 62.10402877 115.625 64.1875 C122.96091016 69.73702086 130.50785373 75.00958225 138.03125 80.30078125 C145.45126465 85.51946816 152.83500685 90.77652952 160.13818359 96.15771484 C171.03223682 104.18264686 182.02652537 112.07091611 193.04589844 119.92260742 C197.33258748 122.97945759 201.58670696 126.07891837 205.8359375 129.1875 C208.1820659 130.87622995 210.53971415 132.53922847 212.9140625 134.1875 C233.08945413 148.2057314 251.36605034 163.79896547 256.11865234 189.29907227 C259.67002686 209.79564158 257.06797014 228.72765465 245.88671875 246.54296875 C243.97036935 249.24074218 241.97619762 251.8193767 239.875 254.375 C239.2871875 255.11363281 238.699375 255.85226562 238.09375 256.61328125 C234.17919775 261.33743408 229.88563114 264.87155074 224.875 268.375 C224.31039063 268.81714844 223.74578125 269.25929688 223.1640625 269.71484375 C218.45899148 273.34857231 213.42321627 275.33232874 207.875 277.375 C207.05128906 277.71917969 206.22757812 278.06335938 205.37890625 278.41796875 C188.57529649 284.8405653 167.16532936 282.72207947 150.85546875 276.16015625 C138.1633641 270.29834085 126.96680056 261.27731009 115.88696289 252.86572266 C110.54455463 248.82667609 105.07058011 245.01228504 99.53442383 241.24487305 C93.89374045 237.40457122 88.37090597 233.41978664 82.875 229.375 C81.04246057 228.04057573 79.20911608 226.70725639 77.375 225.375 C73.70833333 222.70833333 70.04166667 220.04166667 66.375 217.375 C65.46492187 216.71371094 64.55484375 216.05242187 63.6171875 215.37109375 C61.80763388 214.05388307 60.00028983 212.73363088 58.1953125 211.41015625 C53.24046721 207.78378397 48.24588824 204.22959992 43.1875 200.75 C39.08083992 197.92477931 35.04090631 195.03820543 31.07421875 192.01953125 C28.16441632 189.84363991 25.20860805 187.73368797 22.25 185.625 C21.65372803 185.20001221 21.05745605 184.77502441 20.44311523 184.3371582 C18.58758071 183.01572908 16.73140956 181.6951995 14.875 180.375 C1.17169322 170.62979121 1.17169322 170.62979121 -4.9453125 165.99609375 C-11.88076042 160.83800972 -18.96365335 155.86758382 -26.0625 150.9375 C-30.38371373 147.91552163 -34.66906841 144.84591599 -38.9375 141.75 C-39.88967407 141.06659546 -39.88967407 141.06659546 -40.86108398 140.36938477 C-44.61988477 137.62870645 -47.86208617 134.70802603 -51.125 131.375 C-51.95128906 130.74335938 -52.77757813 130.11171875 -53.62890625 129.4609375 C-67.29194976 118.04299504 -73.38892386 99.51530726 -75.125 82.375 C-76.80001048 63.40970523 -71.95376748 45.2167806 -60.25 30.0625 C-56.13875021 25.22900362 -51.78314406 20.68315828 -47.125 16.375 C-46.55910156 15.84261719 -45.99320313 15.31023437 -45.41015625 14.76171875 C-32.84895405 4.19435817 -15.92488873 0.01621679 0 0 Z " fill="#4184F3" transform="translate(97.125,157.625)"/>
<path d="M0 0 C2.70270587 1.79584754 5.30202945 3.63799139 7.86328125 5.6328125 C13.18724232 9.71101913 18.61708629 13.55847978 24.16015625 17.33203125 C27.26272665 19.50004691 30.28111339 21.75292442 33.30126953 24.03295898 C36.6264512 26.51208152 40.02697468 28.8812034 43.42578125 31.2578125 C48.9494308 35.13694292 54.43369636 39.06059357 59.86328125 43.0703125 C65.94997656 47.56390059 72.103905 51.95428721 78.30419922 56.28979492 C82.27196098 59.06886585 86.14664061 61.93033498 89.98828125 64.8828125 C106.22608048 76.71672376 124.72722785 80.20016099 144.36328125 81.5703125 C141.28441803 84.84997114 137.91457909 87.44783341 134.23828125 90.0078125 C132.98526813 90.89134739 131.73268548 91.77549301 130.48046875 92.66015625 C129.81499023 93.12921387 129.14951172 93.59827148 128.46386719 94.08154297 C124.74437499 96.71769632 121.05556369 99.39625248 117.36328125 102.0703125 C111.48453939 106.32224436 105.59380069 110.55633662 99.68481445 114.76611328 C94.95761628 118.13737509 90.25370431 121.54030007 85.55078125 124.9453125 C79.68196722 129.19274231 73.78903718 133.40271002 67.86328125 137.5703125 C59.73535649 143.2881145 51.67661884 149.09855488 43.62939453 154.92919922 C41.37395307 156.562584 39.11699732 158.19384987 36.859375 159.82421875 C36.1173584 160.36022705 35.3753418 160.89623535 34.61083984 161.44848633 C33.11339368 162.52903541 31.61502133 163.60830212 30.11572266 164.6862793 C26.32816432 167.41241656 22.5619576 170.16156742 18.828125 172.9609375 C-2.82843735 189.10945895 -22.14884863 197.05404131 -49.63671875 194.5703125 C-60.70444172 192.90328616 -70.41587262 188.93000515 -79.63671875 182.5703125 C-80.38308594 182.06371094 -81.12945312 181.55710937 -81.8984375 181.03515625 C-98.5051949 169.17318668 -109.74165061 150.50951828 -113.63671875 130.5703125 C-113.84455881 127.87379019 -113.97159727 125.32271069 -113.94921875 122.6328125 C-113.94075928 121.53864014 -113.94075928 121.53864014 -113.93212891 120.42236328 C-113.51267991 101.04880319 -108.08473692 84.56398542 -95.63671875 69.5703125 C-94.85296875 68.5184375 -94.06921875 67.4665625 -93.26171875 66.3828125 C-86.41972657 59.0521066 -78.17059535 53.46265111 -69.90649414 47.87719727 C-64.91762066 44.49304574 -60.06706635 40.95977809 -55.26171875 37.3203125 C-50.37919167 33.62338417 -45.47105618 30.002573 -40.4296875 26.5234375 C-37.39350163 24.4002306 -34.39073725 22.2346399 -31.39086914 20.06054688 C-29.84638924 18.94202375 -28.29999789 17.82613525 -26.75170898 16.71289062 C-22.76173595 13.84365927 -18.79770328 10.94766525 -14.87109375 7.9921875 C-13.35559217 6.8722288 -11.83997168 5.75243099 -10.32421875 4.6328125 C-9.62546631 4.09438721 -8.92671387 3.55596191 -8.20678711 3.0012207 C-3.3515969 -0.54618616 -3.3515969 -0.54618616 0 0 Z " fill="#F8AA00" transform="translate(570.63671875,244.4296875)"/>
<path d="M0 0 C0.928125 0.23847656 1.85625 0.47695312 2.8125 0.72265625 C13.89951759 3.6156749 23.02657817 10.09188954 32 17 C32.66773438 17.51175781 33.33546875 18.02351563 34.0234375 18.55078125 C35.39643882 19.64338089 36.70797984 20.81273823 38 22 C38 22.66 38 23.32 38 24 C38.86818359 24.33451172 38.86818359 24.33451172 39.75390625 24.67578125 C42.66711099 26.39330544 44.00891468 28.41873889 45.9375 31.1875 C46.63230469 32.17878906 47.32710938 33.17007813 48.04296875 34.19140625 C48.68878906 35.11824219 49.33460938 36.04507813 50 37 C50.91577209 38.20901145 51.83227653 39.41746911 52.75 40.625 C57.59047322 47.502533 59.95231443 55.54486033 62.1875 63.5625 C62.44724609 64.45646484 62.70699219 65.35042969 62.97460938 66.27148438 C67.67304174 82.8677558 67.75062298 101.89641465 61 118 C60.69578125 119.11503906 60.3915625 120.23007813 60.078125 121.37890625 C57.49588067 130.05187904 52.94427313 138.38004734 47.2578125 145.40625 C45.85972336 147.08229658 45.85972336 147.08229658 44.625 149.5625 C42.09406166 153.35890751 38.6652267 156.29971621 35 159 C34.34 159 33.68 159 33 159 C32.731875 159.639375 32.46375 160.27875 32.1875 160.9375 C31 163 31 163 28 164 C27.34 164.680625 26.68 165.36125 26 166.0625 C24 168 24 168 21 168 C21 168.66 21 169.32 21 170 C19.1015625 171.5078125 19.1015625 171.5078125 16.625 173.125 C15.81289063 173.66382813 15.00078125 174.20265625 14.1640625 174.7578125 C12 176 12 176 10 176 C9.67 176.99 9.34 177.98 9 179 C6.70703125 180.6484375 6.70703125 180.6484375 3.8125 182.375 C0.5276851 184.38593727 -2.5937086 186.34395129 -5.5 188.875 C-8 191 -8 191 -11 192 C-11.598125 192.598125 -12.19625 193.19625 -12.8125 193.8125 C-15.32970797 196.32970797 -17.96350631 198.15169949 -21 200 C-21.66 200 -22.32 200 -23 200 C-23 200.66 -23 201.32 -23 202 C-24.4540625 202.4021875 -24.4540625 202.4021875 -25.9375 202.8125 C-27.4534375 203.4003125 -27.4534375 203.4003125 -29 204 C-29.33 204.99 -29.66 205.98 -30 207 C-31.62498505 208.06639644 -33.30596166 209.04710343 -35 210 C-36.57174991 210.98539761 -38.13364627 211.98661713 -39.6875 213 C-40.45449219 213.495 -41.22148437 213.99 -42.01171875 214.5 C-44.2494611 216.01652194 -44.2494611 216.01652194 -46 219 C-42.96340319 221.60279727 -40.00875926 224.05250904 -36.625 226.1875 C-35.75875 226.785625 -34.8925 227.38375 -34 228 C-34 228.66 -34 229.32 -34 230 C-33.40848145 230.11843262 -32.81696289 230.23686523 -32.20751953 230.35888672 C-29.91241014 231.02543806 -28.57422328 231.82582412 -26.6796875 233.2578125 C-26.06706055 233.71502686 -25.45443359 234.17224121 -24.82324219 234.64331055 C-24.18032227 235.13226807 -23.53740234 235.62122559 -22.875 236.125 C-21.52406092 237.13494903 -20.17249788 238.14406397 -18.8203125 239.15234375 C-17.83659668 239.88880127 -17.83659668 239.88880127 -16.83300781 240.64013672 C-14.50319437 242.36856784 -12.13436097 244.03531419 -9.75 245.6875 C4.13014528 255.33420097 4.13014528 255.33420097 9.375 259.8125 C11.84452637 261.9855155 11.84452637 261.9855155 14.234375 263.3359375 C17.56718491 265.34127227 20.71391709 267.54910843 23.875 269.8125 C24.49560303 270.25682373 25.11620605 270.70114746 25.75561523 271.15893555 C41.3202431 282.39516907 41.3202431 282.39516907 45 290 C45.86625 290.8353125 45.86625 290.8353125 46.75 291.6875 C61.08539916 306.4211047 66.37523572 332.07952673 66.21875 351.89453125 C65.33742639 374.96868512 55.67253255 396.23403494 40 413 C39.34 413 38.68 413 38 413 C37.74863281 413.58652344 37.49726563 414.17304688 37.23828125 414.77734375 C34.30778581 420.0374444 28.31589362 424.34205319 23 427 C22.34 427 21.68 427 21 427 C21 427.66 21 428.32 21 429 C-0.63846339 441.13254884 -27.71947377 445.34588215 -51.95336914 439.20654297 C-61.63791392 436.35201728 -71.0713291 432.52989192 -79.15234375 426.35546875 C-81.06263224 424.80902055 -81.06263224 424.80902055 -84 424 C-85.33333333 422.66666667 -86.66666667 421.33333333 -88 420 C-91.34222949 417.31779062 -94.72463352 414.75860535 -98.41015625 412.56640625 C-102.2137676 410.26588113 -105.71319675 407.58347207 -109.28125 404.9375 C-111.79007772 403.14959979 -114.35891973 401.58099269 -117 400 C-118 399 -119 398 -120 397 C-120.99 396.67 -121.98 396.34 -123 396 C-124.33333333 394.66666667 -125.66666667 393.33333333 -127 392 C-130.81499467 388.92440636 -134.54910001 386.08635937 -139 384 C-139 383.34 -139 382.68 -139 382 C-140.04800781 381.62681641 -140.04800781 381.62681641 -141.1171875 381.24609375 C-144.39611636 379.82877897 -147.16224905 378.0562309 -150.125 376.0625 C-151.67574219 375.02802734 -151.67574219 375.02802734 -153.2578125 373.97265625 C-156 372 -156 372 -157.47265625 370.52514648 C-159.99779499 368.00364046 -162.96897302 366.05415629 -165.875 364 C-166.48730469 363.56171875 -167.09960938 363.1234375 -167.73046875 362.671875 C-170.42454413 360.75660086 -173.07325669 358.958028 -175.9453125 357.3125 C-176.62335938 356.879375 -177.30140625 356.44625 -178 356 C-178 355.34 -178 354.68 -178 354 C-179.051875 353.6596875 -179.051875 353.6596875 -180.125 353.3125 C-183.62363901 351.71529523 -186.08239761 349.49211871 -189 347 C-190.66448513 345.99637305 -192.33136763 344.99671651 -194 344 C-195.70028513 342.78858042 -197.38719636 341.5582386 -199.0625 340.3125 C-204.17251681 336.54612521 -209.41046477 333.07744179 -214.76171875 329.6640625 C-215.86966797 328.84035156 -215.86966797 328.84035156 -217 328 C-217 327.34 -217 326.68 -217 326 C-218.051875 325.6596875 -218.051875 325.6596875 -219.125 325.3125 C-222.62363901 323.71529523 -225.08239761 321.49211871 -228 319 C-229.66279327 317.9935725 -231.32983484 316.99414593 -233 316 C-234.95131176 314.56445346 -236.87309672 313.09329812 -238.796875 311.62109375 C-241.87106882 309.35905397 -245.08175184 307.32700729 -248.3125 305.296875 C-249.1478125 304.65492188 -249.1478125 304.65492188 -250 304 C-250 303.34 -250 302.68 -250 302 C-250.61875 301.855625 -251.2375 301.71125 -251.875 301.5625 C-254 301 -254 301 -256 300 C-256 299.34 -256 298.68 -256 298 C-256.72574219 297.74476563 -257.45148438 297.48953125 -258.19921875 297.2265625 C-266.32009451 293.67013992 -273.01536597 286.39782703 -279 280 C-279.75990234 279.195625 -279.75990234 279.195625 -280.53515625 278.375 C-283.42449187 275.1402919 -284.9040366 272.18458751 -286 268 C-286.66 268 -287.32 268 -288 268 C-300.72590152 245.18872985 -304.85146586 217.69115945 -298.19702148 192.08056641 C-295.55699854 183.54525597 -291.68518544 175.59609946 -287 168 C-286.34 168 -285.68 168 -285 168 C-284.76152344 167.29359375 -284.52304687 166.5871875 -284.27734375 165.859375 C-278.92157976 153.87032534 -266.6816615 144.89857305 -256 138 C-253.21694935 135.98197813 -250.44826773 133.94545743 -247.68359375 131.90234375 C-245 130 -245 130 -242.26171875 128.359375 C-239.97040758 127.11565648 -239.97040758 127.11565648 -238.375 125.3125 C-237 124 -237 124 -234 124 C-233.505 122.515 -233.505 122.515 -233 121 C-230.92578125 119.31640625 -230.92578125 119.31640625 -228.3125 117.5625 C-227.39984375 116.94375 -226.4871875 116.325 -225.546875 115.6875 C-223.7201024 114.47712306 -221.89179733 113.26905781 -220.0625 112.0625 C-216.18693158 109.45242331 -212.44101402 106.67910398 -208.68359375 103.90234375 C-206 102 -206 102 -203.26171875 100.359375 C-200.97040758 99.11565648 -200.97040758 99.11565648 -199.375 97.3125 C-198 96 -198 96 -195 96 C-194.505 94.515 -194.505 94.515 -194 93 C-191.92578125 91.31640625 -191.92578125 91.31640625 -189.3125 89.5625 C-188.39984375 88.94375 -187.4871875 88.325 -186.546875 87.6875 C-184.7201024 86.47712306 -182.89179733 85.26905781 -181.0625 84.0625 C-174.96173798 79.95382354 -169.05141633 75.56392161 -163.1875 71.125 C-159.4591432 68.31522386 -155.67183631 65.59105737 -151.875 62.875 C-151.28871826 62.45492676 -150.70243652 62.03485352 -150.09838867 61.60205078 C-147.32528662 59.62400111 -144.53978603 57.69645461 -141.6953125 55.8203125 C-138.99264421 54.11946631 -138.99264421 54.11946631 -137 52 C-136.01 52 -135.02 52 -134 52 C-134 51.34 -134 50.68 -134 50 C-132.19921875 48.5546875 -132.19921875 48.5546875 -129.6875 46.875 C-125.911343 44.30785237 -122.18247232 41.70012949 -118.5 39 C-114.82137009 36.32082715 -111.14178213 33.64363156 -107.4375 31 C-106.63183594 30.4225 -105.82617188 29.845 -104.99609375 29.25 C-103 28 -103 28 -101 28 C-101 27.34 -101 26.68 -101 26 C-98 24 -98 24 -95 24 C-95 23.34 -95 22.68 -95 22 C-93.1640625 20.51953125 -93.1640625 20.51953125 -90.625 18.8125 C-86.55444171 16.06238467 -86.55444171 16.06238467 -82.56640625 13.1953125 C-59.02104882 -4.20273486 -27.68970453 -8.74917747 0 0 Z M-80.078125 32.57275391 C-83.60622159 35.19283173 -87.18302316 37.74576419 -90.75 40.3125 C-92.28156728 41.41883174 -93.81281458 42.52560656 -95.34375 43.6328125 C-96.11074219 44.18743164 -96.87773437 44.74205078 -97.66796875 45.31347656 C-98.43753906 45.8700293 -99.20710938 46.42658203 -100 47 C-111.19773838 55.09819689 -122.41349252 63.16933278 -133.66796875 71.18847656 C-140.79592993 76.26860274 -147.90678693 81.37144043 -155 86.5 C-164.08893789 93.07022455 -173.19252729 99.61850379 -182.36328125 106.07421875 C-183.11279053 106.60200928 -183.8622998 107.1297998 -184.63452148 107.67358398 C-186.07717942 108.68864798 -187.52063939 109.70257353 -188.96508789 110.71508789 C-193.10174056 113.62414666 -197.17103752 116.6051201 -201.19384766 119.66992188 C-202.92182664 120.94243195 -204.68772905 122.10206985 -206.5 123.25 C-207.325 123.8275 -208.15 124.405 -209 125 C-209 125.66 -209 126.32 -209 127 C-208.45287354 127.03440186 -207.90574707 127.06880371 -207.34204102 127.10424805 C-182.11839748 128.8030316 -164.89276647 135.89138474 -144.74560547 150.72216797 C-142.44616362 152.40542372 -140.12362059 154.05498565 -137.79980469 155.7043457 C-131.59778118 160.10659707 -125.45790902 164.58958711 -119.33325195 169.09863281 C-115.05139671 172.24512641 -110.72396193 175.3166931 -106.359375 178.34765625 C-102.95790203 180.72981365 -99.60830841 183.18109927 -96.25390625 185.62890625 C-90.60739736 189.74776995 -84.94270968 193.84137393 -79.265625 197.91796875 C-76.75222677 199.7246806 -74.25843118 201.54912548 -71.796875 203.42578125 C-70.93578125 204.06902344 -70.0746875 204.71226562 -69.1875 205.375 C-68.47980469 205.91898438 -67.77210938 206.46296875 -67.04296875 207.0234375 C-65.03201307 208.16445486 -65.03201307 208.16445486 -62.703125 208.00390625 C-58.77500022 206.54505066 -55.83549436 204.13961733 -52.5625 201.5625 C-51.12993243 200.4609038 -49.69631996 199.36066524 -48.26171875 198.26171875 C-47.5454834 197.7104834 -46.82924805 197.15924805 -46.09130859 196.59130859 C-43.06433496 194.28803821 -39.97856035 192.07346568 -36.875 189.875 C-36.30378418 189.46950928 -35.73256836 189.06401855 -35.14404297 188.64624023 C-33.99794689 187.83327392 -32.8514654 187.02085068 -31.70458984 186.20898438 C-29.43371391 184.59836025 -27.17048977 182.97715614 -24.90698242 181.35620117 C-19.86178775 177.74368992 -14.80188123 174.15326368 -9.72583008 170.58422852 C-1.60875735 164.87452145 6.45230363 159.09727129 14.41503906 153.17382812 C15.80819259 152.1420533 17.21188893 151.12454591 18.6171875 150.109375 C32.27684121 139.99461412 44.44216866 123.15065919 47.3371582 106.00292969 C50.07996268 83.89321971 48.327325 63.43723938 34.79296875 44.9921875 C32.60200977 42.25255566 30.33940656 39.61339112 28 37 C27.45988281 36.36578125 26.91976562 35.7315625 26.36328125 35.078125 C14.23136254 21.75440571 -4.82776054 13.71752507 -22.51953125 12.6796875 C-44.86899518 11.88452919 -62.33908564 19.32059229 -80.078125 32.57275391 Z M-240 149 C-241.48886719 149.6496875 -241.48886719 149.6496875 -243.0078125 150.3125 C-251.27373647 154.26883968 -257.60691718 160.57133829 -264 167 C-264.71542969 167.71542969 -265.43085938 168.43085938 -266.16796875 169.16796875 C-270.85985686 174.19129267 -273.96059617 179.86817949 -277 186 C-277.3815625 186.72960937 -277.763125 187.45921875 -278.15625 188.2109375 C-286.46937409 205.15207675 -285.99207316 226.33773539 -280.33203125 244.09570312 C-272.05778124 267.36429509 -253.47763666 281.00652051 -233.7890625 294.40625 C-226.74562038 299.20716122 -219.92377303 304.29847965 -213.125 309.4375 C-207.9643265 313.32130583 -202.69493931 317.01612511 -197.37109375 320.671875 C-193.7835053 323.140254 -190.23171651 325.65735246 -186.6875 328.1875 C-186.13723145 328.57929443 -185.58696289 328.97108887 -185.02001953 329.37475586 C-182.01325289 331.52533559 -179.04082989 333.71483171 -176.08984375 335.94140625 C-172.07603612 338.96221585 -167.98815369 341.86656196 -163.875 344.75 C-162.37744172 345.80445683 -160.88004827 346.85914779 -159.3828125 347.9140625 C-158.64450195 348.43387695 -157.90619141 348.95369141 -157.14550781 349.48925781 C-149.42633576 354.92465115 -141.75122187 360.37159172 -134.3125 366.1875 C-129.56412913 369.89966765 -124.6595303 373.19671147 -119.53515625 376.3671875 C-116.36150477 378.41123421 -113.45231352 380.702291 -110.50390625 383.0546875 C-106.26307584 386.34943562 -101.8595763 389.41636765 -97.48046875 392.5234375 C-94.44638065 394.67655438 -91.43840741 396.86329486 -88.4375 399.0625 C-82.36624908 403.48609581 -76.20833126 407.77184237 -70 412 C-68.93845703 412.74443359 -68.93845703 412.74443359 -67.85546875 413.50390625 C-56.36758632 421.21892624 -43.03158047 424.39429034 -29.375 424.3125 C-28.41513184 424.30831055 -27.45526367 424.30412109 -26.46630859 424.29980469 C-16.16908836 424.13791496 -5.78473759 423.18284933 3.31640625 417.95703125 C5 417 5 417 8.4375 415.6875 C13.208674 413.42747021 16.95118805 410.35292239 21 407 C21.66 406.49855469 22.32 405.99710937 23 405.48046875 C32.74407369 397.72057136 39.51572811 386.46797401 44 375 C44.29390625 374.34 44.5878125 373.68 44.890625 373 C51.87499209 356.56619509 50.2342975 335.98276426 43.69116211 319.66235352 C40.40772767 312.04905528 36.27035879 305.42777091 31 299 C29.82630859 297.51113281 29.82630859 297.51113281 28.62890625 295.9921875 C25.96679635 292.96220803 23.2826101 290.67015841 20.0625 288.25 C19.50038818 287.82589844 18.93827637 287.40179688 18.35913086 286.96484375 C12.56429333 282.61811456 6.66406565 278.41699414 0.74853516 274.23681641 C-2.09030705 272.2287775 -4.92034251 270.20845193 -7.75 268.1875 C-8.31928223 267.78128418 -8.88856445 267.37506836 -9.47509766 266.95654297 C-15.03251123 262.98652407 -20.56202912 258.97816563 -26.09423828 254.97314453 C-32.08433451 250.64419959 -38.11211892 246.37079717 -44.16723633 242.13330078 C-47.47933841 239.80894645 -50.75429248 237.44905597 -53.984375 235.01171875 C-57.97131486 232.00332083 -62.03543027 229.11666834 -66.125 226.25 C-67.61608721 225.20080757 -69.10696944 224.15132375 -70.59765625 223.1015625 C-71.33516113 222.58239258 -72.07266602 222.06322266 -72.83251953 221.52832031 C-76.08259308 219.23664872 -79.32459744 216.93382751 -82.5625 214.625 C-83.61566406 213.87476563 -84.66882813 213.12453125 -85.75390625 212.3515625 C-88.15905012 210.62319072 -90.53028111 208.85417327 -92.89453125 207.0703125 C-96.91357165 204.04559967 -101.00643252 201.13708933 -105.125 198.25 C-106.62128039 197.19687971 -108.11737136 196.14349025 -109.61328125 195.08984375 C-110.35143066 194.57019043 -111.08958008 194.05053711 -111.85009766 193.51513672 C-120.30703105 187.55514028 -128.68107176 181.51215304 -136.94140625 175.28125 C-141.99070772 171.51523204 -147.11894617 167.86395381 -152.26513672 164.23193359 C-153.94728537 163.03743288 -155.61697784 161.82718565 -157.28515625 160.61328125 C-173.03124224 149.34421121 -188.65664548 142.19975574 -208.25 142.375 C-209.51763184 142.38192871 -210.78526367 142.38885742 -212.09130859 142.39599609 C-222.46275815 142.63577542 -230.73280682 144.46096661 -240 149 Z " fill="#1F1E1F" transform="translate(306,15)"/>
<path d="M0 0 C0.928125 0.23847656 1.85625 0.47695312 2.8125 0.72265625 C15.43082649 4.01525082 27.23535854 12.19556563 37.07421875 20.58984375 C39.64743759 22.70957142 42.11984637 24.34700245 45 26 C46.78320255 27.16884371 48.55423892 28.35646314 50.3125 29.5625 C51.19550781 30.16191406 52.07851563 30.76132812 52.98828125 31.37890625 C53.65214844 31.91386719 54.31601562 32.44882812 55 33 C55 33.66 55 34.32 55 35 C56.65 35.33 58.3 35.66 60 36 C60.33 36.99 60.66 37.98 61 39 C62.64991582 39.70710678 64.3202175 40.36710744 66 41 C67.74355138 42.15693596 69.4504164 43.37031199 71.125 44.625 C72.55779297 45.68847656 72.55779297 45.68847656 74.01953125 46.7734375 C75.00308594 47.50820313 75.98664063 48.24296875 77 49 C78.9351074 50.41993311 80.87253519 51.83671049 82.8125 53.25 C83.71226562 53.90742187 84.61203125 54.56484375 85.5390625 55.2421875 C87.5576531 56.68403793 89.59331903 58.0477022 91.6875 59.375 C92.8321875 60.179375 92.8321875 60.179375 94 61 C94 61.66 94 62.32 94 63 C94.59312988 63.12149414 95.18625977 63.24298828 95.79736328 63.36816406 C99.29127196 64.37040699 101.98139591 66.62433755 104.875 68.75 C105.47441406 69.18054688 106.07382812 69.61109375 106.69140625 70.0546875 C109.59365831 72.15740374 112.40651349 74.31376456 115.1328125 76.640625 C117.6827804 78.73896371 120.14600464 80.36201538 123 82 C124.78320255 83.16884371 126.55423892 84.35646314 128.3125 85.5625 C129.19550781 86.16191406 130.07851563 86.76132813 130.98828125 87.37890625 C131.65214844 87.91386719 132.31601562 88.44882813 133 89 C133 89.66 133 90.32 133 91 C133.59006836 91.11698242 134.18013672 91.23396484 134.78808594 91.35449219 C137.11629573 92.03393884 138.47198361 92.86720234 140.390625 94.328125 C141.32636353 95.03014038 141.32636353 95.03014038 142.28100586 95.74633789 C143.25565796 96.49065063 143.25565796 96.49065063 144.25 97.25 C148.38951896 100.36277802 152.47899578 103.41301185 156.9375 106.0625 C157.948125 106.701875 158.95875 107.34125 160 108 C160 108.66 160 109.32 160 110 C160.81984375 110.39058594 160.81984375 110.39058594 161.65625 110.7890625 C164.36447489 112.18831202 166.91975522 113.75171413 169.5 115.375 C170.4384375 115.96023437 171.376875 116.54546875 172.34375 117.1484375 C175 119 175 119 177.03125 121.0390625 C179.19670629 123.19592571 181.35296211 124.48069423 184 126 C191.56410861 131.05580316 198.8790975 136.33743731 206 142 C208.21969803 143.71180103 210.44115746 145.42127231 212.6640625 147.12890625 C213.82035156 148.05509766 213.82035156 148.05509766 215 149 C215.80848389 149.64122803 215.80848389 149.64122803 216.63330078 150.29541016 C220.98671458 153.86442507 224.36530266 157.67265284 227.625 162.25 C228.33982544 163.24604248 228.33982544 163.24604248 229.0690918 164.26220703 C234.46481379 171.90885382 238.02249496 179.75012978 241.25 188.5 C241.50885986 189.18819824 241.76771973 189.87639648 242.03442383 190.58544922 C249.68003461 212.23822741 245.90758193 239.32316961 237.0222168 259.88330078 C235.30311325 263.44303992 233.189797 266.71508459 231 270 C230.35675781 270.9796875 229.71351563 271.959375 229.05078125 272.96875 C228.47714844 273.8040625 227.90351562 274.639375 227.3125 275.5 C226.73113281 276.3559375 226.14976562 277.211875 225.55078125 278.09375 C225.03902344 278.7228125 224.52726562 279.351875 224 280 C223.34 280 222.68 280 222 280 C221.6596875 280.8353125 221.6596875 280.8353125 221.3125 281.6875 C219.63575448 284.64176591 217.45423315 286.66847851 215 289 C214.34 289.66 213.68 290.32 213 291 C212.01 291 211.02 291 210 291 C209.67 291.99 209.34 292.98 209 294 C206.92578125 295.68359375 206.92578125 295.68359375 204.3125 297.4375 C202.96091797 298.35402344 202.96091797 298.35402344 201.58203125 299.2890625 C199.55570881 300.63176935 197.52873092 301.97343691 195.5 303.3125 C192.96474335 304.90827167 192.96474335 304.90827167 191 307 C190.01 307 189.02 307 188 307 C188 307.66 188 308.32 188 309 C186.1015625 310.5078125 186.1015625 310.5078125 183.625 312.125 C182.81289063 312.66382813 182.00078125 313.20265625 181.1640625 313.7578125 C179 315 179 315 177 315 C176.67 315.99 176.34 316.98 176 318 C174.36832337 319.05612932 172.69410179 320.04721624 171 321 C168.18069777 323.01950018 165.40235142 325.08867862 162.62109375 327.16015625 C160.44418599 328.68820924 158.36813195 329.82627521 156 331 C155.319375 331.70125 154.63875 332.4025 153.9375 333.125 C152 335 152 335 149 335 C149 335.66 149 336.32 149 337 C147.1015625 338.5078125 147.1015625 338.5078125 144.625 340.125 C143.81289063 340.66382813 143.00078125 341.20265625 142.1640625 341.7578125 C140 343 140 343 138 343 C137.67 343.99 137.34 344.98 137 346 C135.37384204 347.06460701 133.69728406 348.05289674 132 349 C125.19925537 353.54557543 118.57926566 358.2442294 112.16796875 363.32421875 C109.05888553 365.72745605 105.8323487 367.94804974 102.6015625 370.18359375 C99.87444814 372.08766008 97.18512068 374.03721461 94.5 376 C90.82137009 378.67917285 87.14178213 381.35636844 83.4375 384 C82.22900391 384.86625 82.22900391 384.86625 80.99609375 385.75 C79 387 79 387 77 387 C77 387.66 77 388.32 77 389 C74.59181936 390.72689953 72.18432303 392.34861262 69.6875 393.9375 C68.31430389 394.81834568 66.94313564 395.70236236 65.57421875 396.58984375 C64.65515747 397.17560181 64.65515747 397.17560181 63.7175293 397.77319336 C61.94531669 399.03905951 60.52841283 400.45454363 59 402 C57.34192822 403.01418724 55.674222 404.01270144 54 405 C51.21430388 407.02123066 48.46652181 409.0877497 45.71875 411.16015625 C43.18579344 412.87426909 40.87586003 413.99449097 38 415 C38 415.66 38 416.32 38 417 C35.61351207 418.73050057 33.2288835 420.34982323 30.75 421.9375 C29.38997594 422.82061581 28.03058318 423.70470473 26.671875 424.58984375 C25.70616577 425.21669067 25.70616577 425.21669067 24.72094727 425.85620117 C22.7547898 427.16297486 20.88469524 428.57916545 19 430 C-0.46035767 442.43644938 -26.99917294 444.45522329 -49.1953125 439.88671875 C-69.63535921 434.83749797 -91.08848273 421.82934114 -103 404 C-103 403.34 -103 402.68 -103 402 C-103.66 402 -104.32 402 -105 402 C-105.41378906 401.16082031 -105.82757813 400.32164062 -106.25390625 399.45703125 C-107.43289755 397.12278673 -108.65028043 394.80759667 -109.90234375 392.51171875 C-122.30893811 369.45494889 -123.61498758 344.1406561 -117 319 C-114.06351944 309.9404886 -109.67641411 301.64470631 -104 294 C-103.34 293.01 -102.68 292.02 -102 291 C-101.34 291 -100.68 291 -100 291 C-99.9175 290.38125 -99.835 289.7625 -99.75 289.125 C-98.76174558 286.32494581 -97.59640015 286.25886068 -95 285 C-94.69964844 284.38769531 -94.39929688 283.77539062 -94.08984375 283.14453125 C-90.84143644 276.75250396 -83.02524236 272.50031841 -77.265625 268.578125 C-74.83210921 266.93023891 -74.83210921 266.93023891 -72.0625 264.5625 C-70 263 -70 263 -67 263 C-66.67 262.01 -66.34 261.02 -66 260 C-63.92578125 258.31640625 -63.92578125 258.31640625 -61.3125 256.5625 C-60.39984375 255.94375 -59.4871875 255.325 -58.546875 254.6875 C-56.7201024 253.47712306 -54.89179733 252.26905781 -53.0625 251.0625 C-49.17012559 248.44110499 -45.43425661 245.62433475 -41.68359375 242.8046875 C-39 241 -39 241 -36.22265625 239.9453125 C-35.48917969 239.63335937 -34.75570312 239.32140625 -34 239 C-33.67 238.01 -33.34 237.02 -33 236 C-31.35 235.67 -29.7 235.34 -28 235 C-27.67 234.01 -27.34 233.02 -27 232 C-24.92578125 230.31640625 -24.92578125 230.31640625 -22.3125 228.5625 C-20.96091797 227.64597656 -20.96091797 227.64597656 -19.58203125 226.7109375 C-17.55570881 225.36823065 -15.52873092 224.02656309 -13.5 222.6875 C-10.96474335 221.09172833 -10.96474335 221.09172833 -9 219 C-13.87358636 214.52120137 -18.90892265 210.54845825 -24.37109375 206.8125 C-27.07859881 204.94581003 -29.72735229 203.01299731 -32.375 201.0625 C-37.38152519 197.38818323 -42.52647397 194.00344354 -47.76171875 190.6640625 C-48.86966797 189.84035156 -48.86966797 189.84035156 -50 189 C-50 188.34 -50 187.68 -50 187 C-51.98 186.34 -53.96 185.68 -56 185 C-56 184.34 -56 183.68 -56 183 C-56.53625 182.7525 -57.0725 182.505 -57.625 182.25 C-63.48405128 179.1662888 -68.72884937 175.04966536 -74.05859375 171.1484375 C-76.00283466 169.72834122 -77.9532862 168.31670492 -79.91015625 166.9140625 C-82.62423506 164.96530165 -85.31694575 162.9911975 -88 161 C-88.61359375 160.5565625 -89.2271875 160.113125 -89.859375 159.65625 C-101.32006797 150.70599453 -110.20012249 136.52692753 -115 123 C-115.26683594 122.25363281 -115.53367187 121.50726563 -115.80859375 120.73828125 C-122.68756095 99.74495648 -124.27813809 73.20251591 -114.1875 52.9375 C-113.84589844 52.32648438 -113.50429688 51.71546875 -113.15234375 51.0859375 C-112.2653731 49.48037029 -111.4599285 47.8295764 -110.69140625 46.1640625 C-107.35454615 38.98393536 -103.45898583 33.68245309 -98 28 C-96.82751263 26.62996005 -95.66064654 25.25508541 -94.5 23.875 C-89.1076213 17.72278612 -83.31273342 12.72308873 -76 9 C-74.53820312 8.19755859 -74.53820312 8.19755859 -73.046875 7.37890625 C-50.21419683 -4.74117977 -24.77549355 -7.82836775 0 0 Z M-76 30 C-76.6496875 30.51949219 -77.299375 31.03898437 -77.96875 31.57421875 C-92.4543676 43.52485327 -102.03982551 61.28740645 -104 80 C-105.36177606 103.61499079 -99.27021146 123.07319693 -83.6875 141.125 C-76.22511353 149.17487754 -67.34648028 155.23636608 -58.39624023 161.49633789 C-53.06777757 165.2246687 -47.85781124 169.07550771 -42.671875 173 C-39.46374522 175.40140709 -36.19472958 177.70051579 -32.90234375 179.984375 C-29.04841444 182.66085888 -25.21089148 185.36025108 -21.375 188.0625 C-20.31792847 188.80463745 -20.31792847 188.80463745 -19.23950195 189.56176758 C-15.10177822 192.47725651 -11.03197276 195.46661282 -6.99169922 198.51538086 C-3.6666506 200.99388302 -0.27060392 203.36958482 3.125 205.75 C4.62255828 206.80445683 6.11995173 207.85914779 7.6171875 208.9140625 C8.35549805 209.43387695 9.09380859 209.95369141 9.85449219 210.48925781 C17.52428937 215.88988423 25.15943085 221.29912624 32.5625 227.0625 C38.28559217 231.51494174 44.19063969 235.65130689 50.17675781 239.74462891 C59.20965586 245.96412031 68.14392409 252.33502235 76.99609375 258.80859375 C81.77332795 262.29367618 86.5713838 265.74993461 91.36889648 269.20703125 C94.67405431 271.59028078 97.97761786 273.97421109 101.25 276.40234375 C120.78255669 290.8575455 140.59769335 297.08355204 164.86328125 294.60546875 C174.9195682 292.95950837 183.23947162 288.98339867 192 284 C192.85335938 283.52691406 193.70671875 283.05382812 194.5859375 282.56640625 C208.16060269 274.30889331 220.18714236 259.73419461 224.3828125 244.2734375 C225 242 225 242 226.0546875 239.1640625 C232.33712863 221.61655451 229.31099757 201.89577446 221.72265625 185.1875 C214.11007538 170.34191293 202.18777248 159.10423414 188.28125 150.1796875 C184.51021714 147.67464424 180.91540803 144.98863042 177.3125 142.25 C171.12754477 137.56008117 164.85337233 133.02599951 158.49731445 128.57128906 C153.29867273 124.92531938 148.14059218 121.22731759 143 117.5 C136.31618166 112.65488527 129.59560721 107.86602245 122.83203125 103.1328125 C118.80296836 100.30525942 114.84463072 97.40005937 110.91552734 94.43530273 C108.10157176 92.32680861 105.24202862 90.28542958 102.375 88.25 C101.78380371 87.82879883 101.19260742 87.40759766 100.58349609 86.97363281 C98.72299972 85.64814582 96.8616216 84.32390608 95 83 C92.54084365 81.25115262 90.08233831 79.50140117 87.625 77.75 C87.03106445 77.32678467 86.43712891 76.90356934 85.82519531 76.4675293 C82.8929278 74.37252091 79.986739 72.25273445 77.125 70.0625 C73.1810309 67.06610789 69.08828403 64.29387726 65 61.5 C60.29379189 58.28384189 55.63163613 55.04909545 51.10546875 51.58203125 C47.56844421 48.9243412 43.95017368 46.37907983 40.34545898 43.81445312 C36.69133663 41.21293253 33.05630187 38.58811365 29.4375 35.9375 C28.55449219 35.298125 27.67148437 34.65875 26.76171875 34 C24.81946136 32.59344302 22.88524915 31.17574263 20.95703125 29.75 C-8.24620791 8.69236592 -47.45047664 5.40847874 -76 30 Z M3.359375 231.4921875 C2.25867676 232.29499146 2.25867676 232.29499146 1.13574219 233.11401367 C-0.0452002 233.9857019 -0.0452002 233.9857019 -1.25 234.875 C-2.8956018 236.07713992 -4.5414375 237.27895973 -6.1875 238.48046875 C-7.00476563 239.07907715 -7.82203125 239.67768555 -8.6640625 240.29443359 C-11.84290301 242.61543901 -15.04343608 244.9050259 -18.25 247.1875 C-18.81178955 247.58831787 -19.3735791 247.98913574 -19.95239258 248.40209961 C-22.78291914 250.42157066 -25.61564797 252.43792842 -28.44921875 254.453125 C-35.16065104 259.23100992 -41.8246543 264.06630506 -48.45361328 268.95800781 C-52.52115128 271.94800319 -56.6425565 274.84255636 -60.8125 277.6875 C-66.42713452 281.54325024 -71.75981097 285.65232208 -77 290 C-77.97839844 290.77085937 -78.95679688 291.54171875 -79.96484375 292.3359375 C-83.16798392 295.0119143 -85.63368185 298.04276374 -88.125 301.375 C-88.54136719 301.91382813 -88.95773437 302.45265625 -89.38671875 303.0078125 C-101.59221745 319.07774809 -105.96819113 340.07266634 -104 360 C-103.07834532 364.52856272 -101.68190291 368.70180366 -100 373 C-99.62617188 374.02867187 -99.25234375 375.05734375 -98.8671875 376.1171875 C-91.53475085 395.20094646 -76.5524651 409.99192154 -58.2265625 418.64453125 C-40.78558371 425.97143154 -17.84287653 427.42660519 -0.02832031 420.20019531 C11.6596728 415.00985853 21.69605792 407.37563215 31.80761719 399.65869141 C34.93283515 397.29424477 38.11484043 395.01502779 41.3125 392.75 C41.87380615 392.35087402 42.4351123 391.95174805 43.01342773 391.54052734 C44.12460999 390.75059042 45.23617725 389.96119477 46.34814453 389.17236328 C49.15221368 387.18224504 51.95137577 385.18526508 54.75 383.1875 C55.31976562 382.78096191 55.88953125 382.37442383 56.4765625 381.95556641 C61.26937923 378.53155909 66.04126845 375.07899223 70.8125 371.625 C76.68134545 367.37761281 82.57424341 363.16760294 88.5 359 C96.62792476 353.282198 104.68666241 347.47175762 112.73388672 341.64111328 C115.73916782 339.46469661 118.74732875 337.29228299 121.75585938 335.12036133 C123.24318115 334.04645416 124.73016454 332.97207817 126.21679688 331.8972168 C130.14755226 329.05570168 134.08365245 326.2219777 138.02734375 323.3984375 C138.84912109 322.80869141 139.67089844 322.21894531 140.51757812 321.61132812 C142.09408448 320.48016255 143.67213564 319.3511459 145.25195312 318.22460938 C146.31639648 317.45987305 146.31639648 317.45987305 147.40234375 316.6796875 C148.02616943 316.23351074 148.64999512 315.78733398 149.29272461 315.32763672 C151.00607084 313.9952791 152.50075262 312.56670346 154 311 C152.69289063 310.92523438 151.38578125 310.85046875 150.0390625 310.7734375 C126.137211 309.12759599 108.05914903 300.90336865 89.05371094 286.53857422 C85.3838804 283.78925515 81.65877777 281.1165365 77.9375 278.4375 C77.17928955 277.89061523 76.4210791 277.34373047 75.63989258 276.78027344 C67.00364276 270.55377244 58.36354959 264.33245549 49.625 258.25 C46.79447013 256.27595732 44.00087845 254.27097123 41.25 252.1875 C36.49103765 248.58483172 31.62296503 245.13647213 26.7578125 241.6796875 C24.17873878 239.84601081 21.61288155 237.9955015 19.0546875 236.1328125 C18.41740723 235.67100586 17.78012695 235.20919922 17.12353516 234.73339844 C15.89396488 233.84190391 14.66697905 232.94683168 13.44287109 232.04785156 C8.97171459 228.81716439 7.78517209 228.23984769 3.359375 231.4921875 Z " fill="#1F1F1E" transform="translate(561,15)"/>
</svg>
