<svg width="565" height="72" viewBox="0 0 565 72" fill="none" xmlns="http://www.w3.org/2000/svg">
<g filter="url(#filter0_i_633_43)">
<path d="M427.859 0.955078C420.887 0.955078 414.072 3.02245 408.275 6.89577C402.478 10.7691 397.96 16.2744 395.292 22.7155C392.624 29.1566 391.926 36.2442 393.286 43.082C394.646 49.9198 398.004 56.2008 402.933 61.1306C407.863 66.0604 414.144 69.4176 420.982 70.7777C427.82 72.1379 434.907 71.4398 441.348 68.7718C447.79 66.1038 453.295 61.5858 457.168 55.7889C461.042 49.9921 463.109 43.1769 463.109 36.2051C463.099 26.8593 459.382 17.8993 452.773 11.2909C446.165 4.68247 437.205 0.965342 427.859 0.955078ZM427.859 68.1451C425.628 65.9984 419.751 59.5406 416.836 48.8951H438.882C435.966 59.5406 430.09 65.9984 427.859 68.1451ZM416.163 46.0751C414.837 39.5618 414.837 32.8483 416.163 26.3351H439.555C440.88 32.8483 440.88 39.5618 439.555 46.0751H416.163ZM427.859 4.26505C430.09 6.41178 435.966 12.8696 438.882 23.5151H416.836C419.751 12.8696 425.628 6.41178 427.859 4.26505ZM442.456 26.3351H458.752C460.801 32.7556 460.801 39.6546 458.752 46.0751H442.456C443.673 39.5513 443.673 32.8588 442.456 26.3351ZM457.702 23.5151H441.839C440.06 16.2613 436.526 9.5555 431.55 3.98658C437.243 4.64806 442.66 6.80267 447.253 10.2321C451.846 13.6615 455.45 18.244 457.702 23.5151ZM424.172 3.98658C419.195 9.5555 415.662 16.2613 413.882 23.5151H398.02C400.271 18.244 403.876 13.6615 408.468 10.2321C413.061 6.80267 418.478 4.64806 424.172 3.98658ZM396.966 26.3351H413.262C412.045 32.8588 412.045 39.5513 413.262 46.0751H396.966C394.917 39.6546 394.917 32.7556 396.966 26.3351ZM398.023 48.8951H413.886C415.665 56.1488 419.198 62.8546 424.175 68.4236C418.481 67.7633 413.062 65.6092 408.468 62.1797C403.874 58.7502 400.268 54.1671 398.016 48.8951H398.023ZM431.553 68.4236C436.527 62.8539 440.058 56.1481 441.836 48.8951H457.698C455.447 54.1662 451.842 58.7486 447.25 62.178C442.657 65.6075 437.24 67.7621 431.546 68.4236H431.553Z" fill="#19154A"/>
<path d="M476.507 12.7211H482.789C482.813 12.8771 482.837 13.0451 482.861 13.2251C482.885 13.3931 482.897 13.5731 482.897 13.7651C482.897 14.5331 482.777 15.2951 482.537 16.0511C482.297 16.8071 481.889 17.4791 481.313 18.0671C480.725 18.6791 480.035 19.1531 479.243 19.4891C478.451 19.8251 477.545 19.9931 476.525 19.9931C475.601 19.9931 474.725 19.8251 473.897 19.4891C473.081 19.1531 472.367 18.6851 471.755 18.0851C471.143 17.4851 470.657 16.7771 470.297 15.9611C469.949 15.1331 469.775 14.2331 469.775 13.2611C469.775 12.2891 469.949 11.3951 470.297 10.5791C470.657 9.75108 471.143 9.03708 471.755 8.43708C472.367 7.83708 473.081 7.36908 473.897 7.03308C474.725 6.69708 475.601 6.52908 476.525 6.52908C477.509 6.52908 478.415 6.70308 479.243 7.05108C480.083 7.39908 480.785 7.88508 481.349 8.50908L479.927 9.93108C479.507 9.46308 479.009 9.10308 478.433 8.85108C477.869 8.59908 477.227 8.47308 476.507 8.47308C475.895 8.47308 475.307 8.58708 474.743 8.81508C474.179 9.04308 473.681 9.36708 473.249 9.78708C472.817 10.1951 472.475 10.6931 472.223 11.2811C471.971 11.8691 471.845 12.5291 471.845 13.2611C471.845 13.9931 471.971 14.6531 472.223 15.2411C472.475 15.8291 472.817 16.3331 473.249 16.7531C473.681 17.1611 474.179 17.4791 474.743 17.7071C475.307 17.9351 475.901 18.0491 476.525 18.0491C477.353 18.0491 478.019 17.9231 478.523 17.6711C479.039 17.4191 479.471 17.1251 479.819 16.7891C480.071 16.5491 480.293 16.2371 480.485 15.8531C480.677 15.4571 480.803 15.0251 480.863 14.5571H476.507V12.7211ZM488.635 10.5971C489.307 10.5971 489.925 10.7171 490.489 10.9571C491.053 11.1851 491.539 11.5091 491.947 11.9291C492.355 12.3491 492.673 12.8471 492.901 13.4231C493.129 13.9991 493.243 14.6231 493.243 15.2951C493.243 15.9671 493.129 16.5911 492.901 17.1671C492.673 17.7431 492.355 18.2411 491.947 18.6611C491.539 19.0811 491.053 19.4111 490.489 19.6511C489.925 19.8791 489.307 19.9931 488.635 19.9931C487.963 19.9931 487.345 19.8791 486.781 19.6511C486.217 19.4111 485.731 19.0811 485.323 18.6611C484.915 18.2411 484.597 17.7431 484.369 17.1671C484.141 16.5911 484.027 15.9671 484.027 15.2951C484.027 14.6231 484.141 13.9991 484.369 13.4231C484.597 12.8471 484.915 12.3491 485.323 11.9291C485.731 11.5091 486.217 11.1851 486.781 10.9571C487.345 10.7171 487.963 10.5971 488.635 10.5971ZM488.635 18.1391C488.971 18.1391 489.295 18.0731 489.607 17.9411C489.919 17.8091 490.195 17.6231 490.435 17.3831C490.687 17.1431 490.885 16.8491 491.029 16.5011C491.173 16.1411 491.245 15.7391 491.245 15.2951C491.245 14.8511 491.173 14.4551 491.029 14.1071C490.885 13.7471 490.687 13.4471 490.435 13.2071C490.195 12.9671 489.919 12.7811 489.607 12.6491C489.295 12.5171 488.971 12.4511 488.635 12.4511C488.299 12.4511 487.975 12.5171 487.663 12.6491C487.351 12.7811 487.069 12.9671 486.817 13.2071C486.577 13.4471 486.385 13.7471 486.241 14.1071C486.097 14.4551 486.025 14.8511 486.025 15.2951C486.025 15.7391 486.097 16.1411 486.241 16.5011C486.385 16.8491 486.577 17.1431 486.817 17.3831C487.069 17.6231 487.351 17.8091 487.663 17.9411C487.975 18.0731 488.299 18.1391 488.635 18.1391ZM498.865 10.5971C499.537 10.5971 500.155 10.7171 500.719 10.9571C501.283 11.1851 501.769 11.5091 502.177 11.9291C502.585 12.3491 502.903 12.8471 503.131 13.4231C503.359 13.9991 503.473 14.6231 503.473 15.2951C503.473 15.9671 503.359 16.5911 503.131 17.1671C502.903 17.7431 502.585 18.2411 502.177 18.6611C501.769 19.0811 501.283 19.4111 500.719 19.6511C500.155 19.8791 499.537 19.9931 498.865 19.9931C498.193 19.9931 497.575 19.8791 497.011 19.6511C496.447 19.4111 495.961 19.0811 495.553 18.6611C495.145 18.2411 494.827 17.7431 494.599 17.1671C494.371 16.5911 494.257 15.9671 494.257 15.2951C494.257 14.6231 494.371 13.9991 494.599 13.4231C494.827 12.8471 495.145 12.3491 495.553 11.9291C495.961 11.5091 496.447 11.1851 497.011 10.9571C497.575 10.7171 498.193 10.5971 498.865 10.5971ZM498.865 18.1391C499.201 18.1391 499.525 18.0731 499.837 17.9411C500.149 17.8091 500.425 17.6231 500.665 17.3831C500.917 17.1431 501.115 16.8491 501.259 16.5011C501.403 16.1411 501.475 15.7391 501.475 15.2951C501.475 14.8511 501.403 14.4551 501.259 14.1071C501.115 13.7471 500.917 13.4471 500.665 13.2071C500.425 12.9671 500.149 12.7811 499.837 12.6491C499.525 12.5171 499.201 12.4511 498.865 12.4511C498.529 12.4511 498.205 12.5171 497.893 12.6491C497.581 12.7811 497.299 12.9671 497.047 13.2071C496.807 13.4471 496.615 13.7471 496.471 14.1071C496.327 14.4551 496.255 14.8511 496.255 15.2951C496.255 15.7391 496.327 16.1411 496.471 16.5011C496.615 16.8491 496.807 17.1431 497.047 17.3831C497.299 17.6231 497.581 17.8091 497.893 17.9411C498.205 18.0731 498.529 18.1391 498.865 18.1391ZM508.988 23.8811C508.376 23.8811 507.83 23.7971 507.35 23.6291C506.882 23.4731 506.474 23.2691 506.126 23.0171C505.778 22.7651 505.49 22.4831 505.262 22.1711C505.046 21.8591 504.884 21.5591 504.776 21.2711L506.684 20.4971C506.852 20.9651 507.14 21.3431 507.548 21.6311C507.956 21.9311 508.436 22.0811 508.988 22.0811C509.816 22.0811 510.458 21.8291 510.914 21.3251C511.382 20.8211 511.616 20.1251 511.616 19.2371V18.5171H511.508C511.232 18.9131 510.848 19.2431 510.356 19.5071C509.876 19.7711 509.312 19.9031 508.664 19.9031C508.124 19.9031 507.602 19.7891 507.098 19.5611C506.594 19.3331 506.144 19.0151 505.748 18.6071C505.364 18.1991 505.058 17.7071 504.83 17.1311C504.602 16.5551 504.488 15.9251 504.488 15.2411C504.488 14.5571 504.602 13.9331 504.83 13.3691C505.058 12.7931 505.364 12.3011 505.748 11.8931C506.144 11.4851 506.594 11.1671 507.098 10.9391C507.602 10.7111 508.124 10.5971 508.664 10.5971C509.312 10.5971 509.876 10.7291 510.356 10.9931C510.848 11.2571 511.232 11.5871 511.508 11.9831H511.616V10.8851H513.542V19.2011C513.542 19.9571 513.422 20.6231 513.182 21.1991C512.954 21.7871 512.636 22.2791 512.228 22.6751C511.832 23.0711 511.352 23.3711 510.788 23.5751C510.236 23.7791 509.636 23.8811 508.988 23.8811ZM509.06 18.0491C509.384 18.0491 509.702 17.9891 510.014 17.8691C510.326 17.7491 510.596 17.5691 510.824 17.3291C511.064 17.0891 511.256 16.7951 511.4 16.4471C511.544 16.0991 511.616 15.6971 511.616 15.2411C511.616 14.7971 511.544 14.4011 511.4 14.0531C511.256 13.6931 511.064 13.3991 510.824 13.1711C510.596 12.9311 510.326 12.7511 510.014 12.6311C509.702 12.4991 509.384 12.4331 509.06 12.4331C508.724 12.4331 508.4 12.4991 508.088 12.6311C507.788 12.7511 507.518 12.9311 507.278 13.1711C507.038 13.4111 506.846 13.7051 506.702 14.0531C506.558 14.4011 506.486 14.7971 506.486 15.2411C506.486 15.6851 506.558 16.0811 506.702 16.4291C506.846 16.7771 507.038 17.0711 507.278 17.3111C507.518 17.5511 507.788 17.7371 508.088 17.8691C508.4 17.9891 508.724 18.0491 509.06 18.0491ZM515.556 19.7051V6.81708H517.554V19.7051H515.556ZM527.648 17.5991C527.276 18.2831 526.748 18.8531 526.064 19.3091C525.38 19.7651 524.54 19.9931 523.544 19.9931C522.884 19.9931 522.272 19.8791 521.708 19.6511C521.156 19.4111 520.676 19.0811 520.268 18.6611C519.86 18.2411 519.542 17.7491 519.314 17.1851C519.086 16.6091 518.972 15.9791 518.972 15.2951C518.972 14.6591 519.08 14.0591 519.296 13.4951C519.512 12.9191 519.812 12.4211 520.196 12.0011C520.592 11.5691 521.066 11.2271 521.618 10.9751C522.17 10.7231 522.782 10.5971 523.454 10.5971C524.138 10.5971 524.744 10.7111 525.272 10.9391C525.812 11.1671 526.268 11.4851 526.64 11.8931C527.012 12.3011 527.294 12.7931 527.486 13.3691C527.69 13.9451 527.792 14.5751 527.792 15.2591C527.792 15.3191 527.792 15.3731 527.792 15.4211C527.78 15.4811 527.774 15.5351 527.774 15.5831C527.762 15.6311 527.756 15.6791 527.756 15.7271H520.97C521.006 16.1471 521.108 16.5131 521.276 16.8251C521.444 17.1371 521.648 17.3951 521.888 17.5991C522.14 17.8031 522.416 17.9531 522.716 18.0491C523.016 18.1451 523.31 18.1931 523.598 18.1931C524.174 18.1931 524.648 18.0551 525.02 17.7791C525.392 17.5031 525.698 17.1611 525.938 16.7531L527.648 17.5991ZM525.794 14.1971C525.77 14.0171 525.71 13.8191 525.614 13.6031C525.53 13.3751 525.392 13.1711 525.2 12.9911C525.02 12.7991 524.78 12.6371 524.48 12.5051C524.192 12.3731 523.838 12.3071 523.418 12.3071C522.842 12.3071 522.344 12.4811 521.924 12.8291C521.516 13.1651 521.24 13.6211 521.096 14.1971H525.794ZM470.405 29.8171H474.545C475.565 29.8171 476.477 29.9791 477.281 30.3031C478.097 30.6151 478.787 31.0531 479.351 31.6171C479.927 32.1811 480.365 32.8591 480.665 33.6511C480.977 34.4431 481.133 35.3131 481.133 36.2611C481.133 37.2091 480.977 38.0791 480.665 38.8711C480.365 39.6631 479.927 40.3411 479.351 40.9051C478.787 41.4691 478.097 41.9131 477.281 42.2371C476.477 42.5491 475.565 42.7051 474.545 42.7051H470.405V29.8171ZM474.509 40.7611C475.961 40.7611 477.083 40.3651 477.875 39.5731C478.667 38.7811 479.063 37.6771 479.063 36.2611C479.063 34.8571 478.667 33.7591 477.875 32.9671C477.083 32.1631 475.961 31.7611 474.509 31.7611H472.439V40.7611H474.509ZM490.717 40.5991C490.345 41.2831 489.817 41.8531 489.133 42.3091C488.449 42.7651 487.609 42.9931 486.613 42.9931C485.953 42.9931 485.341 42.8791 484.777 42.6511C484.225 42.4111 483.745 42.0811 483.337 41.6611C482.929 41.2411 482.611 40.7491 482.383 40.1851C482.155 39.6091 482.041 38.9791 482.041 38.2951C482.041 37.6591 482.149 37.0591 482.365 36.4951C482.581 35.9191 482.881 35.4211 483.265 35.0011C483.661 34.5691 484.135 34.2271 484.687 33.9751C485.239 33.7231 485.851 33.5971 486.523 33.5971C487.207 33.5971 487.813 33.7111 488.341 33.9391C488.881 34.1671 489.337 34.4851 489.709 34.8931C490.081 35.3011 490.363 35.7931 490.555 36.3691C490.759 36.9451 490.861 37.5751 490.861 38.2591C490.861 38.3191 490.861 38.3731 490.861 38.4211C490.849 38.4811 490.843 38.5351 490.843 38.5831C490.831 38.6311 490.825 38.6791 490.825 38.7271H484.039C484.075 39.1471 484.177 39.5131 484.345 39.8251C484.513 40.1371 484.717 40.3951 484.957 40.5991C485.209 40.8031 485.485 40.9531 485.785 41.0491C486.085 41.1451 486.379 41.1931 486.667 41.1931C487.243 41.1931 487.717 41.0551 488.089 40.7791C488.461 40.5031 488.767 40.1611 489.007 39.7531L490.717 40.5991ZM488.863 37.1971C488.839 37.0171 488.779 36.8191 488.683 36.6031C488.599 36.3751 488.461 36.1711 488.269 35.9911C488.089 35.7991 487.849 35.6371 487.549 35.5051C487.261 35.3731 486.907 35.3071 486.487 35.3071C485.911 35.3071 485.413 35.4811 484.993 35.8291C484.585 36.1651 484.309 36.6211 484.165 37.1971H488.863ZM491.259 33.8851H493.509L495.885 40.1131H495.975L498.405 33.8851H500.601L496.911 42.7051H494.913L491.259 33.8851ZM509.596 40.5991C509.224 41.2831 508.696 41.8531 508.012 42.3091C507.328 42.7651 506.488 42.9931 505.492 42.9931C504.832 42.9931 504.22 42.8791 503.656 42.6511C503.104 42.4111 502.624 42.0811 502.216 41.6611C501.808 41.2411 501.49 40.7491 501.262 40.1851C501.034 39.6091 500.92 38.9791 500.92 38.2951C500.92 37.6591 501.028 37.0591 501.244 36.4951C501.46 35.9191 501.76 35.4211 502.144 35.0011C502.54 34.5691 503.014 34.2271 503.566 33.9751C504.118 33.7231 504.73 33.5971 505.402 33.5971C506.086 33.5971 506.692 33.7111 507.22 33.9391C507.76 34.1671 508.216 34.4851 508.588 34.8931C508.96 35.3011 509.242 35.7931 509.434 36.3691C509.638 36.9451 509.74 37.5751 509.74 38.2591C509.74 38.3191 509.74 38.3731 509.74 38.4211C509.728 38.4811 509.722 38.5351 509.722 38.5831C509.71 38.6311 509.704 38.6791 509.704 38.7271H502.918C502.954 39.1471 503.056 39.5131 503.224 39.8251C503.392 40.1371 503.596 40.3951 503.836 40.5991C504.088 40.8031 504.364 40.9531 504.664 41.0491C504.964 41.1451 505.258 41.1931 505.546 41.1931C506.122 41.1931 506.596 41.0551 506.968 40.7791C507.34 40.5031 507.646 40.1611 507.886 39.7531L509.596 40.5991ZM507.742 37.1971C507.718 37.0171 507.658 36.8191 507.562 36.6031C507.478 36.3751 507.34 36.1711 507.148 35.9911C506.968 35.7991 506.728 35.6371 506.428 35.5051C506.14 35.3731 505.786 35.3071 505.366 35.3071C504.79 35.3071 504.292 35.4811 503.872 35.8291C503.464 36.1651 503.188 36.6211 503.044 37.1971H507.742ZM511.25 42.7051V29.8171H513.248V42.7051H511.25ZM519.274 33.5971C519.946 33.5971 520.564 33.7171 521.128 33.9571C521.692 34.1851 522.178 34.5091 522.586 34.9291C522.994 35.3491 523.312 35.8471 523.54 36.4231C523.768 36.9991 523.882 37.6231 523.882 38.2951C523.882 38.9671 523.768 39.5911 523.54 40.1671C523.312 40.7431 522.994 41.2411 522.586 41.6611C522.178 42.0811 521.692 42.4111 521.128 42.6511C520.564 42.8791 519.946 42.9931 519.274 42.9931C518.602 42.9931 517.984 42.8791 517.42 42.6511C516.856 42.4111 516.37 42.0811 515.962 41.6611C515.554 41.2411 515.236 40.7431 515.008 40.1671C514.78 39.5911 514.666 38.9671 514.666 38.2951C514.666 37.6231 514.78 36.9991 515.008 36.4231C515.236 35.8471 515.554 35.3491 515.962 34.9291C516.37 34.5091 516.856 34.1851 517.42 33.9571C517.984 33.7171 518.602 33.5971 519.274 33.5971ZM519.274 41.1391C519.61 41.1391 519.934 41.0731 520.246 40.9411C520.558 40.8091 520.834 40.6231 521.074 40.3831C521.326 40.1431 521.524 39.8491 521.668 39.5011C521.812 39.1411 521.884 38.7391 521.884 38.2951C521.884 37.8511 521.812 37.4551 521.668 37.1071C521.524 36.7471 521.326 36.4471 521.074 36.2071C520.834 35.9671 520.558 35.7811 520.246 35.6491C519.934 35.5171 519.61 35.4511 519.274 35.4511C518.938 35.4511 518.614 35.5171 518.302 35.6491C517.99 35.7811 517.708 35.9671 517.456 36.2071C517.216 36.4471 517.024 36.7471 516.88 37.1071C516.736 37.4551 516.664 37.8511 516.664 38.2951C516.664 38.7391 516.736 39.1411 516.88 39.5011C517.024 39.8491 517.216 40.1431 517.456 40.3831C517.708 40.6231 517.99 40.8091 518.302 40.9411C518.614 41.0731 518.938 41.1391 519.274 41.1391ZM525.24 33.8851H527.13V35.0191H527.238C527.478 34.6351 527.844 34.3051 528.336 34.0291C528.828 33.7411 529.416 33.5971 530.1 33.5971C530.664 33.5971 531.198 33.7171 531.702 33.9571C532.218 34.1851 532.668 34.5091 533.052 34.9291C533.436 35.3491 533.742 35.8471 533.97 36.4231C534.198 36.9871 534.312 37.6111 534.312 38.2951C534.312 38.9791 534.198 39.6091 533.97 40.1851C533.742 40.7491 533.436 41.2411 533.052 41.6611C532.668 42.0811 532.218 42.4111 531.702 42.6511C531.198 42.8791 530.664 42.9931 530.1 42.9931C529.416 42.9931 528.828 42.8551 528.336 42.5791C527.844 42.2911 527.478 41.9551 527.238 41.5711H527.13L527.238 42.7951V46.5931H525.24V33.8851ZM529.722 41.1391C530.058 41.1391 530.382 41.0731 530.694 40.9411C531.018 40.8091 531.294 40.6231 531.522 40.3831C531.762 40.1311 531.954 39.8311 532.098 39.4831C532.242 39.1351 532.314 38.7391 532.314 38.2951C532.314 37.8511 532.242 37.4551 532.098 37.1071C531.954 36.7591 531.762 36.4651 531.522 36.2251C531.294 35.9731 531.018 35.7811 530.694 35.6491C530.382 35.5171 530.058 35.4511 529.722 35.4511C529.374 35.4511 529.044 35.5171 528.732 35.6491C528.42 35.7811 528.144 35.9671 527.904 36.2071C527.676 36.4471 527.49 36.7471 527.346 37.1071C527.202 37.4551 527.13 37.8511 527.13 38.2951C527.13 38.7391 527.202 39.1411 527.346 39.5011C527.49 39.8491 527.676 40.1431 527.904 40.3831C528.144 40.6231 528.42 40.8091 528.732 40.9411C529.044 41.0731 529.374 41.1391 529.722 41.1391ZM543.996 40.5991C543.624 41.2831 543.096 41.8531 542.412 42.3091C541.728 42.7651 540.888 42.9931 539.892 42.9931C539.232 42.9931 538.62 42.8791 538.056 42.6511C537.504 42.4111 537.024 42.0811 536.616 41.6611C536.208 41.2411 535.89 40.7491 535.662 40.1851C535.434 39.6091 535.32 38.9791 535.32 38.2951C535.32 37.6591 535.428 37.0591 535.644 36.4951C535.86 35.9191 536.16 35.4211 536.544 35.0011C536.94 34.5691 537.414 34.2271 537.966 33.9751C538.518 33.7231 539.13 33.5971 539.802 33.5971C540.486 33.5971 541.092 33.7111 541.62 33.9391C542.16 34.1671 542.616 34.4851 542.988 34.8931C543.36 35.3011 543.642 35.7931 543.834 36.3691C544.038 36.9451 544.14 37.5751 544.14 38.2591C544.14 38.3191 544.14 38.3731 544.14 38.4211C544.128 38.4811 544.122 38.5351 544.122 38.5831C544.11 38.6311 544.104 38.6791 544.104 38.7271H537.318C537.354 39.1471 537.456 39.5131 537.624 39.8251C537.792 40.1371 537.996 40.3951 538.236 40.5991C538.488 40.8031 538.764 40.9531 539.064 41.0491C539.364 41.1451 539.658 41.1931 539.946 41.1931C540.522 41.1931 540.996 41.0551 541.368 40.7791C541.74 40.5031 542.046 40.1611 542.286 39.7531L543.996 40.5991ZM542.142 37.1971C542.118 37.0171 542.058 36.8191 541.962 36.6031C541.878 36.3751 541.74 36.1711 541.548 35.9911C541.368 35.7991 541.128 35.6371 540.828 35.5051C540.54 35.3731 540.186 35.3071 539.766 35.3071C539.19 35.3071 538.692 35.4811 538.272 35.8291C537.864 36.1651 537.588 36.6211 537.444 37.1971H542.142ZM545.65 33.8851H547.54V35.2171H547.648C547.756 34.9891 547.9 34.7791 548.08 34.5871C548.272 34.3831 548.482 34.2151 548.71 34.0831C548.95 33.9391 549.196 33.8311 549.448 33.7591C549.712 33.6751 549.964 33.6331 550.204 33.6331C550.492 33.6331 550.738 33.6571 550.942 33.7051C551.146 33.7531 551.332 33.8191 551.5 33.9031L550.924 35.7571C550.792 35.6971 550.642 35.6551 550.474 35.6311C550.318 35.5951 550.126 35.5771 549.898 35.5771C549.574 35.5771 549.274 35.6431 548.998 35.7751C548.734 35.9071 548.5 36.0871 548.296 36.3151C548.092 36.5431 547.93 36.8131 547.81 37.1251C547.702 37.4371 547.648 37.7671 547.648 38.1151V42.7051H545.65V33.8851ZM555.572 42.9931C555.032 42.9931 554.546 42.9211 554.114 42.7771C553.682 42.6331 553.304 42.4471 552.98 42.2191C552.656 41.9791 552.38 41.7091 552.152 41.4091C551.936 41.1091 551.768 40.7971 551.648 40.4731L553.448 39.7171C553.652 40.2331 553.946 40.6171 554.33 40.8691C554.714 41.1091 555.128 41.2291 555.572 41.2291C556.076 41.2291 556.472 41.1271 556.76 40.9231C557.048 40.7191 557.192 40.4911 557.192 40.2391C557.192 39.9871 557.084 39.7711 556.868 39.5911C556.652 39.3991 556.244 39.2311 555.644 39.0871L554.384 38.7811C554.108 38.7211 553.826 38.6311 553.538 38.5111C553.262 38.3791 553.004 38.2171 552.764 38.0251C552.524 37.8211 552.326 37.5811 552.17 37.3051C552.026 37.0171 551.954 36.6811 551.954 36.2971C551.954 35.8651 552.044 35.4811 552.224 35.1451C552.416 34.8091 552.674 34.5271 552.998 34.2991C553.322 34.0711 553.694 33.8971 554.114 33.7771C554.546 33.6571 555.002 33.5971 555.482 33.5971C555.878 33.5971 556.256 33.6391 556.616 33.7231C556.988 33.8071 557.33 33.9331 557.642 34.1011C557.954 34.2691 558.23 34.4851 558.47 34.7491C558.722 35.0011 558.92 35.3011 559.064 35.6491L557.3 36.3871C557.132 36.0031 556.868 35.7271 556.508 35.5591C556.148 35.3791 555.782 35.2891 555.41 35.2891C555.242 35.2891 555.068 35.3131 554.888 35.3611C554.72 35.3971 554.564 35.4571 554.42 35.5411C554.288 35.6131 554.174 35.7091 554.078 35.8291C553.994 35.9491 553.952 36.0811 553.952 36.2251C553.952 36.4651 554.054 36.6571 554.258 36.8011C554.474 36.9331 554.798 37.0531 555.23 37.1611L556.58 37.5031C557.492 37.7311 558.158 38.0791 558.578 38.5471C559.01 39.0031 559.226 39.5431 559.226 40.1671C559.226 40.5511 559.136 40.9111 558.956 41.2471C558.788 41.5831 558.542 41.8831 558.218 42.1471C557.894 42.4111 557.504 42.6151 557.048 42.7591C556.604 42.9151 556.112 42.9931 555.572 42.9931ZM476.507 58.7211H482.789C482.813 58.8771 482.837 59.0451 482.861 59.2251C482.885 59.3931 482.897 59.5731 482.897 59.7651C482.897 60.5331 482.777 61.2951 482.537 62.0511C482.297 62.8071 481.889 63.4791 481.313 64.0671C480.725 64.6791 480.035 65.1531 479.243 65.4891C478.451 65.8251 477.545 65.9931 476.525 65.9931C475.601 65.9931 474.725 65.8251 473.897 65.4891C473.081 65.1531 472.367 64.6851 471.755 64.0851C471.143 63.4851 470.657 62.7771 470.297 61.9611C469.949 61.1331 469.775 60.2331 469.775 59.2611C469.775 58.2891 469.949 57.3951 470.297 56.5791C470.657 55.7511 471.143 55.0371 471.755 54.4371C472.367 53.8371 473.081 53.3691 473.897 53.0331C474.725 52.6971 475.601 52.5291 476.525 52.5291C477.509 52.5291 478.415 52.7031 479.243 53.0511C480.083 53.3991 480.785 53.8851 481.349 54.5091L479.927 55.9311C479.507 55.4631 479.009 55.1031 478.433 54.8511C477.869 54.5991 477.227 54.4731 476.507 54.4731C475.895 54.4731 475.307 54.5871 474.743 54.8151C474.179 55.0431 473.681 55.3671 473.249 55.7871C472.817 56.1951 472.475 56.6931 472.223 57.2811C471.971 57.8691 471.845 58.5291 471.845 59.2611C471.845 59.9931 471.971 60.6531 472.223 61.2411C472.475 61.8291 472.817 62.3331 473.249 62.7531C473.681 63.1611 474.179 63.4791 474.743 63.7071C475.307 63.9351 475.901 64.0491 476.525 64.0491C477.353 64.0491 478.019 63.9231 478.523 63.6711C479.039 63.4191 479.471 63.1251 479.819 62.7891C480.071 62.5491 480.293 62.2371 480.485 61.8531C480.677 61.4571 480.803 61.0251 480.863 60.5571H476.507V58.7211ZM484.267 56.8851H486.157V58.2171H486.265C486.373 57.9891 486.517 57.7791 486.697 57.5871C486.889 57.3831 487.099 57.2151 487.327 57.0831C487.567 56.9391 487.813 56.8311 488.065 56.7591C488.329 56.6751 488.581 56.6331 488.821 56.6331C489.109 56.6331 489.355 56.6571 489.559 56.7051C489.763 56.7531 489.949 56.8191 490.117 56.9031L489.541 58.7571C489.409 58.6971 489.259 58.6551 489.091 58.6311C488.935 58.5951 488.743 58.5771 488.515 58.5771C488.191 58.5771 487.891 58.6431 487.615 58.7751C487.351 58.9071 487.117 59.0871 486.913 59.3151C486.709 59.5431 486.547 59.8131 486.427 60.1251C486.319 60.4371 486.265 60.7671 486.265 61.1151V65.7051H484.267V56.8851ZM494.752 56.5971C495.424 56.5971 496.042 56.7171 496.606 56.9571C497.17 57.1851 497.656 57.5091 498.064 57.9291C498.472 58.3491 498.79 58.8471 499.018 59.4231C499.246 59.9991 499.36 60.6231 499.36 61.2951C499.36 61.9671 499.246 62.5911 499.018 63.1671C498.79 63.7431 498.472 64.2411 498.064 64.6611C497.656 65.0811 497.17 65.4111 496.606 65.6511C496.042 65.8791 495.424 65.9931 494.752 65.9931C494.08 65.9931 493.462 65.8791 492.898 65.6511C492.334 65.4111 491.848 65.0811 491.44 64.6611C491.032 64.2411 490.714 63.7431 490.486 63.1671C490.258 62.5911 490.144 61.9671 490.144 61.2951C490.144 60.6231 490.258 59.9991 490.486 59.4231C490.714 58.8471 491.032 58.3491 491.44 57.9291C491.848 57.5091 492.334 57.1851 492.898 56.9571C493.462 56.7171 494.08 56.5971 494.752 56.5971ZM494.752 64.1391C495.088 64.1391 495.412 64.0731 495.724 63.9411C496.036 63.8091 496.312 63.6231 496.552 63.3831C496.804 63.1431 497.002 62.8491 497.146 62.5011C497.29 62.1411 497.362 61.7391 497.362 61.2951C497.362 60.8511 497.29 60.4551 497.146 60.1071C497.002 59.7471 496.804 59.4471 496.552 59.2071C496.312 58.9671 496.036 58.7811 495.724 58.6491C495.412 58.5171 495.088 58.4511 494.752 58.4511C494.416 58.4511 494.092 58.5171 493.78 58.6491C493.468 58.7811 493.186 58.9671 492.934 59.2071C492.694 59.4471 492.502 59.7471 492.358 60.1071C492.214 60.4551 492.142 60.8511 492.142 61.2951C492.142 61.7391 492.214 62.1411 492.358 62.5011C492.502 62.8491 492.694 63.1431 492.934 63.3831C493.186 63.6231 493.468 63.8091 493.78 63.9411C494.092 64.0731 494.416 64.1391 494.752 64.1391ZM506.929 64.5171H506.821C506.557 64.9371 506.179 65.2911 505.687 65.5791C505.207 65.8551 504.661 65.9931 504.049 65.9931C502.933 65.9931 502.099 65.6631 501.547 65.0031C500.995 64.3311 500.719 63.4431 500.719 62.3391V56.8851H502.717V62.0691C502.717 62.8371 502.891 63.3771 503.239 63.6891C503.599 63.9891 504.067 64.1391 504.643 64.1391C504.979 64.1391 505.279 64.0671 505.543 63.9231C505.819 63.7791 506.053 63.5871 506.245 63.3471C506.437 63.0951 506.581 62.8131 506.677 62.5011C506.773 62.1771 506.821 61.8411 506.821 61.4931V56.8851H508.819V65.7051H506.929V64.5171ZM510.756 56.8851H512.646V58.0191H512.754C512.994 57.6351 513.36 57.3051 513.852 57.0291C514.344 56.7411 514.932 56.5971 515.616 56.5971C516.18 56.5971 516.714 56.7171 517.218 56.9571C517.734 57.1851 518.184 57.5091 518.568 57.9291C518.952 58.3491 519.258 58.8471 519.486 59.4231C519.714 59.9871 519.828 60.6111 519.828 61.2951C519.828 61.9791 519.714 62.6091 519.486 63.1851C519.258 63.7491 518.952 64.2411 518.568 64.6611C518.184 65.0811 517.734 65.4111 517.218 65.6511C516.714 65.8791 516.18 65.9931 515.616 65.9931C514.932 65.9931 514.344 65.8551 513.852 65.5791C513.36 65.2911 512.994 64.9551 512.754 64.5711H512.646L512.754 65.7951V69.5931H510.756V56.8851ZM515.238 64.1391C515.574 64.1391 515.898 64.0731 516.21 63.9411C516.534 63.8091 516.81 63.6231 517.038 63.3831C517.278 63.1311 517.47 62.8311 517.614 62.4831C517.758 62.1351 517.83 61.7391 517.83 61.2951C517.83 60.8511 517.758 60.4551 517.614 60.1071C517.47 59.7591 517.278 59.4651 517.038 59.2251C516.81 58.9731 516.534 58.7811 516.21 58.6491C515.898 58.5171 515.574 58.4511 515.238 58.4511C514.89 58.4511 514.56 58.5171 514.248 58.6491C513.936 58.7811 513.66 58.9671 513.42 59.2071C513.192 59.4471 513.006 59.7471 512.862 60.1071C512.718 60.4551 512.646 60.8511 512.646 61.2951C512.646 61.7391 512.718 62.1411 512.862 62.5011C513.006 62.8491 513.192 63.1431 513.42 63.3831C513.66 63.6231 513.936 63.8091 514.248 63.9411C514.56 64.0731 514.89 64.1391 515.238 64.1391ZM525.583 52.8171H527.617V65.7051H525.583V52.8171ZM531.808 58.0731H531.916C532.18 57.6531 532.552 57.3051 533.032 57.0291C533.524 56.7411 534.076 56.5971 534.688 56.5971C535.804 56.5971 536.638 56.9331 537.19 57.6051C537.742 58.2651 538.018 59.1471 538.018 60.2511V65.7051H536.02V60.5211C536.02 59.7531 535.84 59.2191 535.48 58.9191C535.132 58.6071 534.67 58.4511 534.094 58.4511C533.746 58.4511 533.44 58.5231 533.176 58.6671C532.912 58.8111 532.684 59.0091 532.492 59.2611C532.3 59.5011 532.156 59.7831 532.06 60.1071C531.964 60.4191 531.916 60.7491 531.916 61.0971V65.7051H529.918V56.8851H531.808V58.0731ZM546.633 64.5711H546.525C546.285 64.9551 545.919 65.2911 545.427 65.5791C544.935 65.8551 544.347 65.9931 543.663 65.9931C543.099 65.9931 542.559 65.8791 542.043 65.6511C541.539 65.4111 541.095 65.0811 540.711 64.6611C540.327 64.2411 540.021 63.7491 539.793 63.1851C539.565 62.6091 539.451 61.9791 539.451 61.2951C539.451 60.6111 539.565 59.9871 539.793 59.4231C540.021 58.8471 540.327 58.3491 540.711 57.9291C541.095 57.5091 541.539 57.1851 542.043 56.9571C542.559 56.7171 543.099 56.5971 543.663 56.5971C544.347 56.5971 544.935 56.7411 545.427 57.0291C545.919 57.3051 546.285 57.6351 546.525 58.0191H546.633L546.525 56.7951V52.8171H548.523V65.7051H546.633V64.5711ZM544.041 64.1391C544.377 64.1391 544.701 64.0731 545.013 63.9411C545.337 63.8091 545.613 63.6231 545.841 63.3831C546.081 63.1431 546.273 62.8491 546.417 62.5011C546.561 62.1411 546.633 61.7391 546.633 61.2951C546.633 60.8511 546.561 60.4551 546.417 60.1071C546.273 59.7471 546.081 59.4471 545.841 59.2071C545.613 58.9671 545.337 58.7811 545.013 58.6491C544.701 58.5171 544.377 58.4511 544.041 58.4511C543.693 58.4511 543.363 58.5171 543.051 58.6491C542.739 58.7811 542.463 58.9731 542.223 59.2251C541.995 59.4651 541.809 59.7591 541.665 60.1071C541.521 60.4551 541.449 60.8511 541.449 61.2951C541.449 61.7391 541.521 62.1351 541.665 62.4831C541.809 62.8311 541.995 63.1311 542.223 63.3831C542.463 63.6231 542.739 63.8091 543.051 63.9411C543.363 64.0731 543.693 64.1391 544.041 64.1391ZM551.689 55.3191C551.305 55.3191 550.981 55.1871 550.717 54.9231C550.465 54.6591 550.339 54.3411 550.339 53.9691C550.339 53.5971 550.465 53.2791 550.717 53.0151C550.981 52.7511 551.305 52.6191 551.689 52.6191C552.061 52.6191 552.373 52.7511 552.625 53.0151C552.889 53.2791 553.021 53.5971 553.021 53.9691C553.021 54.3411 552.889 54.6591 552.625 54.9231C552.373 55.1871 552.061 55.3191 551.689 55.3191ZM550.681 65.7051V56.8851H552.679V65.7051H550.681ZM560.336 64.6251H560.228C559.964 64.9731 559.622 65.2911 559.202 65.5791C558.782 65.8551 558.248 65.9931 557.6 65.9931C557.132 65.9931 556.694 65.9151 556.286 65.7591C555.878 65.6151 555.524 65.4111 555.224 65.1471C554.924 64.8711 554.684 64.5531 554.504 64.1931C554.336 63.8211 554.252 63.4131 554.252 62.9691C554.252 62.5011 554.342 62.0811 554.522 61.7091C554.714 61.3371 554.972 61.0251 555.296 60.7731C555.632 60.5211 556.028 60.3291 556.484 60.1971C556.94 60.0531 557.432 59.9811 557.96 59.9811C558.548 59.9811 559.04 60.0411 559.436 60.1611C559.832 60.2691 560.132 60.3711 560.336 60.4671V60.1251C560.336 59.8611 560.276 59.6151 560.156 59.3871C560.048 59.1591 559.892 58.9671 559.688 58.8111C559.496 58.6431 559.274 58.5171 559.022 58.4331C558.77 58.3371 558.506 58.2891 558.23 58.2891C557.786 58.2891 557.384 58.3791 557.024 58.5591C556.676 58.7271 556.364 59.0031 556.088 59.3871L554.504 58.3431C554.924 57.7671 555.446 57.3351 556.07 57.0471C556.694 56.7471 557.402 56.5971 558.194 56.5971C559.502 56.5971 560.51 56.9211 561.218 57.5691C561.938 58.2171 562.298 59.1411 562.298 60.3411V65.7051H560.336V64.6251ZM560.336 62.0331C560.072 61.8771 559.778 61.7511 559.454 61.6551C559.13 61.5591 558.758 61.5111 558.338 61.5111C557.714 61.5111 557.216 61.6551 556.844 61.9431C556.472 62.2311 556.286 62.5791 556.286 62.9871C556.286 63.2031 556.334 63.3951 556.43 63.5631C556.526 63.7191 556.646 63.8571 556.79 63.9771C556.946 64.0971 557.12 64.1871 557.312 64.2471C557.516 64.3071 557.72 64.3371 557.924 64.3371C558.248 64.3371 558.554 64.2771 558.842 64.1571C559.142 64.0251 559.4 63.8571 559.616 63.6531C559.832 63.4371 560.006 63.1911 560.138 62.9151C560.27 62.6391 560.336 62.3451 560.336 62.0331Z" fill="#19154A"/>
<path d="M323.505 19.7051C323.505 21.7212 325.497 24.7317 327.513 27.2586C330.105 30.5191 333.202 33.3639 336.754 35.5349C339.416 37.1624 342.644 38.7247 345.242 38.7247M345.242 38.7247C342.644 38.7247 339.414 40.287 336.754 41.9146C333.202 44.0883 330.105 46.9331 327.513 50.1881C325.497 52.7177 323.505 55.7337 323.505 57.7444M345.242 38.7247L0.200164 38.7247" stroke="#19154A" stroke-width="1.8513"/>
</g>
<defs>
<filter id="filter0_i_633_43" x="0.200195" y="0.955078" width="563.909" height="74.5" filterUnits="userSpaceOnUse" color-interpolation-filters="sRGB">
<feFlood flood-opacity="0" result="BackgroundImageFix"/>
<feBlend mode="normal" in="SourceGraphic" in2="BackgroundImageFix" result="shape"/>
<feColorMatrix in="SourceAlpha" type="matrix" values="0 0 0 0 0 0 0 0 0 0 0 0 0 0 0 0 0 0 127 0" result="hardAlpha"/>
<feOffset dy="4"/>
<feGaussianBlur stdDeviation="2"/>
<feComposite in2="hardAlpha" operator="arithmetic" k2="-1" k3="1"/>
<feColorMatrix type="matrix" values="0 0 0 0 0 0 0 0 0 0 0 0 0 0 0 0 0 0 0.25 0"/>
<feBlend mode="normal" in2="shape" result="effect1_innerShadow_633_43"/>
</filter>
</defs>
</svg>
