<svg width="132" height="424" viewBox="0 0 132 424" fill="none" xmlns="http://www.w3.org/2000/svg">
<path d="M76.5036 422.044H130.903V371.377C130.624 371.399 130.297 371.422 129.926 371.446C128.61 371.529 126.733 371.613 124.483 371.613C119.989 371.613 113.975 371.28 107.943 369.94C101.922 368.602 95.8021 366.242 91.173 362.127C86.5086 357.981 83.4178 352.103 83.4178 343.902C83.4178 332.343 84.6632 326.333 86.5306 317.322C86.5983 316.996 86.6668 316.665 86.7361 316.33C88.7092 306.793 91.3411 293.638 93.9749 267.299L93.9762 267.288C96.5541 244.087 81.099 225.924 65.3112 212.768L64.3894 212L65.3112 211.231C81.1501 198.032 96.5505 182.518 93.9761 159.349L93.975 159.338C91.3411 132.999 88.7092 119.844 86.7361 110.307C86.6668 109.972 86.5983 109.642 86.5306 109.315C84.6632 100.304 83.4178 94.2946 83.4178 82.7348C83.4178 74.5359 86.5061 68.5051 91.1507 64.1185C95.7658 59.7598 101.873 57.0628 107.893 55.3907C113.921 53.7163 119.933 53.0499 124.428 52.8002C126.678 52.6752 128.554 52.6543 129.87 52.6647C130.267 52.6679 130.613 52.6739 130.903 52.6807V1.95508H76.5036C62.3143 1.95508 48.7782 8.39556 39.7371 21.6342C30.6858 34.888 26.0758 55.0574 30.0078 82.5882C31.7725 94.0577 33.5453 102.593 35.121 110.18C38.2293 125.146 40.5708 136.42 40.5708 159.238C40.5708 164.829 37.9538 170.155 34.1728 174.945C30.3858 179.741 25.3613 184.089 20.3768 187.744C15.3866 191.404 10.4022 194.394 6.66859 196.468C4.80067 197.506 3.24312 198.316 2.15092 198.867C1.67465 199.108 1.28673 199.299 1 199.439V224.561C1.28673 224.7 1.67465 224.891 2.15092 225.132C3.24312 225.683 4.80067 226.493 6.66859 227.531C10.4022 229.605 15.3866 232.595 20.3768 236.255C25.3613 239.91 30.3858 244.258 34.1728 249.055C37.9538 253.844 40.5708 259.17 40.5708 264.761C40.5708 287.579 38.2293 298.853 35.121 313.819C33.5453 321.406 31.7725 329.942 30.0078 341.411C26.0792 368.919 31.3356 389.088 40.717 402.351C50.1007 415.618 63.6518 422.044 76.5036 422.044Z" fill="#FFE7A5" stroke="#19154A" stroke-width="2"/>
</svg>
