<svg width="132" height="424" viewBox="0 0 132 424" fill="none" xmlns="http://www.w3.org/2000/svg">
<path d="M55.4964 422.044H1.09717V371.377C1.37553 371.399 1.70259 371.422 2.07418 371.446C3.39027 371.529 5.26654 371.613 7.5167 371.613C12.011 371.613 18.0252 371.28 24.0566 369.94C30.0776 368.602 36.1979 366.242 40.827 362.127C45.4914 357.981 48.5822 352.103 48.5822 343.902C48.5822 332.343 47.3368 326.333 45.4694 317.322C45.4017 316.996 45.3332 316.665 45.2639 316.33C43.2908 306.793 40.6589 293.638 38.0251 267.299L38.0238 267.288C35.4459 244.087 50.901 225.924 66.6888 212.768L67.6106 212L66.6888 211.231C50.8499 198.032 35.4495 182.518 38.0239 159.349L38.025 159.338C40.6589 132.999 43.2908 119.844 45.2639 110.307C45.3332 109.972 45.4017 109.642 45.4694 109.315C47.3368 100.304 48.5822 94.2946 48.5822 82.7348C48.5822 74.5359 45.4939 68.5051 40.8493 64.1185C36.2342 59.7598 30.1266 57.0628 24.1073 55.3908C18.0792 53.7163 12.0668 53.0499 7.57217 52.8002C5.3221 52.6752 3.44582 52.6543 2.1296 52.6647C1.73308 52.6679 1.38724 52.6739 1.09717 52.6807V1.95508H55.4964C69.6857 1.95508 83.2218 8.39556 92.2629 21.6342C101.314 34.888 105.924 55.0574 101.992 82.5882C100.227 94.0577 98.4547 102.593 96.879 110.18C93.7707 125.146 91.4292 136.42 91.4292 159.238C91.4292 164.829 94.0462 170.155 97.8272 174.944C101.614 179.741 106.639 184.089 111.623 187.744C116.613 191.404 121.598 194.394 125.331 196.468C127.199 197.506 128.757 198.316 129.849 198.867C130.325 199.108 130.713 199.299 131 199.439V224.561C130.713 224.7 130.325 224.891 129.849 225.132C128.757 225.683 127.199 226.493 125.331 227.531C121.598 229.605 116.613 232.595 111.623 236.255C106.639 239.91 101.614 244.258 97.8272 249.055C94.0462 253.844 91.4292 259.17 91.4292 264.761C91.4292 287.579 93.7707 298.853 96.879 313.819C98.4547 321.406 100.228 329.942 101.992 341.411C105.921 368.919 100.664 389.088 91.283 402.351C81.8993 415.618 68.3482 422.044 55.4964 422.044Z" fill="#FFE7A5" stroke="#19154A" stroke-width="2"/>
</svg>
