<svg width="16" height="17" viewBox="0 0 16 17" fill="none" xmlns="http://www.w3.org/2000/svg">
<g clip-path="url(#clip0_1_4347)">
<path d="M0.00292969 12.5001C0.00292969 12.9716 0.190231 13.4237 0.523629 13.7571C0.857027 14.0905 1.30921 14.2778 1.78071 14.2778H14.2252C14.6966 14.2778 15.1488 14.0905 15.4822 13.7571C15.8156 13.4237 16.0029 12.9716 16.0029 12.5001V10.2778H0.00292969V12.5001Z" fill="#138808"/>
<path d="M16.0029 6.72217V4.49995C16.0029 4.02845 15.8156 3.57626 15.4822 3.24287C15.1488 2.90947 14.6966 2.72217 14.2252 2.72217H1.78071C1.30921 2.72217 0.857027 2.90947 0.523629 3.24287C0.190231 3.57626 0.00292969 4.02845 0.00292969 4.49995L0.00292969 6.72217H16.0029Z" fill="#FF9933"/>
<path d="M0.00292969 6.57422H16.0029V10.4262H0.00292969V6.57422Z" fill="#F7F7F7"/>
<path d="M8.00288 10.2777C8.98471 10.2777 9.78065 9.48179 9.78065 8.49995C9.78065 7.51811 8.98471 6.72217 8.00288 6.72217C7.02104 6.72217 6.2251 7.51811 6.2251 8.49995C6.2251 9.48179 7.02104 10.2777 8.00288 10.2777Z" fill="#000080"/>
<path d="M8.00293 10C8.83136 10 9.50293 9.32843 9.50293 8.5C9.50293 7.67157 8.83136 7 8.00293 7C7.1745 7 6.50293 7.67157 6.50293 8.5C6.50293 9.32843 7.1745 10 8.00293 10Z" fill="#F7F7F7"/>
<path d="M8.04723 7.9443L8.00279 8.23319L7.95834 7.9443L8.00279 7.07764L8.04723 7.9443ZM7.63479 7.12608L7.81612 7.97453L7.9339 8.24208L7.9019 7.95186L7.63479 7.12608ZM7.29168 7.2683L7.68634 8.04075L7.86946 8.26875L7.76368 7.9963L7.29168 7.2683ZM6.99701 7.49408L7.57834 8.13853L7.81434 8.31141L7.64146 8.07541L6.99701 7.49408ZM6.77123 7.78875L7.49923 8.26075L7.77168 8.36653L7.54368 8.18341L6.77123 7.78875ZM6.62901 8.13186L7.45479 8.39897L7.74501 8.43097L7.47746 8.31319L6.62901 8.13186ZM6.58057 8.49986L7.44723 8.5443L7.73612 8.49986L7.44723 8.45541L6.58057 8.49986ZM6.62901 8.86786L7.47746 8.68653L7.74501 8.56875L7.45479 8.60075L6.62901 8.86786ZM6.77123 9.21097L7.54368 8.8163L7.77168 8.63319L7.49923 8.73897L6.77123 9.21097ZM6.99701 9.50564L7.64146 8.9243L7.81434 8.6883L7.57834 8.86119L6.99701 9.50564ZM7.29168 9.73141L7.76368 9.00341L7.86946 8.73097L7.68634 8.95897L7.29168 9.73141ZM7.63479 9.87364L7.9019 9.04786L7.9339 8.75764L7.81612 9.02519L7.63479 9.87364ZM8.00279 9.92208L8.04723 9.05541L8.00279 8.76653L7.95834 9.05541L8.00279 9.92208ZM8.37079 9.87364L8.18946 9.02519L8.07168 8.75764L8.10368 9.04786L8.37079 9.87364ZM8.7139 9.73141L8.31923 8.95897L8.13612 8.73097L8.2419 9.00341L8.7139 9.73141ZM9.00857 9.50564L8.42723 8.86119L8.19123 8.6883L8.36412 8.9243L9.00857 9.50564ZM9.23434 9.21097L8.50634 8.73897L8.2339 8.63319L8.4619 8.8163L9.23434 9.21097ZM9.37657 8.86786L8.55079 8.60075L8.26057 8.56875L8.52812 8.68653L9.37657 8.86786ZM9.42501 8.49986L8.55834 8.45541L8.26946 8.49986L8.55834 8.5443L9.42501 8.49986ZM9.37657 8.13186L8.52812 8.31319L8.26057 8.43097L8.55079 8.39897L9.37657 8.13186ZM9.23434 7.78875L8.4619 8.18341L8.2339 8.36653L8.50634 8.26075L9.23434 7.78875ZM9.00857 7.49408L8.36412 8.07541L8.19123 8.31141L8.42723 8.13853L9.00857 7.49408ZM8.7139 7.2683L8.2419 7.9963L8.13612 8.26875L8.31923 8.04075L8.7139 7.2683ZM8.37079 7.12608L8.10368 7.95186L8.07168 8.24208L8.18946 7.97453L8.37079 7.12608Z" fill="#6666B3"/>
<path d="M7.80764 7.10405C7.85673 7.10405 7.89653 7.06425 7.89653 7.01516C7.89653 6.96607 7.85673 6.92627 7.80764 6.92627C7.75855 6.92627 7.71875 6.96607 7.71875 7.01516C7.71875 7.06425 7.75855 7.10405 7.80764 7.10405Z" fill="#000080"/>
<path d="M7.42971 7.20561C7.4788 7.20561 7.5186 7.16581 7.5186 7.11672C7.5186 7.06763 7.4788 7.02783 7.42971 7.02783C7.38062 7.02783 7.34082 7.06763 7.34082 7.11672C7.34082 7.16581 7.38062 7.20561 7.42971 7.20561Z" fill="#000080"/>
<path d="M7.09084 7.40043C7.13993 7.40043 7.17973 7.36064 7.17973 7.31155C7.17973 7.26245 7.13993 7.22266 7.09084 7.22266C7.04175 7.22266 7.00195 7.26245 7.00195 7.31155C7.00195 7.36064 7.04175 7.40043 7.09084 7.40043Z" fill="#000080"/>
<path d="M6.81447 7.6768C6.86357 7.6768 6.90336 7.637 6.90336 7.58791C6.90336 7.53882 6.86357 7.49902 6.81447 7.49902C6.76538 7.49902 6.72559 7.53882 6.72559 7.58791C6.72559 7.637 6.76538 7.6768 6.81447 7.6768Z" fill="#000080"/>
<path d="M6.61965 8.01567C6.66874 8.01567 6.70854 7.97587 6.70854 7.92678C6.70854 7.87769 6.66874 7.83789 6.61965 7.83789C6.57056 7.83789 6.53076 7.87769 6.53076 7.92678C6.53076 7.97587 6.57056 8.01567 6.61965 8.01567Z" fill="#000080"/>
<path d="M6.51809 8.3936C6.56718 8.3936 6.60698 8.3538 6.60698 8.30471C6.60698 8.25562 6.56718 8.21582 6.51809 8.21582C6.469 8.21582 6.4292 8.25562 6.4292 8.30471C6.4292 8.3538 6.469 8.3936 6.51809 8.3936Z" fill="#000080"/>
<path d="M6.51809 8.78471C6.56718 8.78471 6.60698 8.74491 6.60698 8.69582C6.60698 8.64673 6.56718 8.60693 6.51809 8.60693C6.469 8.60693 6.4292 8.64673 6.4292 8.69582C6.4292 8.74491 6.469 8.78471 6.51809 8.78471Z" fill="#000080"/>
<path d="M6.61965 9.16215C6.66874 9.16215 6.70854 9.12236 6.70854 9.07326C6.70854 9.02417 6.66874 8.98438 6.61965 8.98438C6.57056 8.98438 6.53076 9.02417 6.53076 9.07326C6.53076 9.12236 6.57056 9.16215 6.61965 9.16215Z" fill="#000080"/>
<path d="M6.81447 9.50102C6.86357 9.50102 6.90336 9.46122 6.90336 9.41213C6.90336 9.36304 6.86357 9.32324 6.81447 9.32324C6.76538 9.32324 6.72559 9.36304 6.72559 9.41213C6.72559 9.46122 6.76538 9.50102 6.81447 9.50102Z" fill="#000080"/>
<path d="M7.09084 9.77739C7.13993 9.77739 7.17973 9.73759 7.17973 9.6885C7.17973 9.63941 7.13993 9.59961 7.09084 9.59961C7.04175 9.59961 7.00195 9.63941 7.00195 9.6885C7.00195 9.73759 7.04175 9.77739 7.09084 9.77739Z" fill="#000080"/>
<path d="M7.42971 9.9727C7.4788 9.9727 7.5186 9.9329 7.5186 9.88381C7.5186 9.83472 7.4788 9.79492 7.42971 9.79492C7.38062 9.79492 7.34082 9.83472 7.34082 9.88381C7.34082 9.9329 7.38062 9.9727 7.42971 9.9727Z" fill="#000080"/>
<path d="M7.80764 10.0738C7.85673 10.0738 7.89653 10.034 7.89653 9.98488C7.89653 9.93579 7.85673 9.896 7.80764 9.896C7.75855 9.896 7.71875 9.93579 7.71875 9.98488C7.71875 10.034 7.75855 10.0738 7.80764 10.0738Z" fill="#000080"/>
<path d="M8.19875 10.0738C8.24784 10.0738 8.28764 10.034 8.28764 9.98488C8.28764 9.93579 8.24784 9.896 8.19875 9.896C8.14966 9.896 8.10986 9.93579 8.10986 9.98488C8.10986 10.034 8.14966 10.0738 8.19875 10.0738Z" fill="#000080"/>
<path d="M8.57619 9.9727C8.62529 9.9727 8.66508 9.9329 8.66508 9.88381C8.66508 9.83472 8.62529 9.79492 8.57619 9.79492C8.5271 9.79492 8.4873 9.83472 8.4873 9.88381C8.4873 9.9329 8.5271 9.9727 8.57619 9.9727Z" fill="#000080"/>
<path d="M8.91506 9.77739C8.96415 9.77739 9.00395 9.73759 9.00395 9.6885C9.00395 9.63941 8.96415 9.59961 8.91506 9.59961C8.86597 9.59961 8.82617 9.63941 8.82617 9.6885C8.82617 9.73759 8.86597 9.77739 8.91506 9.77739Z" fill="#000080"/>
<path d="M9.19143 9.50102C9.24052 9.50102 9.28032 9.46122 9.28032 9.41213C9.28032 9.36304 9.24052 9.32324 9.19143 9.32324C9.14234 9.32324 9.10254 9.36304 9.10254 9.41213C9.10254 9.46122 9.14234 9.50102 9.19143 9.50102Z" fill="#000080"/>
<path d="M9.38674 9.16215C9.43583 9.16215 9.47563 9.12236 9.47563 9.07326C9.47563 9.02417 9.43583 8.98438 9.38674 8.98438C9.33765 8.98438 9.29785 9.02417 9.29785 9.07326C9.29785 9.12236 9.33765 9.16215 9.38674 9.16215Z" fill="#000080"/>
<path d="M9.48781 8.78471C9.53691 8.78471 9.5767 8.74491 9.5767 8.69582C9.5767 8.64673 9.53691 8.60693 9.48781 8.60693C9.43872 8.60693 9.39893 8.64673 9.39893 8.69582C9.39893 8.74491 9.43872 8.78471 9.48781 8.78471Z" fill="#000080"/>
<path d="M9.48781 8.3936C9.53691 8.3936 9.5767 8.3538 9.5767 8.30471C9.5767 8.25562 9.53691 8.21582 9.48781 8.21582C9.43872 8.21582 9.39893 8.25562 9.39893 8.30471C9.39893 8.3538 9.43872 8.3936 9.48781 8.3936Z" fill="#000080"/>
<path d="M9.38674 8.01567C9.43583 8.01567 9.47563 7.97587 9.47563 7.92678C9.47563 7.87769 9.43583 7.83789 9.38674 7.83789C9.33765 7.83789 9.29785 7.87769 9.29785 7.92678C9.29785 7.97587 9.33765 8.01567 9.38674 8.01567Z" fill="#000080"/>
<path d="M9.19143 7.6768C9.24052 7.6768 9.28032 7.637 9.28032 7.58791C9.28032 7.53882 9.24052 7.49902 9.19143 7.49902C9.14234 7.49902 9.10254 7.53882 9.10254 7.58791C9.10254 7.637 9.14234 7.6768 9.19143 7.6768Z" fill="#000080"/>
<path d="M8.91506 7.40043C8.96415 7.40043 9.00395 7.36064 9.00395 7.31155C9.00395 7.26245 8.96415 7.22266 8.91506 7.22266C8.86597 7.22266 8.82617 7.26245 8.82617 7.31155C8.82617 7.36064 8.86597 7.40043 8.91506 7.40043Z" fill="#000080"/>
<path d="M8.57619 7.20561C8.62529 7.20561 8.66508 7.16581 8.66508 7.11672C8.66508 7.06763 8.62529 7.02783 8.57619 7.02783C8.5271 7.02783 8.4873 7.06763 8.4873 7.11672C8.4873 7.16581 8.5271 7.20561 8.57619 7.20561Z" fill="#000080"/>
<path d="M8.19875 7.10405C8.24784 7.10405 8.28764 7.06425 8.28764 7.01516C8.28764 6.96607 8.24784 6.92627 8.19875 6.92627C8.14966 6.92627 8.10986 6.96607 8.10986 7.01516C8.10986 7.06425 8.14966 7.10405 8.19875 7.10405Z" fill="#000080"/>
<path d="M8.00303 8.9001C8.22394 8.9001 8.40303 8.72101 8.40303 8.5001C8.40303 8.27918 8.22394 8.1001 8.00303 8.1001C7.78211 8.1001 7.60303 8.27918 7.60303 8.5001C7.60303 8.72101 7.78211 8.9001 8.00303 8.9001Z" fill="#000080"/>
</g>
<defs>
<clipPath id="clip0_1_4347">
<rect width="16" height="16" fill="white" transform="translate(0.00292969 0.5)"/>
</clipPath>
</defs>
</svg>
