<svg width="239" height="103" viewBox="0 0 239 103" fill="none" xmlns="http://www.w3.org/2000/svg">
<path d="M49.793 2.28223C40.1017 2.28223 30.6281 5.15603 22.57 10.5402C14.512 15.9244 8.23159 23.5772 4.52289 32.5307C0.814199 41.4843 -0.156163 51.3366 1.73451 60.8416C3.62519 70.3467 8.29198 79.0777 15.1448 85.9304C21.9975 92.7832 30.7285 97.45 40.2336 99.3407C49.7386 101.231 59.5909 100.261 68.5445 96.5523C77.498 92.8436 85.1508 86.5632 90.535 78.5051C95.9192 70.4471 98.793 60.9735 98.793 51.2822C98.7787 38.291 93.6116 25.8359 84.4255 16.6497C75.2393 7.46356 62.7842 2.29649 49.793 2.28223ZM49.793 95.6811C46.6913 92.697 38.523 83.7202 34.4707 68.9222H65.1153C61.063 83.7202 52.8947 92.697 49.793 95.6811ZM33.5348 65.0022C31.6922 55.9483 31.6922 46.6161 33.5348 37.5622H66.0512C67.8938 46.6161 67.8938 55.9483 66.0512 65.0022H33.5348ZM49.793 6.88333C52.8947 9.86742 61.063 18.8442 65.1153 33.6422H34.4707C38.523 18.8442 46.6913 9.86742 49.793 6.88333ZM70.0839 37.5622H92.7366C95.5847 46.4872 95.5847 56.0773 92.7366 65.0022H70.0839C71.7754 55.9338 71.7754 46.6307 70.0839 37.5622ZM91.2764 33.6422H69.2264C66.753 23.559 61.8415 14.2374 54.9233 6.49622C62.8376 7.41573 70.3682 10.4108 76.7523 15.178C83.1363 19.9451 88.1469 26.315 91.2764 33.6422ZM44.6676 6.49622C37.7493 14.2374 32.8378 23.559 30.3645 33.6422H8.31449C11.444 26.315 16.4545 19.9451 22.8386 15.178C29.2226 10.4108 36.7533 7.41573 44.6676 6.49622ZM6.84939 37.5622H29.5021C27.8106 46.6307 27.8106 55.9338 29.5021 65.0022H6.84939C4.00124 56.0773 4.00124 46.4872 6.84939 37.5622ZM8.31939 68.9222H30.3694C32.8427 79.0054 37.7542 88.327 44.6725 96.0682C36.7564 95.1503 29.2237 92.156 22.8378 87.3888C16.452 82.6215 11.4399 76.2508 8.30959 68.9222H8.31939ZM54.9282 96.0682C61.8429 88.326 66.751 79.0045 69.2215 68.9222H91.2715C88.142 76.2494 83.1314 82.6193 76.7474 87.3865C70.3634 92.1536 62.8327 95.1487 54.9184 96.0682H54.9282Z" fill="#19154A"/>
<path d="M118.404 16.1942H127.478C127.513 16.4196 127.547 16.6622 127.582 16.9222C127.617 17.1649 127.634 17.4249 127.634 17.7022C127.634 18.8116 127.461 19.9122 127.114 21.0042C126.767 22.0962 126.178 23.0669 125.346 23.9162C124.497 24.8002 123.5 25.4849 122.356 25.9702C121.212 26.4556 119.903 26.6982 118.43 26.6982C117.095 26.6982 115.83 26.4556 114.634 25.9702C113.455 25.4849 112.424 24.8089 111.54 23.9422C110.656 23.0756 109.954 22.0529 109.434 20.8742C108.931 19.6782 108.68 18.3782 108.68 16.9742C108.68 15.5702 108.931 14.2789 109.434 13.1002C109.954 11.9042 110.656 10.8729 111.54 10.0062C112.424 9.13956 113.455 8.46356 114.634 7.97823C115.83 7.49289 117.095 7.25023 118.43 7.25023C119.851 7.25023 121.16 7.50156 122.356 8.00423C123.569 8.50689 124.583 9.20889 125.398 10.1102L123.344 12.1642C122.737 11.4882 122.018 10.9682 121.186 10.6042C120.371 10.2402 119.444 10.0582 118.404 10.0582C117.52 10.0582 116.671 10.2229 115.856 10.5522C115.041 10.8816 114.322 11.3496 113.698 11.9562C113.074 12.5456 112.58 13.2649 112.216 14.1142C111.852 14.9636 111.67 15.9169 111.67 16.9742C111.67 18.0316 111.852 18.9849 112.216 19.8342C112.58 20.6836 113.074 21.4116 113.698 22.0182C114.322 22.6076 115.041 23.0669 115.856 23.3962C116.671 23.7256 117.529 23.8902 118.43 23.8902C119.626 23.8902 120.588 23.7082 121.316 23.3442C122.061 22.9802 122.685 22.5556 123.188 22.0702C123.552 21.7236 123.873 21.2729 124.15 20.7182C124.427 20.1462 124.609 19.5222 124.696 18.8462H118.404V16.1942ZM135.922 13.1262C136.893 13.1262 137.786 13.2996 138.6 13.6462C139.415 13.9756 140.117 14.4436 140.706 15.0502C141.296 15.6569 141.755 16.3762 142.084 17.2082C142.414 18.0402 142.578 18.9416 142.578 19.9122C142.578 20.8829 142.414 21.7842 142.084 22.6162C141.755 23.4482 141.296 24.1676 140.706 24.7742C140.117 25.3809 139.415 25.8576 138.6 26.2042C137.786 26.5336 136.893 26.6982 135.922 26.6982C134.952 26.6982 134.059 26.5336 133.244 26.2042C132.43 25.8576 131.728 25.3809 131.138 24.7742C130.549 24.1676 130.09 23.4482 129.76 22.6162C129.431 21.7842 129.266 20.8829 129.266 19.9122C129.266 18.9416 129.431 18.0402 129.76 17.2082C130.09 16.3762 130.549 15.6569 131.138 15.0502C131.728 14.4436 132.43 13.9756 133.244 13.6462C134.059 13.2996 134.952 13.1262 135.922 13.1262ZM135.922 24.0202C136.408 24.0202 136.876 23.9249 137.326 23.7342C137.777 23.5436 138.176 23.2749 138.522 22.9282C138.886 22.5816 139.172 22.1569 139.38 21.6542C139.588 21.1342 139.692 20.5536 139.692 19.9122C139.692 19.2709 139.588 18.6989 139.38 18.1962C139.172 17.6762 138.886 17.2429 138.522 16.8962C138.176 16.5496 137.777 16.2809 137.326 16.0902C136.876 15.8996 136.408 15.8042 135.922 15.8042C135.437 15.8042 134.969 15.8996 134.518 16.0902C134.068 16.2809 133.66 16.5496 133.296 16.8962C132.95 17.2429 132.672 17.6762 132.464 18.1962C132.256 18.6989 132.152 19.2709 132.152 19.9122C132.152 20.5536 132.256 21.1342 132.464 21.6542C132.672 22.1569 132.95 22.5816 133.296 22.9282C133.66 23.2749 134.068 23.5436 134.518 23.7342C134.969 23.9249 135.437 24.0202 135.922 24.0202ZM150.7 13.1262C151.67 13.1262 152.563 13.2996 153.378 13.6462C154.192 13.9756 154.894 14.4436 155.484 15.0502C156.073 15.6569 156.532 16.3762 156.862 17.2082C157.191 18.0402 157.356 18.9416 157.356 19.9122C157.356 20.8829 157.191 21.7842 156.862 22.6162C156.532 23.4482 156.073 24.1676 155.484 24.7742C154.894 25.3809 154.192 25.8576 153.378 26.2042C152.563 26.5336 151.67 26.6982 150.7 26.6982C149.729 26.6982 148.836 26.5336 148.022 26.2042C147.207 25.8576 146.505 25.3809 145.916 24.7742C145.326 24.1676 144.867 23.4482 144.538 22.6162C144.208 21.7842 144.044 20.8829 144.044 19.9122C144.044 18.9416 144.208 18.0402 144.538 17.2082C144.867 16.3762 145.326 15.6569 145.916 15.0502C146.505 14.4436 147.207 13.9756 148.022 13.6462C148.836 13.2996 149.729 13.1262 150.7 13.1262ZM150.7 24.0202C151.185 24.0202 151.653 23.9249 152.104 23.7342C152.554 23.5436 152.953 23.2749 153.3 22.9282C153.664 22.5816 153.95 22.1569 154.158 21.6542C154.366 21.1342 154.47 20.5536 154.47 19.9122C154.47 19.2709 154.366 18.6989 154.158 18.1962C153.95 17.6762 153.664 17.2429 153.3 16.8962C152.953 16.5496 152.554 16.2809 152.104 16.0902C151.653 15.8996 151.185 15.8042 150.7 15.8042C150.214 15.8042 149.746 15.8996 149.296 16.0902C148.845 16.2809 148.438 16.5496 148.074 16.8962C147.727 17.2429 147.45 17.6762 147.242 18.1962C147.034 18.6989 146.93 19.2709 146.93 19.9122C146.93 20.5536 147.034 21.1342 147.242 21.6542C147.45 22.1569 147.727 22.5816 148.074 22.9282C148.438 23.2749 148.845 23.5436 149.296 23.7342C149.746 23.9249 150.214 24.0202 150.7 24.0202ZM165.321 32.3142C164.437 32.3142 163.648 32.1929 162.955 31.9502C162.279 31.7249 161.69 31.4302 161.187 31.0662C160.684 30.7022 160.268 30.2949 159.939 29.8442C159.627 29.3936 159.393 28.9602 159.237 28.5442L161.993 27.4262C162.236 28.1022 162.652 28.6482 163.241 29.0642C163.83 29.4976 164.524 29.7142 165.321 29.7142C166.517 29.7142 167.444 29.3502 168.103 28.6222C168.779 27.8942 169.117 26.8889 169.117 25.6062V24.5662H168.961C168.562 25.1382 168.008 25.6149 167.297 25.9962C166.604 26.3776 165.789 26.5682 164.853 26.5682C164.073 26.5682 163.319 26.4036 162.591 26.0742C161.863 25.7449 161.213 25.2856 160.641 24.6962C160.086 24.1069 159.644 23.3962 159.315 22.5642C158.986 21.7322 158.821 20.8222 158.821 19.8342C158.821 18.8462 158.986 17.9449 159.315 17.1302C159.644 16.2982 160.086 15.5876 160.641 14.9982C161.213 14.4089 161.863 13.9496 162.591 13.6202C163.319 13.2909 164.073 13.1262 164.853 13.1262C165.789 13.1262 166.604 13.3169 167.297 13.6982C168.008 14.0796 168.562 14.5562 168.961 15.1282H169.117V13.5422H171.899V25.5542C171.899 26.6462 171.726 27.6082 171.379 28.4402C171.05 29.2896 170.59 30.0002 170.001 30.5722C169.429 31.1442 168.736 31.5776 167.921 31.8722C167.124 32.1669 166.257 32.3142 165.321 32.3142ZM165.425 23.8902C165.893 23.8902 166.352 23.8036 166.803 23.6302C167.254 23.4569 167.644 23.1969 167.973 22.8502C168.32 22.5036 168.597 22.0789 168.805 21.5762C169.013 21.0736 169.117 20.4929 169.117 19.8342C169.117 19.1929 169.013 18.6209 168.805 18.1182C168.597 17.5982 168.32 17.1736 167.973 16.8442C167.644 16.4976 167.254 16.2376 166.803 16.0642C166.352 15.8736 165.893 15.7782 165.425 15.7782C164.94 15.7782 164.472 15.8736 164.021 16.0642C163.588 16.2376 163.198 16.4976 162.851 16.8442C162.504 17.1909 162.227 17.6156 162.019 18.1182C161.811 18.6209 161.707 19.1929 161.707 19.8342C161.707 20.4756 161.811 21.0476 162.019 21.5502C162.227 22.0529 162.504 22.4776 162.851 22.8242C163.198 23.1709 163.588 23.4396 164.021 23.6302C164.472 23.8036 164.94 23.8902 165.425 23.8902ZM174.809 26.2822V7.66623H177.695V26.2822H174.809ZM192.275 23.2402C191.738 24.2282 190.975 25.0516 189.987 25.7102C188.999 26.3689 187.786 26.6982 186.347 26.6982C185.394 26.6982 184.51 26.5336 183.695 26.2042C182.898 25.8576 182.204 25.3809 181.615 24.7742C181.026 24.1676 180.566 23.4569 180.237 22.6422C179.908 21.8102 179.743 20.9002 179.743 19.9122C179.743 18.9936 179.899 18.1269 180.211 17.3122C180.523 16.4802 180.956 15.7609 181.511 15.1542C182.083 14.5302 182.768 14.0362 183.565 13.6722C184.362 13.3082 185.246 13.1262 186.217 13.1262C187.205 13.1262 188.08 13.2909 188.843 13.6202C189.623 13.9496 190.282 14.4089 190.819 14.9982C191.356 15.5876 191.764 16.2982 192.041 17.1302C192.336 17.9622 192.483 18.8722 192.483 19.8602C192.483 19.9469 192.483 20.0249 192.483 20.0942C192.466 20.1809 192.457 20.2589 192.457 20.3282C192.44 20.3976 192.431 20.4669 192.431 20.5362H182.629C182.681 21.1429 182.828 21.6716 183.071 22.1222C183.314 22.5729 183.608 22.9456 183.955 23.2402C184.319 23.5349 184.718 23.7516 185.151 23.8902C185.584 24.0289 186.009 24.0982 186.425 24.0982C187.257 24.0982 187.942 23.8989 188.479 23.5002C189.016 23.1016 189.458 22.6076 189.805 22.0182L192.275 23.2402ZM189.597 18.3262C189.562 18.0662 189.476 17.7802 189.337 17.4682C189.216 17.1389 189.016 16.8442 188.739 16.5842C188.479 16.3069 188.132 16.0729 187.699 15.8822C187.283 15.6916 186.772 15.5962 186.165 15.5962C185.333 15.5962 184.614 15.8476 184.007 16.3502C183.418 16.8356 183.019 17.4942 182.811 18.3262H189.597ZM109.59 41.6662H115.57C117.043 41.6662 118.361 41.9002 119.522 42.3682C120.701 42.8189 121.697 43.4516 122.512 44.2662C123.344 45.0809 123.977 46.0602 124.41 47.2042C124.861 48.3482 125.086 49.6049 125.086 50.9742C125.086 52.3436 124.861 53.6002 124.41 54.7442C123.977 55.8882 123.344 56.8676 122.512 57.6822C121.697 58.4969 120.701 59.1382 119.522 59.6062C118.361 60.0569 117.043 60.2822 115.57 60.2822H109.59V41.6662ZM115.518 57.4742C117.615 57.4742 119.236 56.9022 120.38 55.7582C121.524 54.6142 122.096 53.0196 122.096 50.9742C122.096 48.9462 121.524 47.3602 120.38 46.2162C119.236 45.0549 117.615 44.4742 115.518 44.4742H112.528V57.4742H115.518ZM138.929 57.2402C138.392 58.2282 137.629 59.0516 136.641 59.7102C135.653 60.3689 134.44 60.6982 133.001 60.6982C132.048 60.6982 131.164 60.5336 130.349 60.2042C129.552 59.8576 128.859 59.3809 128.269 58.7742C127.68 58.1676 127.221 57.4569 126.891 56.6422C126.562 55.8102 126.397 54.9002 126.397 53.9122C126.397 52.9936 126.553 52.1269 126.865 51.3122C127.177 50.4802 127.611 49.7609 128.165 49.1542C128.737 48.5302 129.422 48.0362 130.219 47.6722C131.017 47.3082 131.901 47.1262 132.871 47.1262C133.859 47.1262 134.735 47.2909 135.497 47.6202C136.277 47.9496 136.936 48.4089 137.473 48.9982C138.011 49.5876 138.418 50.2982 138.695 51.1302C138.99 51.9622 139.137 52.8722 139.137 53.8602C139.137 53.9469 139.137 54.0249 139.137 54.0942C139.12 54.1809 139.111 54.2589 139.111 54.3282C139.094 54.3976 139.085 54.4669 139.085 54.5362H129.283C129.335 55.1429 129.483 55.6716 129.725 56.1222C129.968 56.5729 130.263 56.9456 130.609 57.2402C130.973 57.5349 131.372 57.7516 131.805 57.8902C132.239 58.0289 132.663 58.0982 133.079 58.0982C133.911 58.0982 134.596 57.8989 135.133 57.5002C135.671 57.1016 136.113 56.6076 136.459 56.0182L138.929 57.2402ZM136.251 52.3262C136.217 52.0662 136.13 51.7802 135.991 51.4682C135.87 51.1389 135.671 50.8442 135.393 50.5842C135.133 50.3069 134.787 50.0729 134.353 49.8822C133.937 49.6916 133.426 49.5962 132.819 49.5962C131.987 49.5962 131.268 49.8476 130.661 50.3502C130.072 50.8356 129.673 51.4942 129.465 52.3262H136.251ZM139.713 47.5422H142.963L146.395 56.5382H146.525L150.035 47.5422H153.207L147.877 60.2822H144.991L139.713 47.5422ZM166.199 57.2402C165.661 58.2282 164.899 59.0516 163.911 59.7102C162.923 60.3689 161.709 60.6982 160.271 60.6982C159.317 60.6982 158.433 60.5336 157.619 60.2042C156.821 59.8576 156.128 59.3809 155.539 58.7742C154.949 58.1676 154.49 57.4569 154.161 56.6422C153.831 55.8102 153.667 54.9002 153.667 53.9122C153.667 52.9936 153.823 52.1269 154.135 51.3122C154.447 50.4802 154.88 49.7609 155.435 49.1542C156.007 48.5302 156.691 48.0362 157.489 47.6722C158.286 47.3082 159.17 47.1262 160.141 47.1262C161.129 47.1262 162.004 47.2909 162.767 47.6202C163.547 47.9496 164.205 48.4089 164.743 48.9982C165.28 49.5876 165.687 50.2982 165.965 51.1302C166.259 51.9622 166.407 52.8722 166.407 53.8602C166.407 53.9469 166.407 54.0249 166.407 54.0942C166.389 54.1809 166.381 54.2589 166.381 54.3282C166.363 54.3976 166.355 54.4669 166.355 54.5362H156.553C156.605 55.1429 156.752 55.6716 156.995 56.1222C157.237 56.5729 157.532 56.9456 157.879 57.2402C158.243 57.5349 158.641 57.7516 159.075 57.8902C159.508 58.0289 159.933 58.0982 160.349 58.0982C161.181 58.0982 161.865 57.8989 162.403 57.5002C162.94 57.1016 163.382 56.6076 163.729 56.0182L166.199 57.2402ZM163.521 52.3262C163.486 52.0662 163.399 51.7802 163.261 51.4682C163.139 51.1389 162.94 50.8442 162.663 50.5842C162.403 50.3069 162.056 50.0729 161.623 49.8822C161.207 49.6916 160.695 49.5962 160.089 49.5962C159.257 49.5962 158.537 49.8476 157.931 50.3502C157.341 50.8356 156.943 51.4942 156.735 52.3262H163.521ZM168.588 60.2822V41.6662H171.474V60.2822H168.588ZM180.178 47.1262C181.149 47.1262 182.042 47.2996 182.856 47.6462C183.671 47.9756 184.373 48.4436 184.962 49.0502C185.552 49.6569 186.011 50.3762 186.34 51.2082C186.67 52.0402 186.834 52.9416 186.834 53.9122C186.834 54.8829 186.67 55.7842 186.34 56.6162C186.011 57.4482 185.552 58.1676 184.962 58.7742C184.373 59.3809 183.671 59.8576 182.856 60.2042C182.042 60.5336 181.149 60.6982 180.178 60.6982C179.208 60.6982 178.315 60.5336 177.5 60.2042C176.686 59.8576 175.984 59.3809 175.394 58.7742C174.805 58.1676 174.346 57.4482 174.016 56.6162C173.687 55.7842 173.522 54.8829 173.522 53.9122C173.522 52.9416 173.687 52.0402 174.016 51.2082C174.346 50.3762 174.805 49.6569 175.394 49.0502C175.984 48.4436 176.686 47.9756 177.5 47.6462C178.315 47.2996 179.208 47.1262 180.178 47.1262ZM180.178 58.0202C180.664 58.0202 181.132 57.9249 181.582 57.7342C182.033 57.5436 182.432 57.2749 182.778 56.9282C183.142 56.5816 183.428 56.1569 183.636 55.6542C183.844 55.1342 183.948 54.5536 183.948 53.9122C183.948 53.2709 183.844 52.6989 183.636 52.1962C183.428 51.6762 183.142 51.2429 182.778 50.8962C182.432 50.5496 182.033 50.2809 181.582 50.0902C181.132 49.8996 180.664 49.8042 180.178 49.8042C179.693 49.8042 179.225 49.8996 178.774 50.0902C178.324 50.2809 177.916 50.5496 177.552 50.8962C177.206 51.2429 176.928 51.6762 176.72 52.1962C176.512 52.6989 176.408 53.2709 176.408 53.9122C176.408 54.5536 176.512 55.1342 176.72 55.6542C176.928 56.1569 177.206 56.5816 177.552 56.9282C177.916 57.2749 178.324 57.5436 178.774 57.7342C179.225 57.9249 179.693 58.0202 180.178 58.0202ZM188.797 47.5422H191.527V49.1802H191.683C192.029 48.6256 192.558 48.1489 193.269 47.7502C193.979 47.3342 194.829 47.1262 195.817 47.1262C196.631 47.1262 197.403 47.2996 198.131 47.6462C198.876 47.9756 199.526 48.4436 200.081 49.0502C200.635 49.6569 201.077 50.3762 201.407 51.2082C201.736 52.0229 201.901 52.9242 201.901 53.9122C201.901 54.9002 201.736 55.8102 201.407 56.6422C201.077 57.4569 200.635 58.1676 200.081 58.7742C199.526 59.3809 198.876 59.8576 198.131 60.2042C197.403 60.5336 196.631 60.6982 195.817 60.6982C194.829 60.6982 193.979 60.4989 193.269 60.1002C192.558 59.6842 192.029 59.1989 191.683 58.6442H191.527L191.683 60.4122V65.8982H188.797V47.5422ZM195.271 58.0202C195.756 58.0202 196.224 57.9249 196.675 57.7342C197.143 57.5436 197.541 57.2749 197.871 56.9282C198.217 56.5642 198.495 56.1309 198.703 55.6282C198.911 55.1256 199.015 54.5536 199.015 53.9122C199.015 53.2709 198.911 52.6989 198.703 52.1962C198.495 51.6936 198.217 51.2689 197.871 50.9222C197.541 50.5582 197.143 50.2809 196.675 50.0902C196.224 49.8996 195.756 49.8042 195.271 49.8042C194.768 49.8042 194.291 49.8996 193.841 50.0902C193.39 50.2809 192.991 50.5496 192.645 50.8962C192.315 51.2429 192.047 51.6762 191.839 52.1962C191.631 52.6989 191.527 53.2709 191.527 53.9122C191.527 54.5536 191.631 55.1342 191.839 55.6542C192.047 56.1569 192.315 56.5816 192.645 56.9282C192.991 57.2749 193.39 57.5436 193.841 57.7342C194.291 57.9249 194.768 58.0202 195.271 58.0202ZM215.888 57.2402C215.351 58.2282 214.588 59.0516 213.6 59.7102C212.612 60.3689 211.399 60.6982 209.96 60.6982C209.007 60.6982 208.123 60.5336 207.308 60.2042C206.511 59.8576 205.818 59.3809 205.228 58.7742C204.639 58.1676 204.18 57.4569 203.85 56.6422C203.521 55.8102 203.356 54.9002 203.356 53.9122C203.356 52.9936 203.512 52.1269 203.824 51.3122C204.136 50.4802 204.57 49.7609 205.124 49.1542C205.696 48.5302 206.381 48.0362 207.178 47.6722C207.976 47.3082 208.86 47.1262 209.83 47.1262C210.818 47.1262 211.694 47.2909 212.456 47.6202C213.236 47.9496 213.895 48.4089 214.432 48.9982C214.97 49.5876 215.377 50.2982 215.654 51.1302C215.949 51.9622 216.096 52.8722 216.096 53.8602C216.096 53.9469 216.096 54.0249 216.096 54.0942C216.079 54.1809 216.07 54.2589 216.07 54.3282C216.053 54.3976 216.044 54.4669 216.044 54.5362H206.242C206.294 55.1429 206.442 55.6716 206.684 56.1222C206.927 56.5729 207.222 56.9456 207.568 57.2402C207.932 57.5349 208.331 57.7516 208.764 57.8902C209.198 58.0289 209.622 58.0982 210.038 58.0982C210.87 58.0982 211.555 57.8989 212.092 57.5002C212.63 57.1016 213.072 56.6076 213.418 56.0182L215.888 57.2402ZM213.21 52.3262C213.176 52.0662 213.089 51.7802 212.95 51.4682C212.829 51.1389 212.63 50.8442 212.352 50.5842C212.092 50.3069 211.746 50.0729 211.312 49.8822C210.896 49.6916 210.385 49.5962 209.778 49.5962C208.946 49.5962 208.227 49.8476 207.62 50.3502C207.031 50.8356 206.632 51.4942 206.424 52.3262H213.21ZM218.278 47.5422H221.008V49.4662H221.164C221.32 49.1369 221.528 48.8336 221.788 48.5562C222.065 48.2616 222.368 48.0189 222.698 47.8282C223.044 47.6202 223.4 47.4642 223.764 47.3602C224.145 47.2389 224.509 47.1782 224.856 47.1782C225.272 47.1782 225.627 47.2129 225.922 47.2822C226.216 47.3516 226.485 47.4469 226.728 47.5682L225.896 50.2462C225.705 50.1596 225.488 50.0989 225.246 50.0642C225.02 50.0122 224.743 49.9862 224.414 49.9862C223.946 49.9862 223.512 50.0816 223.114 50.2722C222.732 50.4629 222.394 50.7229 222.1 51.0522C221.805 51.3816 221.571 51.7716 221.398 52.2222C221.242 52.6729 221.164 53.1496 221.164 53.6522V60.2822H218.278V47.5422ZM232.61 60.6982C231.83 60.6982 231.128 60.5942 230.504 60.3862C229.88 60.1782 229.334 59.9096 228.866 59.5802C228.398 59.2336 227.999 58.8436 227.67 58.4102C227.358 57.9769 227.115 57.5262 226.942 57.0582L229.542 55.9662C229.836 56.7116 230.261 57.2662 230.816 57.6302C231.37 57.9769 231.968 58.1502 232.61 58.1502C233.338 58.1502 233.91 58.0029 234.326 57.7082C234.742 57.4136 234.95 57.0842 234.95 56.7202C234.95 56.3562 234.794 56.0442 234.482 55.7842C234.17 55.5069 233.58 55.2642 232.714 55.0562L230.894 54.6142C230.495 54.5276 230.088 54.3976 229.672 54.2242C229.273 54.0336 228.9 53.7996 228.554 53.5222C228.207 53.2276 227.921 52.8809 227.696 52.4822C227.488 52.0662 227.384 51.5809 227.384 51.0262C227.384 50.4022 227.514 49.8476 227.774 49.3622C228.051 48.8769 228.424 48.4696 228.892 48.1402C229.36 47.8109 229.897 47.5596 230.504 47.3862C231.128 47.2129 231.786 47.1262 232.48 47.1262C233.052 47.1262 233.598 47.1869 234.118 47.3082C234.655 47.4296 235.149 47.6116 235.6 47.8542C236.05 48.0969 236.449 48.4089 236.796 48.7902C237.16 49.1542 237.446 49.5876 237.654 50.0902L235.106 51.1562C234.863 50.6016 234.482 50.2029 233.962 49.9602C233.442 49.7002 232.913 49.5702 232.376 49.5702C232.133 49.5702 231.882 49.6049 231.622 49.6742C231.379 49.7262 231.154 49.8129 230.946 49.9342C230.755 50.0382 230.59 50.1769 230.452 50.3502C230.33 50.5236 230.27 50.7142 230.27 50.9222C230.27 51.2689 230.417 51.5462 230.712 51.7542C231.024 51.9449 231.492 52.1182 232.116 52.2742L234.066 52.7682C235.383 53.0976 236.345 53.6002 236.952 54.2762C237.576 54.9349 237.888 55.7149 237.888 56.6162C237.888 57.1709 237.758 57.6909 237.498 58.1762C237.255 58.6616 236.9 59.0949 236.432 59.4762C235.964 59.8576 235.4 60.1522 234.742 60.3602C234.1 60.5856 233.39 60.6982 232.61 60.6982ZM118.404 84.1942H127.478C127.513 84.4196 127.547 84.6622 127.582 84.9222C127.617 85.1649 127.634 85.4249 127.634 85.7022C127.634 86.8116 127.461 87.9122 127.114 89.0042C126.767 90.0962 126.178 91.0669 125.346 91.9162C124.497 92.8002 123.5 93.4849 122.356 93.9702C121.212 94.4556 119.903 94.6982 118.43 94.6982C117.095 94.6982 115.83 94.4556 114.634 93.9702C113.455 93.4849 112.424 92.8089 111.54 91.9422C110.656 91.0756 109.954 90.0529 109.434 88.8742C108.931 87.6782 108.68 86.3782 108.68 84.9742C108.68 83.5702 108.931 82.2789 109.434 81.1002C109.954 79.9042 110.656 78.8729 111.54 78.0062C112.424 77.1396 113.455 76.4636 114.634 75.9782C115.83 75.4929 117.095 75.2502 118.43 75.2502C119.851 75.2502 121.16 75.5016 122.356 76.0042C123.569 76.5069 124.583 77.2089 125.398 78.1102L123.344 80.1642C122.737 79.4882 122.018 78.9682 121.186 78.6042C120.371 78.2402 119.444 78.0582 118.404 78.0582C117.52 78.0582 116.671 78.2229 115.856 78.5522C115.041 78.8816 114.322 79.3496 113.698 79.9562C113.074 80.5456 112.58 81.2649 112.216 82.1142C111.852 82.9636 111.67 83.9169 111.67 84.9742C111.67 86.0316 111.852 86.9849 112.216 87.8342C112.58 88.6836 113.074 89.4116 113.698 90.0182C114.322 90.6076 115.041 91.0669 115.856 91.3962C116.671 91.7256 117.529 91.8902 118.43 91.8902C119.626 91.8902 120.588 91.7082 121.316 91.3442C122.061 90.9802 122.685 90.5556 123.188 90.0702C123.552 89.7236 123.873 89.2729 124.15 88.7182C124.427 88.1462 124.609 87.5222 124.696 86.8462H118.404V84.1942ZM129.613 81.5422H132.343V83.4662H132.499C132.655 83.1369 132.863 82.8336 133.123 82.5562C133.401 82.2616 133.704 82.0189 134.033 81.8282C134.38 81.6202 134.735 81.4642 135.099 81.3602C135.481 81.2389 135.845 81.1782 136.191 81.1782C136.607 81.1782 136.963 81.2129 137.257 81.2822C137.552 81.3516 137.821 81.4469 138.063 81.5682L137.231 84.2462C137.041 84.1596 136.824 84.0989 136.581 84.0642C136.356 84.0122 136.079 83.9862 135.749 83.9862C135.281 83.9862 134.848 84.0816 134.449 84.2722C134.068 84.4629 133.73 84.7229 133.435 85.0522C133.141 85.3816 132.907 85.7716 132.733 86.2222C132.577 86.6729 132.499 87.1496 132.499 87.6522V94.2822H129.613V81.5422ZM144.758 81.1262C145.729 81.1262 146.622 81.2996 147.436 81.6462C148.251 81.9756 148.953 82.4436 149.542 83.0502C150.132 83.6569 150.591 84.3762 150.92 85.2082C151.25 86.0402 151.414 86.9416 151.414 87.9122C151.414 88.8829 151.25 89.7842 150.92 90.6162C150.591 91.4482 150.132 92.1676 149.542 92.7742C148.953 93.3809 148.251 93.8576 147.436 94.2042C146.622 94.5336 145.729 94.6982 144.758 94.6982C143.788 94.6982 142.895 94.5336 142.08 94.2042C141.266 93.8576 140.564 93.3809 139.974 92.7742C139.385 92.1676 138.926 91.4482 138.596 90.6162C138.267 89.7842 138.102 88.8829 138.102 87.9122C138.102 86.9416 138.267 86.0402 138.596 85.2082C138.926 84.3762 139.385 83.6569 139.974 83.0502C140.564 82.4436 141.266 81.9756 142.08 81.6462C142.895 81.2996 143.788 81.1262 144.758 81.1262ZM144.758 92.0202C145.244 92.0202 145.712 91.9249 146.162 91.7342C146.613 91.5436 147.012 91.2749 147.358 90.9282C147.722 90.5816 148.008 90.1569 148.216 89.6542C148.424 89.1342 148.528 88.5536 148.528 87.9122C148.528 87.2709 148.424 86.6989 148.216 86.1962C148.008 85.6762 147.722 85.2429 147.358 84.8962C147.012 84.5496 146.613 84.2809 146.162 84.0902C145.712 83.8996 145.244 83.8042 144.758 83.8042C144.273 83.8042 143.805 83.8996 143.354 84.0902C142.904 84.2809 142.496 84.5496 142.132 84.8962C141.786 85.2429 141.508 85.6762 141.3 86.1962C141.092 86.6989 140.988 87.2709 140.988 87.9122C140.988 88.5536 141.092 89.1342 141.3 89.6542C141.508 90.1569 141.786 90.5816 142.132 90.9282C142.496 91.2749 142.904 91.5436 143.354 91.7342C143.805 91.9249 144.273 92.0202 144.758 92.0202ZM162.347 92.5662H162.191C161.809 93.1729 161.263 93.6842 160.553 94.1002C159.859 94.4989 159.071 94.6982 158.187 94.6982C156.575 94.6982 155.37 94.2216 154.573 93.2682C153.775 92.2976 153.377 91.0149 153.377 89.4202V81.5422H156.263V89.0302C156.263 90.1396 156.514 90.9196 157.017 91.3702C157.537 91.8036 158.213 92.0202 159.045 92.0202C159.53 92.0202 159.963 91.9162 160.345 91.7082C160.743 91.5002 161.081 91.2229 161.359 90.8762C161.636 90.5122 161.844 90.1049 161.983 89.6542C162.121 89.1862 162.191 88.7009 162.191 88.1982V81.5422H165.077V94.2822H162.347V92.5662ZM167.875 81.5422H170.605V83.1802H170.761C171.107 82.6256 171.636 82.1489 172.347 81.7502C173.057 81.3342 173.907 81.1262 174.895 81.1262C175.709 81.1262 176.481 81.2996 177.209 81.6462C177.954 81.9756 178.604 82.4436 179.159 83.0502C179.713 83.6569 180.155 84.3762 180.485 85.2082C180.814 86.0229 180.979 86.9242 180.979 87.9122C180.979 88.9002 180.814 89.8102 180.485 90.6422C180.155 91.4569 179.713 92.1676 179.159 92.7742C178.604 93.3809 177.954 93.8576 177.209 94.2042C176.481 94.5336 175.709 94.6982 174.895 94.6982C173.907 94.6982 173.057 94.4989 172.347 94.1002C171.636 93.6842 171.107 93.1989 170.761 92.6442H170.605L170.761 94.4122V99.8982H167.875V81.5422ZM174.349 92.0202C174.834 92.0202 175.302 91.9249 175.753 91.7342C176.221 91.5436 176.619 91.2749 176.949 90.9282C177.295 90.5642 177.573 90.1309 177.781 89.6282C177.989 89.1256 178.093 88.5536 178.093 87.9122C178.093 87.2709 177.989 86.6989 177.781 86.1962C177.573 85.6936 177.295 85.2689 176.949 84.9222C176.619 84.5582 176.221 84.2809 175.753 84.0902C175.302 83.8996 174.834 83.8042 174.349 83.8042C173.846 83.8042 173.369 83.8996 172.919 84.0902C172.468 84.2809 172.069 84.5496 171.723 84.8962C171.393 85.2429 171.125 85.6762 170.917 86.1962C170.709 86.6989 170.605 87.2709 170.605 87.9122C170.605 88.5536 170.709 89.1342 170.917 89.6542C171.125 90.1569 171.393 90.5816 171.723 90.9282C172.069 91.2749 172.468 91.5436 172.919 91.7342C173.369 91.9249 173.846 92.0202 174.349 92.0202Z" fill="#19154A"/>
</svg>
