<svg width="253" height="78" viewBox="0 0 253 78" fill="none" xmlns="http://www.w3.org/2000/svg">
<path d="M5.40097 15.4582H21.593C25.2623 15.4582 28.569 16.0129 31.513 17.1222C34.457 18.2316 36.953 19.7889 39.001 21.7942C41.049 23.7996 42.6063 26.2102 43.673 29.0262C44.7823 31.8422 45.337 34.9569 45.337 38.3702C45.337 41.7836 44.7823 44.8982 43.673 47.7142C42.6063 50.5302 41.049 52.9409 39.001 54.9462C36.953 56.9516 34.457 58.5089 31.513 59.6182C28.569 60.7276 25.2623 61.2822 21.593 61.2822H5.40097V15.4582ZM21.081 51.8102C23.5556 51.8102 25.689 51.4902 27.481 50.8502C29.273 50.1676 30.745 49.2289 31.897 48.0342C33.0916 46.8396 33.9663 45.4316 34.521 43.8102C35.0756 42.1462 35.353 40.3329 35.353 38.3702C35.353 36.4076 35.0756 34.6156 34.521 32.9942C33.9663 31.3302 33.0916 29.9009 31.897 28.7062C30.745 27.5116 29.273 26.5942 27.481 25.9542C25.689 25.2716 23.5556 24.9302 21.081 24.9302H15.385V51.8102H21.081ZM80.713 53.6662C79.177 56.3542 77.1503 58.4662 74.633 60.0022C72.1583 61.5382 69.1503 62.3062 65.609 62.3062C63.177 62.3062 60.9156 61.9009 58.825 61.0902C56.777 60.2369 54.985 59.0636 53.449 57.5702C51.913 56.0769 50.7183 54.3276 49.865 52.3222C49.0116 50.2742 48.585 48.0342 48.585 45.6022C48.585 43.3409 49.0116 41.2076 49.865 39.2022C50.7183 37.1542 51.8916 35.3836 53.385 33.8902C54.921 32.3542 56.6916 31.1382 58.697 30.2422C60.745 29.3462 62.9636 28.8982 65.353 28.8982C67.9556 28.8982 70.2383 29.3249 72.201 30.1782C74.2063 31.0316 75.8703 32.2049 77.193 33.6982C78.5156 35.1489 79.5183 36.8769 80.201 38.8822C80.8836 40.8449 81.225 42.9569 81.225 45.2182C81.225 45.5596 81.2036 45.9009 81.161 46.2422C81.161 46.5836 81.1396 46.8822 81.097 47.1382C81.0543 47.4369 81.033 47.7142 81.033 47.9702H57.929C58.3983 50.0182 59.3583 51.5116 60.809 52.4502C62.2596 53.3889 63.881 53.8582 65.673 53.8582C67.465 53.8582 68.937 53.4742 70.089 52.7062C71.2836 51.9382 72.2223 50.9569 72.905 49.7622L80.713 53.6662ZM72.201 41.4422C72.1156 40.9302 71.9023 40.3756 71.561 39.7782C71.2623 39.1809 70.8143 38.6476 70.217 38.1782C69.6623 37.6662 68.9583 37.2609 68.105 36.9622C67.2943 36.6209 66.377 36.4502 65.353 36.4502C63.8596 36.4502 62.473 36.8769 61.193 37.7302C59.913 38.5836 58.9743 39.8209 58.377 41.4422H72.201ZM82.674 29.9222H93.81L100.85 47.7142H101.49L108.658 29.9222H119.666L105.842 61.2822H96.37L82.674 29.9222Z" fill="#19154A"/>
<mask id="path-2-outside-1_555_941" maskUnits="userSpaceOnUse" x="122.793" y="13.7822" width="131" height="50" fill="black">
<rect fill="white" x="122.793" y="13.7822" width="131" height="50"/>
<path d="M125.257 16.3902H154.521V25.5662H134.929V34.4942H152.537V43.6702H134.929V60.7822H125.257V16.3902ZM189.359 53.4042C187.871 56.0082 185.907 58.0542 183.469 59.5422C181.071 61.0302 178.157 61.7742 174.727 61.7742C172.371 61.7742 170.18 61.3816 168.155 60.5962C166.171 59.7696 164.435 58.6329 162.947 57.1862C161.459 55.7396 160.301 54.0449 159.475 52.1022C158.648 50.1182 158.235 47.9482 158.235 45.5922C158.235 43.4016 158.648 41.3349 159.475 39.3922C160.301 37.4082 161.438 35.6929 162.885 34.2462C164.373 32.7582 166.088 31.5802 168.031 30.7122C170.015 29.8442 172.164 29.4102 174.479 29.4102C177 29.4102 179.211 29.8236 181.113 30.6502C183.055 31.4769 184.667 32.6136 185.949 34.0602C187.23 35.4656 188.201 37.1396 188.863 39.0822C189.524 40.9836 189.855 43.0296 189.855 45.2202C189.855 45.5509 189.834 45.8816 189.793 46.2122C189.793 46.5429 189.772 46.8322 189.731 47.0802C189.689 47.3696 189.669 47.6382 189.669 47.8862H167.287C167.741 49.8702 168.671 51.3169 170.077 52.2262C171.482 53.1356 173.053 53.5902 174.789 53.5902C176.525 53.5902 177.951 53.2182 179.067 52.4742C180.224 51.7302 181.133 50.7796 181.795 49.6222L189.359 53.4042ZM181.113 41.5622C181.03 41.0662 180.823 40.5289 180.493 39.9502C180.203 39.3716 179.769 38.8549 179.191 38.4002C178.653 37.9042 177.971 37.5116 177.145 37.2222C176.359 36.8916 175.471 36.7262 174.479 36.7262C173.032 36.7262 171.689 37.1396 170.449 37.9662C169.209 38.7929 168.299 39.9916 167.721 41.5622H181.113ZM209.775 61.7742C207.667 61.7742 205.807 61.5262 204.195 61.0302C202.583 60.5342 201.177 59.8936 199.979 59.1082C198.821 58.2816 197.85 57.3516 197.065 56.3182C196.279 55.2436 195.68 54.1689 195.267 53.0942L203.637 49.5602C204.215 50.9656 205.021 51.9989 206.055 52.6602C207.088 53.2802 208.328 53.5902 209.775 53.5902C211.015 53.5902 211.965 53.4042 212.627 53.0322C213.329 52.6189 213.681 52.1022 213.681 51.4822C213.681 50.7796 213.35 50.2422 212.689 49.8702C212.027 49.4569 210.973 49.0849 209.527 48.7542L205.373 47.8862C204.381 47.6796 203.368 47.3489 202.335 46.8942C201.301 46.4396 200.351 45.8402 199.483 45.0962C198.615 44.3522 197.912 43.4842 197.375 42.4922C196.837 41.4589 196.569 40.2809 196.569 38.9582C196.569 37.5116 196.879 36.2096 197.499 35.0522C198.16 33.8536 199.049 32.8409 200.165 32.0142C201.281 31.1876 202.603 30.5469 204.133 30.0922C205.662 29.6376 207.336 29.4102 209.155 29.4102C212.296 29.4102 215.003 29.9682 217.277 31.0842C219.55 32.1589 221.265 33.9776 222.423 36.5402L214.425 39.8262C213.887 38.7516 213.123 37.9662 212.131 37.4702C211.18 36.9742 210.209 36.7262 209.217 36.7262C208.142 36.7262 207.274 36.9122 206.613 37.2842C205.951 37.6562 205.621 38.1109 205.621 38.6482C205.621 39.2269 205.951 39.7022 206.613 40.0742C207.315 40.4049 208.163 40.6942 209.155 40.9422L213.867 42.0582C216.967 42.8022 219.281 44.0009 220.811 45.6542C222.34 47.3076 223.105 49.2502 223.105 51.4822C223.105 52.8462 222.774 54.1482 222.113 55.3882C221.493 56.6282 220.583 57.7236 219.385 58.6742C218.227 59.6249 216.822 60.3689 215.169 60.9062C213.557 61.4849 211.759 61.7742 209.775 61.7742ZM232.974 38.2142H227.642V30.4022H232.974V21.1022H242.274V30.4022H249.776V38.2142H242.274V48.4442C242.274 49.1056 242.357 49.7256 242.522 50.3042C242.688 50.8416 242.977 51.2962 243.39 51.6682C244.01 52.2056 244.816 52.4742 245.808 52.4742C246.47 52.4742 247.028 52.3916 247.482 52.2262C247.937 52.0609 248.33 51.8542 248.66 51.6062L251.264 59.6662C250.19 60.1622 249.032 60.5549 247.792 60.8442C246.552 61.1336 245.23 61.2782 243.824 61.2782C240.559 61.2782 237.976 60.3276 236.074 58.4262C235.082 57.4342 234.318 56.2149 233.78 54.7682C233.243 53.2802 232.974 51.6476 232.974 49.8702V38.2142Z"/>
</mask>
<path d="M125.257 16.3902H154.521V25.5662H134.929V34.4942H152.537V43.6702H134.929V60.7822H125.257V16.3902ZM189.359 53.4042C187.871 56.0082 185.907 58.0542 183.469 59.5422C181.071 61.0302 178.157 61.7742 174.727 61.7742C172.371 61.7742 170.18 61.3816 168.155 60.5962C166.171 59.7696 164.435 58.6329 162.947 57.1862C161.459 55.7396 160.301 54.0449 159.475 52.1022C158.648 50.1182 158.235 47.9482 158.235 45.5922C158.235 43.4016 158.648 41.3349 159.475 39.3922C160.301 37.4082 161.438 35.6929 162.885 34.2462C164.373 32.7582 166.088 31.5802 168.031 30.7122C170.015 29.8442 172.164 29.4102 174.479 29.4102C177 29.4102 179.211 29.8236 181.113 30.6502C183.055 31.4769 184.667 32.6136 185.949 34.0602C187.23 35.4656 188.201 37.1396 188.863 39.0822C189.524 40.9836 189.855 43.0296 189.855 45.2202C189.855 45.5509 189.834 45.8816 189.793 46.2122C189.793 46.5429 189.772 46.8322 189.731 47.0802C189.689 47.3696 189.669 47.6382 189.669 47.8862H167.287C167.741 49.8702 168.671 51.3169 170.077 52.2262C171.482 53.1356 173.053 53.5902 174.789 53.5902C176.525 53.5902 177.951 53.2182 179.067 52.4742C180.224 51.7302 181.133 50.7796 181.795 49.6222L189.359 53.4042ZM181.113 41.5622C181.03 41.0662 180.823 40.5289 180.493 39.9502C180.203 39.3716 179.769 38.8549 179.191 38.4002C178.653 37.9042 177.971 37.5116 177.145 37.2222C176.359 36.8916 175.471 36.7262 174.479 36.7262C173.032 36.7262 171.689 37.1396 170.449 37.9662C169.209 38.7929 168.299 39.9916 167.721 41.5622H181.113ZM209.775 61.7742C207.667 61.7742 205.807 61.5262 204.195 61.0302C202.583 60.5342 201.177 59.8936 199.979 59.1082C198.821 58.2816 197.85 57.3516 197.065 56.3182C196.279 55.2436 195.68 54.1689 195.267 53.0942L203.637 49.5602C204.215 50.9656 205.021 51.9989 206.055 52.6602C207.088 53.2802 208.328 53.5902 209.775 53.5902C211.015 53.5902 211.965 53.4042 212.627 53.0322C213.329 52.6189 213.681 52.1022 213.681 51.4822C213.681 50.7796 213.35 50.2422 212.689 49.8702C212.027 49.4569 210.973 49.0849 209.527 48.7542L205.373 47.8862C204.381 47.6796 203.368 47.3489 202.335 46.8942C201.301 46.4396 200.351 45.8402 199.483 45.0962C198.615 44.3522 197.912 43.4842 197.375 42.4922C196.837 41.4589 196.569 40.2809 196.569 38.9582C196.569 37.5116 196.879 36.2096 197.499 35.0522C198.16 33.8536 199.049 32.8409 200.165 32.0142C201.281 31.1876 202.603 30.5469 204.133 30.0922C205.662 29.6376 207.336 29.4102 209.155 29.4102C212.296 29.4102 215.003 29.9682 217.277 31.0842C219.55 32.1589 221.265 33.9776 222.423 36.5402L214.425 39.8262C213.887 38.7516 213.123 37.9662 212.131 37.4702C211.18 36.9742 210.209 36.7262 209.217 36.7262C208.142 36.7262 207.274 36.9122 206.613 37.2842C205.951 37.6562 205.621 38.1109 205.621 38.6482C205.621 39.2269 205.951 39.7022 206.613 40.0742C207.315 40.4049 208.163 40.6942 209.155 40.9422L213.867 42.0582C216.967 42.8022 219.281 44.0009 220.811 45.6542C222.34 47.3076 223.105 49.2502 223.105 51.4822C223.105 52.8462 222.774 54.1482 222.113 55.3882C221.493 56.6282 220.583 57.7236 219.385 58.6742C218.227 59.6249 216.822 60.3689 215.169 60.9062C213.557 61.4849 211.759 61.7742 209.775 61.7742ZM232.974 38.2142H227.642V30.4022H232.974V21.1022H242.274V30.4022H249.776V38.2142H242.274V48.4442C242.274 49.1056 242.357 49.7256 242.522 50.3042C242.688 50.8416 242.977 51.2962 243.39 51.6682C244.01 52.2056 244.816 52.4742 245.808 52.4742C246.47 52.4742 247.028 52.3916 247.482 52.2262C247.937 52.0609 248.33 51.8542 248.66 51.6062L251.264 59.6662C250.19 60.1622 249.032 60.5549 247.792 60.8442C246.552 61.1336 245.23 61.2782 243.824 61.2782C240.559 61.2782 237.976 60.3276 236.074 58.4262C235.082 57.4342 234.318 56.2149 233.78 54.7682C233.243 53.2802 232.974 51.6476 232.974 49.8702V38.2142Z" fill="white"/>
<path d="M125.257 16.3902V14.3902H123.257V16.3902H125.257ZM154.521 16.3902H156.521V14.3902H154.521V16.3902ZM154.521 25.5662V27.5662H156.521V25.5662H154.521ZM134.929 25.5662V23.5662H132.929V25.5662H134.929ZM134.929 34.4942H132.929V36.4942H134.929V34.4942ZM152.537 34.4942H154.537V32.4942H152.537V34.4942ZM152.537 43.6702V45.6702H154.537V43.6702H152.537ZM134.929 43.6702V41.6702H132.929V43.6702H134.929ZM134.929 60.7822V62.7822H136.929V60.7822H134.929ZM125.257 60.7822H123.257V62.7822H125.257V60.7822ZM125.257 18.3902H154.521V14.3902H125.257V18.3902ZM152.521 16.3902V25.5662H156.521V16.3902H152.521ZM154.521 23.5662H134.929V27.5662H154.521V23.5662ZM132.929 25.5662V34.4942H136.929V25.5662H132.929ZM134.929 36.4942H152.537V32.4942H134.929V36.4942ZM150.537 34.4942V43.6702H154.537V34.4942H150.537ZM152.537 41.6702H134.929V45.6702H152.537V41.6702ZM132.929 43.6702V60.7822H136.929V43.6702H132.929ZM134.929 58.7822H125.257V62.7822H134.929V58.7822ZM127.257 60.7822V16.3902H123.257V60.7822H127.257ZM189.359 53.4042L191.095 54.3965L192.144 52.5609L190.253 51.6154L189.359 53.4042ZM183.469 59.5422L182.427 57.8349L182.42 57.8389L182.414 57.8429L183.469 59.5422ZM168.155 60.5962L167.385 62.4424L167.408 62.452L167.432 62.4609L168.155 60.5962ZM159.475 52.1022L157.629 52.8715L157.631 52.8784L157.634 52.8853L159.475 52.1022ZM159.475 39.3922L161.315 40.1753L161.318 40.1684L161.321 40.1615L159.475 39.3922ZM162.885 34.2462L161.47 32.832V32.832L162.885 34.2462ZM168.031 30.7122L167.229 28.8799L167.222 28.883L167.215 28.8862L168.031 30.7122ZM181.113 30.6502L180.315 32.4844L180.322 32.4875L180.33 32.4905L181.113 30.6502ZM185.949 34.0602L184.451 35.3863L184.461 35.3971L184.471 35.4077L185.949 34.0602ZM188.863 39.0822L186.969 39.7268L186.974 39.7393L188.863 39.0822ZM189.793 46.2122L187.808 45.9641L187.793 46.0877V46.2122H189.793ZM189.731 47.0802L187.758 46.7514L187.754 46.7744L187.751 46.7974L189.731 47.0802ZM189.669 47.8862V49.8862H191.669V47.8862H189.669ZM167.287 47.8862V45.8862H164.776L165.337 48.333L167.287 47.8862ZM170.077 52.2262L171.163 50.5471H171.163L170.077 52.2262ZM179.067 52.4742L177.985 50.7919L177.971 50.8009L177.957 50.8101L179.067 52.4742ZM181.795 49.6222L182.689 47.8334L180.997 46.9873L180.058 48.6299L181.795 49.6222ZM181.113 41.5622V43.5622H183.474L183.085 41.2334L181.113 41.5622ZM180.493 39.9502L178.704 40.8447L178.729 40.8943L178.756 40.9425L180.493 39.9502ZM179.191 38.4002L177.834 39.8698L177.893 39.9237L177.955 39.9729L179.191 38.4002ZM177.145 37.2222L176.369 39.0655L176.426 39.0895L176.484 39.1099L177.145 37.2222ZM170.449 37.9662L169.339 36.3021H169.339L170.449 37.9662ZM167.721 41.5622L165.844 40.8708L164.852 43.5622H167.721V41.5622ZM187.622 52.4119C186.293 54.7379 184.563 56.5317 182.427 57.8349L184.51 61.2495C187.252 59.5768 189.448 57.2785 191.095 54.3965L187.622 52.4119ZM182.414 57.8429C180.396 59.0958 177.865 59.7742 174.727 59.7742V63.7742C178.449 63.7742 181.747 62.9647 184.523 61.2415L182.414 57.8429ZM174.727 59.7742C172.597 59.7742 170.654 59.4201 168.878 58.7315L167.432 62.4609C169.706 63.343 172.144 63.7742 174.727 63.7742V59.7742ZM168.924 58.7501C167.164 58.0167 165.642 57.0171 164.341 55.7522L161.553 58.6202C163.227 60.2486 165.177 61.5224 167.385 62.4424L168.924 58.7501ZM164.341 55.7522C163.047 54.494 162.039 53.0217 161.315 51.3191L157.634 52.8853C158.563 55.0681 159.871 56.9851 161.553 58.6202L164.341 55.7522ZM161.321 51.333C160.605 49.6152 160.235 47.7097 160.235 45.5922H156.235C156.235 48.1868 156.691 50.6212 157.629 52.8715L161.321 51.333ZM160.235 45.5922C160.235 43.6603 160.598 41.861 161.315 40.1753L157.634 38.6091C156.698 40.8088 156.235 43.1428 156.235 45.5922H160.235ZM161.321 40.1615C162.052 38.4062 163.046 36.9131 164.299 35.6604L161.47 32.832C159.83 34.4727 158.55 36.4102 157.629 38.623L161.321 40.1615ZM164.299 35.6604C165.612 34.347 167.124 33.3078 168.847 32.5382L167.215 28.8862C165.052 29.8527 163.133 31.1694 161.47 32.832L164.299 35.6604ZM168.832 32.5445C170.546 31.7946 172.421 31.4102 174.479 31.4102V27.4102C171.907 27.4102 169.483 27.8938 167.229 28.8799L168.832 32.5445ZM174.479 31.4102C176.784 31.4102 178.714 31.788 180.315 32.4844L181.91 28.8161C179.709 27.8591 177.216 27.4102 174.479 27.4102V31.4102ZM180.33 32.4905C182.025 33.2118 183.385 34.1819 184.451 35.3863L187.446 32.7342C185.95 31.0452 184.086 29.742 181.896 28.8099L180.33 32.4905ZM184.471 35.4077C185.552 36.5941 186.39 38.0236 186.969 39.7268L190.756 38.4377C190.013 36.2555 188.908 34.337 187.427 32.7127L184.471 35.4077ZM186.974 39.7393C187.555 41.4115 187.855 43.2335 187.855 45.2202H191.855C191.855 42.8256 191.493 40.5556 190.752 38.4252L186.974 39.7393ZM187.855 45.2202C187.855 45.4673 187.839 45.7151 187.808 45.9641L191.777 46.4603C191.829 46.048 191.855 45.6345 191.855 45.2202H187.855ZM187.793 46.2122C187.793 46.4649 187.776 46.6398 187.758 46.7514L191.703 47.409C191.768 47.0246 191.793 46.6209 191.793 46.2122H187.793ZM187.751 46.7974C187.698 47.1644 187.669 47.5287 187.669 47.8862H191.669C191.669 47.7478 191.68 47.5748 191.711 47.3631L187.751 46.7974ZM189.669 45.8862H167.287V49.8862H189.669V45.8862ZM165.337 48.333C165.882 50.7081 167.057 52.6544 168.99 53.9054L171.163 50.5471C170.286 49.9794 169.601 49.0323 169.236 47.4395L165.337 48.333ZM168.99 53.9054C170.732 55.0322 172.682 55.5902 174.789 55.5902V51.5902C173.423 51.5902 172.232 51.2389 171.163 50.5471L168.99 53.9054ZM174.789 55.5902C176.804 55.5902 178.647 55.1575 180.176 54.1383L177.957 50.8101C177.254 51.279 176.245 51.5902 174.789 51.5902V55.5902ZM180.148 54.1566C181.567 53.2444 182.705 52.0604 183.531 50.6145L180.058 48.6299C179.562 49.4987 178.881 50.2161 177.985 50.7919L180.148 54.1566ZM180.9 51.4111L188.464 55.1931L190.253 51.6154L182.689 47.8334L180.9 51.4111ZM183.085 41.2334C182.954 40.4418 182.641 39.6791 182.229 38.9579L178.756 40.9425C179.005 41.3787 179.106 41.6906 179.14 41.891L183.085 41.2334ZM182.282 39.0558C181.843 38.1789 181.205 37.4396 180.426 36.8276L177.955 39.9729C178.333 40.2702 178.564 40.5642 178.704 40.8447L182.282 39.0558ZM180.547 36.9306C179.773 36.2163 178.84 35.6966 177.805 35.3345L176.484 39.1099C177.103 39.3265 177.533 39.5922 177.834 39.8698L180.547 36.9306ZM177.921 35.379C176.853 34.9293 175.694 34.7262 174.479 34.7262V38.7262C175.247 38.7262 175.866 38.8538 176.369 39.0655L177.921 35.379ZM174.479 34.7262C172.625 34.7262 170.897 35.2634 169.339 36.3021L171.558 39.6303C172.48 39.0157 173.439 38.7262 174.479 38.7262V34.7262ZM169.339 36.3021C167.704 37.3922 166.55 38.954 165.844 40.8708L169.597 42.2536C170.049 41.0291 170.713 40.1936 171.558 39.6303L169.339 36.3021ZM167.721 43.5622H181.113V39.5622H167.721V43.5622ZM199.979 59.1082L198.816 60.7357L198.849 60.7591L198.883 60.7811L199.979 59.1082ZM197.065 56.3182L195.45 57.4983L195.461 57.5134L195.472 57.5284L197.065 56.3182ZM195.267 53.0942L194.489 51.2517L192.705 52.0049L193.4 53.8122L195.267 53.0942ZM203.637 49.5602L205.486 48.7987L204.718 46.9328L202.859 47.7177L203.637 49.5602ZM206.055 52.6602L204.976 54.3448L205.001 54.3603L205.026 54.3752L206.055 52.6602ZM212.627 53.0322L213.607 54.7754L213.624 54.7659L213.641 54.7561L212.627 53.0322ZM212.689 49.8702L211.629 51.5662L211.668 51.5907L211.708 51.6134L212.689 49.8702ZM209.527 48.7542L209.972 46.8045L209.954 46.8003L209.936 46.7965L209.527 48.7542ZM205.373 47.8862L205.782 45.9285L205.781 45.9283L205.373 47.8862ZM202.335 46.8942L201.529 48.7249L202.335 46.8942ZM199.483 45.0962L200.784 43.5777L199.483 45.0962ZM197.375 42.4922L195.6 43.4149L195.608 43.4299L195.616 43.4448L197.375 42.4922ZM197.499 35.0522L195.747 34.0861L195.741 34.0969L195.736 34.1078L197.499 35.0522ZM200.165 32.0142L201.355 33.6213L200.165 32.0142ZM217.277 31.0842L216.395 32.8796L216.408 32.8861L216.422 32.8924L217.277 31.0842ZM222.423 36.5402L223.183 38.3902L225.097 37.6035L224.245 35.7171L222.423 36.5402ZM214.425 39.8262L212.636 40.7206L213.466 42.3821L215.185 41.6762L214.425 39.8262ZM212.131 37.4702L211.205 39.2434L211.221 39.2514L211.236 39.2591L212.131 37.4702ZM206.613 37.2842L207.593 39.0274L206.613 37.2842ZM206.613 40.0742L205.632 41.8174L205.695 41.853L205.761 41.8839L206.613 40.0742ZM209.155 40.9422L208.67 42.8825L208.682 42.8855L208.694 42.8884L209.155 40.9422ZM213.867 42.0582L214.333 40.1134L214.328 40.1121L213.867 42.0582ZM220.811 45.6542L222.279 44.2961L220.811 45.6542ZM222.113 55.3882L220.348 54.447L220.336 54.4703L220.324 54.4938L222.113 55.3882ZM219.385 58.6742L218.142 57.1072L218.128 57.1179L218.115 57.1288L219.385 58.6742ZM215.169 60.9062L214.55 59.0042L214.521 59.0136L214.493 59.0238L215.169 60.9062ZM209.775 59.7742C207.818 59.7742 206.164 59.5435 204.783 59.1187L203.606 62.9418C205.45 63.5089 207.515 63.7742 209.775 63.7742V59.7742ZM204.783 59.1187C203.32 58.6685 202.091 58.1013 201.075 57.4353L198.883 60.7811C200.263 61.6858 201.846 62.4 203.606 62.9418L204.783 59.1187ZM201.141 57.4808C200.132 56.7597 199.31 55.967 198.657 55.1081L195.472 57.5284C196.39 58.7361 197.511 59.8034 198.816 60.7357L201.141 57.4808ZM198.679 55.1382C197.982 54.1842 197.474 53.2632 197.133 52.3763L193.4 53.8122C193.885 55.0745 194.576 56.3029 195.45 57.4983L198.679 55.1382ZM196.045 54.9367L204.415 51.4027L202.859 47.7177L194.489 51.2517L196.045 54.9367ZM201.787 50.3217C202.484 52.0151 203.523 53.4142 204.976 54.3448L207.133 50.9757C206.52 50.5836 205.946 49.9161 205.486 48.7987L201.787 50.3217ZM205.026 54.3752C206.427 55.216 208.038 55.5902 209.775 55.5902V51.5902C208.617 51.5902 207.749 51.3445 207.084 50.9452L205.026 54.3752ZM209.775 55.5902C211.164 55.5902 212.513 55.3906 213.607 54.7754L211.646 51.2891C211.417 51.4179 210.865 51.5902 209.775 51.5902V55.5902ZM213.641 54.7561C214.735 54.1124 215.681 53.033 215.681 51.4822H211.681C211.681 51.4455 211.686 51.3944 211.704 51.3372C211.722 51.2802 211.745 51.2369 211.763 51.2101C211.797 51.1612 211.783 51.2078 211.613 51.3084L213.641 54.7561ZM215.681 51.4822C215.681 49.989 214.899 48.8187 213.669 48.1271L211.708 51.6134C211.757 51.6406 211.773 51.6566 211.771 51.6545C211.768 51.6514 211.75 51.6338 211.729 51.6004C211.708 51.5664 211.694 51.5311 211.686 51.5016C211.679 51.4733 211.681 51.4642 211.681 51.4822H215.681ZM213.749 48.1742C212.797 47.5793 211.477 47.1485 209.972 46.8045L209.081 50.7039C210.47 51.0213 211.258 51.3345 211.629 51.5662L213.749 48.1742ZM209.936 46.7965L205.782 45.9285L204.964 49.8439L209.118 50.7119L209.936 46.7965ZM205.781 45.9283C204.94 45.7531 204.06 45.4683 203.14 45.0636L201.529 48.7249C202.676 49.2294 203.822 49.606 204.965 49.8442L205.781 45.9283ZM203.14 45.0636C202.289 44.689 201.505 44.1955 200.784 43.5777L198.181 46.6147C199.196 47.4849 200.314 48.1901 201.529 48.7249L203.14 45.0636ZM200.784 43.5777C200.099 42.9907 199.552 42.3137 199.133 41.5397L195.616 43.4448C196.271 44.6547 197.13 45.7138 198.181 46.6147L200.784 43.5777ZM199.149 41.5695C198.779 40.8578 198.569 40.0036 198.569 38.9582H194.569C194.569 40.5581 194.896 42.06 195.6 43.4149L199.149 41.5695ZM198.569 38.9582C198.569 37.8068 198.813 36.8348 199.262 35.9967L195.736 34.1078C194.945 35.5844 194.569 37.2163 194.569 38.9582H198.569ZM199.25 36.0184C199.77 35.0749 200.466 34.2796 201.355 33.6213L198.974 30.4071C197.631 31.4021 196.55 32.6322 195.747 34.0861L199.25 36.0184ZM201.355 33.6213C202.258 32.9523 203.364 32.4073 204.703 32.0093L203.563 28.1752C201.843 28.6865 200.303 29.4228 198.974 30.4071L201.355 33.6213ZM204.703 32.0093C206.023 31.6167 207.502 31.4102 209.155 31.4102V27.4102C207.169 27.4102 205.301 27.6584 203.563 28.1752L204.703 32.0093ZM209.155 31.4102C212.062 31.4102 214.454 31.9267 216.395 32.8796L218.158 29.2889C215.552 28.0098 212.53 27.4102 209.155 27.4102V31.4102ZM216.422 32.8924C218.215 33.7398 219.613 35.1789 220.6 37.3634L224.245 35.7171C222.917 32.7762 220.885 30.578 218.131 29.2761L216.422 32.8924ZM221.663 34.6903L213.665 37.9763L215.185 41.6762L223.183 38.3902L221.663 34.6903ZM216.213 38.9318C215.5 37.5043 214.437 36.3873 213.025 35.6814L211.236 39.2591C211.808 39.5451 212.275 39.9989 212.636 40.7206L216.213 38.9318ZM213.056 35.6971C211.843 35.0644 210.556 34.7262 209.217 34.7262V38.7262C209.861 38.7262 210.517 38.8841 211.205 39.2434L213.056 35.6971ZM209.217 34.7262C207.933 34.7262 206.692 34.945 205.632 35.5411L207.593 39.0274C207.856 38.8795 208.35 38.7262 209.217 38.7262V34.7262ZM205.632 35.5411C204.632 36.1039 203.621 37.1074 203.621 38.6482H207.621C207.621 38.7228 207.608 38.8076 207.58 38.8932C207.552 38.9779 207.515 39.0408 207.486 39.0806C207.434 39.1521 207.43 39.1191 207.593 39.0274L205.632 35.5411ZM203.621 38.6482C203.621 40.1757 204.567 41.2181 205.632 41.8174L207.593 38.3311C207.447 38.2489 207.459 38.2221 207.51 38.2966C207.538 38.3362 207.569 38.3931 207.591 38.4642C207.613 38.5352 207.621 38.5996 207.621 38.6482H203.621ZM205.761 41.8839C206.611 42.2841 207.589 42.6123 208.67 42.8825L209.64 39.0019C208.737 38.7762 208.019 38.5257 207.464 38.2646L205.761 41.8839ZM208.694 42.8884L213.406 44.0044L214.328 40.1121L209.616 38.9961L208.694 42.8884ZM213.4 44.003C216.269 44.6915 218.172 45.7466 219.342 47.0123L222.279 44.2961C220.391 42.2552 217.665 40.9129 214.333 40.1134L213.4 44.003ZM219.342 47.0123C220.533 48.2997 221.105 49.7588 221.105 51.4822H225.105C225.105 48.7417 224.147 46.3154 222.279 44.2961L219.342 47.0123ZM221.105 51.4822C221.105 52.5078 220.86 53.4876 220.348 54.447L223.877 56.3294C224.688 54.8089 225.105 53.1847 225.105 51.4822H221.105ZM220.324 54.4938C219.847 55.4464 219.135 56.3192 218.142 57.1072L220.627 60.2412C222.031 59.1279 223.138 57.8101 223.901 56.2827L220.324 54.4938ZM218.115 57.1288C217.179 57.8977 216.004 58.5318 214.55 59.0042L215.787 62.8083C217.64 62.206 219.275 61.3521 220.654 60.2197L218.115 57.1288ZM214.493 59.0238C213.129 59.5134 211.564 59.7742 209.775 59.7742V63.7742C211.953 63.7742 213.984 63.4564 215.844 62.7886L214.493 59.0238ZM232.974 38.2142H234.974V36.2142H232.974V38.2142ZM227.642 38.2142H225.642V40.2142H227.642V38.2142ZM227.642 30.4022V28.4022H225.642V30.4022H227.642ZM232.974 30.4022V32.4022H234.974V30.4022H232.974ZM232.974 21.1022V19.1022H230.974V21.1022H232.974ZM242.274 21.1022H244.274V19.1022H242.274V21.1022ZM242.274 30.4022H240.274V32.4022H242.274V30.4022ZM249.776 30.4022H251.776V28.4022H249.776V30.4022ZM249.776 38.2142V40.2142H251.776V38.2142H249.776ZM242.274 38.2142V36.2142H240.274V38.2142H242.274ZM242.522 50.3042L240.599 50.8537L240.605 50.8731L240.611 50.8924L242.522 50.3042ZM243.39 51.6682L242.052 53.1548L242.066 53.1673L242.08 53.1796L243.39 51.6682ZM247.482 52.2262L246.799 50.3466L247.482 52.2262ZM248.66 51.6062L250.563 50.9914L249.702 48.325L247.46 50.0062L248.66 51.6062ZM251.264 59.6662L252.102 61.4821L253.713 60.739L253.167 59.0514L251.264 59.6662ZM247.792 60.8442L247.338 58.8965L247.792 60.8442ZM236.074 58.4262L237.488 57.012L236.074 58.4262ZM233.78 54.7682L231.899 55.4475L231.902 55.4561L231.905 55.4646L233.78 54.7682ZM232.974 36.2142H227.642V40.2142H232.974V36.2142ZM229.642 38.2142V30.4022H225.642V38.2142H229.642ZM227.642 32.4022H232.974V28.4022H227.642V32.4022ZM234.974 30.4022V21.1022H230.974V30.4022H234.974ZM232.974 23.1022H242.274V19.1022H232.974V23.1022ZM240.274 21.1022V30.4022H244.274V21.1022H240.274ZM242.274 32.4022H249.776V28.4022H242.274V32.4022ZM247.776 30.4022V38.2142H251.776V30.4022H247.776ZM249.776 36.2142H242.274V40.2142H249.776V36.2142ZM240.274 38.2142V48.4442H244.274V38.2142H240.274ZM240.274 48.4442C240.274 49.2732 240.378 50.0796 240.599 50.8537L244.445 49.7548C244.336 49.3715 244.274 48.9379 244.274 48.4442H240.274ZM240.611 50.8924C240.881 51.7716 241.367 52.538 242.052 53.1548L244.728 50.1816C244.587 50.0545 244.494 49.9115 244.434 49.7161L240.611 50.8924ZM242.08 53.1796C243.136 54.0947 244.44 54.4742 245.808 54.4742V50.4742C245.192 50.4742 244.884 50.3164 244.7 50.1568L242.08 53.1796ZM245.808 54.4742C246.623 54.4742 247.428 54.3741 248.166 54.1058L246.799 50.3466C246.627 50.409 246.316 50.4742 245.808 50.4742V54.4742ZM248.166 54.1058C248.775 53.8844 249.348 53.5905 249.86 53.2062L247.46 50.0062C247.311 50.118 247.099 50.2374 246.799 50.3466L248.166 54.1058ZM246.757 52.2211L249.361 60.2811L253.167 59.0514L250.563 50.9914L246.757 52.2211ZM250.426 57.8503C249.483 58.2854 248.456 58.6357 247.338 58.8965L248.247 62.7919C249.609 62.4741 250.896 62.0391 252.102 61.4821L250.426 57.8503ZM247.338 58.8965C246.261 59.1477 245.092 59.2782 243.824 59.2782V63.2782C245.367 63.2782 246.843 63.1194 248.247 62.7919L247.338 58.8965ZM243.824 59.2782C240.968 59.2782 238.937 58.4604 237.488 57.012L234.66 59.8404C237.014 62.1947 240.15 63.2782 243.824 63.2782V59.2782ZM237.488 57.012C236.719 56.243 236.102 55.2761 235.655 54.0719L231.905 55.4646C232.533 57.1537 233.445 58.6255 234.66 59.8404L237.488 57.012ZM235.661 54.0889C235.212 52.8439 234.974 51.4443 234.974 49.8702H230.974C230.974 51.8508 231.274 53.7165 231.899 55.4475L235.661 54.0889ZM234.974 49.8702V38.2142H230.974V49.8702H234.974Z" fill="#19154A" mask="url(#path-2-outside-1_555_941)"/>
</svg>
